<svg width="601" height="122" viewBox="0 0 601 122" fill="none" xmlns="http://www.w3.org/2000/svg">
<path d="M600.707 64.7071C601.098 64.3166 601.098 63.6834 600.707 63.2929L594.343 56.9289C593.953 56.5384 593.319 56.5384 592.929 56.9289C592.538 57.3195 592.538 57.9526 592.929 58.3432L598.586 64L592.929 69.6569C592.538 70.0474 592.538 70.6806 592.929 71.0711C593.319 71.4616 593.953 71.4616 594.343 71.0711L600.707 64.7071ZM8.74228e-08 65.0001L600 65L600 63L-8.74228e-08 63.0001L8.74228e-08 65.0001Z" fill="black"/>
<line x1="74" y1="104" x2="74" y2="24" stroke="black" stroke-width="2"/>
<line x1="524" y1="104" x2="524" y2="24" stroke="black" stroke-width="2"/>
<line x1="269" y1="104" x2="269" y2="24" stroke="black" stroke-width="2"/>
<path d="M242.679 11C242.599 11 242.531 10.976 242.475 10.928C242.427 10.872 242.403 10.804 242.403 10.724V2.888C242.403 2.8 242.427 2.732 242.475 2.684C242.531 2.628 242.599 2.6 242.679 2.6H245.403C246.611 2.6 247.483 2.872 248.019 3.416C248.555 3.952 248.835 4.764 248.859 5.852C248.867 6.084 248.871 6.396 248.871 6.788C248.871 7.18 248.867 7.496 248.859 7.736C248.835 8.496 248.707 9.116 248.475 9.596C248.251 10.068 247.895 10.42 247.407 10.652C246.919 10.884 246.271 11 245.463 11H242.679ZM245.403 9.98C245.955 9.98 246.391 9.904 246.711 9.752C247.039 9.6 247.275 9.36 247.419 9.032C247.571 8.696 247.655 8.248 247.671 7.688C247.687 7.208 247.695 6.908 247.695 6.788C247.695 6.66 247.687 6.364 247.671 5.9C247.655 5.108 247.467 4.532 247.107 4.172C246.747 3.804 246.159 3.62 245.343 3.62H243.579V9.98H245.403ZM253.017 11.12C252.193 11.12 251.533 10.868 251.037 10.364C250.549 9.852 250.281 9.156 250.233 8.276L250.221 7.868L250.233 7.472C250.289 6.608 250.561 5.92 251.049 5.408C251.545 4.896 252.197 4.64 253.005 4.64C253.893 4.64 254.581 4.924 255.069 5.492C255.557 6.052 255.801 6.812 255.801 7.772V7.976C255.801 8.056 255.773 8.124 255.717 8.18C255.669 8.228 255.605 8.252 255.525 8.252H251.373V8.36C251.397 8.88 251.553 9.324 251.841 9.692C252.137 10.052 252.525 10.232 253.005 10.232C253.373 10.232 253.673 10.16 253.905 10.016C254.145 9.864 254.321 9.708 254.433 9.548C254.505 9.452 254.557 9.396 254.589 9.38C254.629 9.356 254.697 9.344 254.793 9.344H255.381C255.453 9.344 255.513 9.364 255.561 9.404C255.609 9.444 255.633 9.5 255.633 9.572C255.633 9.748 255.521 9.96 255.297 10.208C255.081 10.456 254.773 10.672 254.373 10.856C253.981 11.032 253.529 11.12 253.017 11.12ZM254.661 7.424V7.388C254.661 6.836 254.509 6.388 254.205 6.044C253.909 5.692 253.509 5.516 253.005 5.516C252.501 5.516 252.101 5.692 251.805 6.044C251.517 6.388 251.373 6.836 251.373 7.388V7.424H254.661ZM252.681 3.86C252.553 3.86 252.489 3.796 252.489 3.668C252.489 3.604 252.509 3.552 252.549 3.512L253.449 2.432C253.529 2.344 253.593 2.284 253.641 2.252C253.697 2.22 253.781 2.204 253.893 2.204H254.709C254.781 2.204 254.837 2.228 254.877 2.276C254.917 2.316 254.937 2.372 254.937 2.444C254.937 2.5 254.917 2.548 254.877 2.588L253.485 3.728C253.421 3.784 253.361 3.82 253.305 3.836C253.249 3.852 253.177 3.86 253.089 3.86H252.681ZM259.756 11.12C258.9 11.12 258.228 10.88 257.74 10.4C257.26 9.912 257.004 9.232 256.972 8.36L256.96 7.88L256.972 7.4C257.004 6.528 257.26 5.852 257.74 5.372C258.228 4.884 258.9 4.64 259.756 4.64C260.332 4.64 260.82 4.744 261.22 4.952C261.62 5.16 261.916 5.416 262.108 5.72C262.308 6.024 262.416 6.328 262.432 6.632C262.44 6.712 262.416 6.776 262.36 6.824C262.304 6.872 262.236 6.896 262.156 6.896H261.58C261.5 6.896 261.44 6.88 261.4 6.848C261.36 6.816 261.32 6.752 261.28 6.656C261.144 6.272 260.952 6 260.704 5.84C260.456 5.672 260.144 5.588 259.768 5.588C259.272 5.588 258.876 5.744 258.58 6.056C258.292 6.36 258.136 6.828 258.112 7.46L258.1 7.892L258.112 8.3C258.136 8.94 258.292 9.412 258.58 9.716C258.868 10.02 259.264 10.172 259.768 10.172C260.144 10.172 260.456 10.092 260.704 9.932C260.952 9.764 261.144 9.488 261.28 9.104C261.32 9.008 261.36 8.944 261.4 8.912C261.44 8.872 261.5 8.852 261.58 8.852H262.156C262.236 8.852 262.304 8.88 262.36 8.936C262.416 8.984 262.44 9.048 262.432 9.128C262.416 9.424 262.308 9.728 262.108 10.04C261.916 10.344 261.62 10.6 261.22 10.808C260.828 11.016 260.34 11.12 259.756 11.12ZM266.353 11.12C265.529 11.12 264.869 10.868 264.373 10.364C263.885 9.852 263.617 9.156 263.569 8.276L263.557 7.868L263.569 7.472C263.625 6.608 263.897 5.92 264.385 5.408C264.881 4.896 265.533 4.64 266.341 4.64C267.229 4.64 267.917 4.924 268.405 5.492C268.893 6.052 269.137 6.812 269.137 7.772V7.976C269.137 8.056 269.109 8.124 269.053 8.18C269.005 8.228 268.941 8.252 268.861 8.252H264.709V8.36C264.733 8.88 264.889 9.324 265.177 9.692C265.473 10.052 265.861 10.232 266.341 10.232C266.709 10.232 267.009 10.16 267.241 10.016C267.481 9.864 267.657 9.708 267.769 9.548C267.841 9.452 267.893 9.396 267.925 9.38C267.965 9.356 268.033 9.344 268.129 9.344H268.717C268.789 9.344 268.849 9.364 268.897 9.404C268.945 9.444 268.969 9.5 268.969 9.572C268.969 9.748 268.857 9.96 268.633 10.208C268.417 10.456 268.109 10.672 267.709 10.856C267.317 11.032 266.865 11.12 266.353 11.12ZM267.997 7.424V7.388C267.997 6.836 267.845 6.388 267.541 6.044C267.245 5.692 266.845 5.516 266.341 5.516C265.837 5.516 265.437 5.692 265.141 6.044C264.853 6.388 264.709 6.836 264.709 7.388V7.424H267.997ZM270.848 11C270.768 11 270.7 10.976 270.644 10.928C270.596 10.872 270.572 10.804 270.572 10.724V5.036C270.572 4.956 270.596 4.892 270.644 4.844C270.7 4.788 270.768 4.76 270.848 4.76H271.388C271.468 4.76 271.532 4.788 271.58 4.844C271.636 4.892 271.664 4.956 271.664 5.036V5.456C272.08 4.912 272.66 4.64 273.404 4.64C274.292 4.64 274.92 5.008 275.288 5.744C275.48 5.408 275.752 5.14 276.104 4.94C276.456 4.74 276.852 4.64 277.292 4.64C277.948 4.64 278.484 4.864 278.9 5.312C279.316 5.76 279.524 6.408 279.524 7.256V10.724C279.524 10.804 279.496 10.872 279.44 10.928C279.392 10.976 279.328 11 279.248 11H278.684C278.604 11 278.536 10.976 278.48 10.928C278.432 10.872 278.408 10.804 278.408 10.724V7.364C278.408 6.74 278.276 6.292 278.012 6.02C277.756 5.748 277.416 5.612 276.992 5.612C276.616 5.612 276.292 5.752 276.02 6.032C275.748 6.304 275.612 6.748 275.612 7.364V10.724C275.612 10.804 275.584 10.872 275.528 10.928C275.48 10.976 275.416 11 275.336 11H274.772C274.692 11 274.624 10.976 274.568 10.928C274.52 10.872 274.496 10.804 274.496 10.724V7.364C274.496 6.74 274.36 6.292 274.088 6.02C273.824 5.748 273.488 5.612 273.08 5.612C272.704 5.612 272.38 5.752 272.108 6.032C271.836 6.304 271.7 6.744 271.7 7.352V10.724C271.7 10.804 271.672 10.872 271.616 10.928C271.568 10.976 271.504 11 271.424 11H270.848ZM284.32 11.12C283.456 11.12 282.8 10.82 282.352 10.22V10.724C282.352 10.804 282.324 10.872 282.268 10.928C282.22 10.976 282.156 11 282.076 11H281.524C281.444 11 281.376 10.976 281.32 10.928C281.272 10.872 281.248 10.804 281.248 10.724V2.756C281.248 2.676 281.272 2.612 281.32 2.564C281.376 2.508 281.444 2.48 281.524 2.48H282.112C282.192 2.48 282.256 2.508 282.304 2.564C282.352 2.612 282.376 2.676 282.376 2.756V5.516C282.848 4.932 283.496 4.64 284.32 4.64C285.152 4.64 285.78 4.916 286.204 5.468C286.628 6.012 286.856 6.696 286.888 7.52C286.896 7.608 286.9 7.728 286.9 7.88C286.9 8.032 286.896 8.152 286.888 8.24C286.856 9.072 286.628 9.76 286.204 10.304C285.78 10.848 285.152 11.12 284.32 11.12ZM284.068 10.148C284.636 10.148 285.048 9.972 285.304 9.62C285.568 9.268 285.712 8.804 285.736 8.228C285.744 8.148 285.748 8.032 285.748 7.88C285.748 6.368 285.188 5.612 284.068 5.612C283.532 5.612 283.12 5.788 282.832 6.14C282.544 6.492 282.392 6.904 282.376 7.376L282.364 7.844L282.376 8.3C282.4 8.804 282.548 9.24 282.82 9.608C283.1 9.968 283.516 10.148 284.068 10.148ZM288.648 11C288.568 11 288.5 10.976 288.444 10.928C288.396 10.872 288.372 10.804 288.372 10.724V5.048C288.372 4.968 288.396 4.9 288.444 4.844C288.5 4.788 288.568 4.76 288.648 4.76H289.2C289.28 4.76 289.348 4.788 289.404 4.844C289.46 4.9 289.488 4.968 289.488 5.048V5.576C289.816 5.032 290.376 4.76 291.168 4.76H291.636C291.716 4.76 291.78 4.788 291.828 4.844C291.884 4.892 291.912 4.956 291.912 5.036V5.528C291.912 5.608 291.884 5.672 291.828 5.72C291.78 5.768 291.716 5.792 291.636 5.792H290.916C290.484 5.792 290.144 5.92 289.896 6.176C289.648 6.424 289.524 6.764 289.524 7.196V10.724C289.524 10.804 289.496 10.872 289.44 10.928C289.384 10.976 289.316 11 289.236 11H288.648ZM295.31 11.12C294.486 11.12 293.826 10.868 293.33 10.364C292.842 9.852 292.574 9.156 292.526 8.276L292.514 7.868L292.526 7.472C292.582 6.608 292.854 5.92 293.342 5.408C293.838 4.896 294.49 4.64 295.298 4.64C296.186 4.64 296.874 4.924 297.362 5.492C297.85 6.052 298.094 6.812 298.094 7.772V7.976C298.094 8.056 298.066 8.124 298.01 8.18C297.962 8.228 297.898 8.252 297.818 8.252H293.666V8.36C293.69 8.88 293.846 9.324 294.134 9.692C294.43 10.052 294.818 10.232 295.298 10.232C295.666 10.232 295.966 10.16 296.198 10.016C296.438 9.864 296.614 9.708 296.726 9.548C296.798 9.452 296.85 9.396 296.882 9.38C296.922 9.356 296.99 9.344 297.086 9.344H297.674C297.746 9.344 297.806 9.364 297.854 9.404C297.902 9.444 297.926 9.5 297.926 9.572C297.926 9.748 297.814 9.96 297.59 10.208C297.374 10.456 297.066 10.672 296.666 10.856C296.274 11.032 295.822 11.12 295.31 11.12ZM296.954 7.424V7.388C296.954 6.836 296.802 6.388 296.498 6.044C296.202 5.692 295.802 5.516 295.298 5.516C294.794 5.516 294.394 5.692 294.098 6.044C293.81 6.388 293.666 6.836 293.666 7.388V7.424H296.954Z" fill="black"/>
<path d="M312.987 11.12C312.115 11.12 311.391 10.904 310.815 10.472C310.239 10.04 309.935 9.408 309.903 8.576C309.903 8.504 309.927 8.444 309.975 8.396C310.023 8.34 310.087 8.312 310.167 8.312H310.815C310.983 8.312 311.087 8.404 311.127 8.588C311.175 9.1 311.371 9.48 311.715 9.728C312.059 9.976 312.491 10.1 313.011 10.1C313.611 10.1 314.071 9.904 314.391 9.512C314.719 9.112 314.883 8.576 314.883 7.904V3.644H310.623C310.543 3.644 310.475 3.62 310.419 3.572C310.371 3.516 310.347 3.448 310.347 3.368V2.876C310.347 2.796 310.371 2.732 310.419 2.684C310.475 2.628 310.543 2.6 310.623 2.6H315.795C315.883 2.6 315.951 2.628 315.999 2.684C316.055 2.732 316.083 2.8 316.083 2.888V7.928C316.083 8.904 315.807 9.68 315.255 10.256C314.711 10.832 313.955 11.12 312.987 11.12ZM319.634 11.12C319.242 11.12 318.878 11.04 318.542 10.88C318.206 10.72 317.938 10.504 317.738 10.232C317.546 9.952 317.45 9.644 317.45 9.308C317.45 8.78 317.666 8.348 318.098 8.012C318.538 7.668 319.13 7.444 319.874 7.34L321.662 7.088V6.74C321.662 5.924 321.194 5.516 320.258 5.516C319.906 5.516 319.618 5.592 319.394 5.744C319.17 5.888 319.002 6.06 318.89 6.26C318.866 6.332 318.834 6.384 318.794 6.416C318.762 6.448 318.714 6.464 318.65 6.464H318.134C318.062 6.464 317.998 6.44 317.942 6.392C317.894 6.336 317.87 6.272 317.87 6.2C317.878 6.008 317.966 5.792 318.134 5.552C318.31 5.304 318.578 5.092 318.938 4.916C319.298 4.732 319.742 4.64 320.27 4.64C321.166 4.64 321.81 4.852 322.202 5.276C322.594 5.692 322.79 6.212 322.79 6.836V10.724C322.79 10.804 322.762 10.872 322.706 10.928C322.658 10.976 322.594 11 322.514 11H321.962C321.882 11 321.814 10.976 321.758 10.928C321.71 10.872 321.686 10.804 321.686 10.724V10.208C321.51 10.464 321.254 10.68 320.918 10.856C320.582 11.032 320.154 11.12 319.634 11.12ZM319.886 10.22C320.406 10.22 320.83 10.052 321.158 9.716C321.494 9.372 321.662 8.88 321.662 8.24V7.904L320.27 8.108C319.702 8.188 319.274 8.324 318.986 8.516C318.698 8.7 318.554 8.936 318.554 9.224C318.554 9.544 318.686 9.792 318.95 9.968C319.214 10.136 319.526 10.22 319.886 10.22ZM324.791 11C324.711 11 324.643 10.976 324.587 10.928C324.539 10.872 324.515 10.804 324.515 10.724V5.036C324.515 4.956 324.539 4.892 324.587 4.844C324.643 4.788 324.711 4.76 324.791 4.76H325.355C325.435 4.76 325.499 4.788 325.547 4.844C325.603 4.892 325.631 4.956 325.631 5.036V5.564C325.863 5.268 326.135 5.04 326.447 4.88C326.767 4.72 327.163 4.64 327.635 4.64C328.403 4.64 328.999 4.888 329.423 5.384C329.855 5.872 330.071 6.524 330.071 7.34V10.724C330.071 10.804 330.043 10.872 329.987 10.928C329.939 10.976 329.875 11 329.795 11H329.195C329.115 11 329.047 10.976 328.991 10.928C328.943 10.872 328.919 10.804 328.919 10.724V7.4C328.919 6.832 328.779 6.392 328.499 6.08C328.227 5.768 327.831 5.612 327.311 5.612C326.807 5.612 326.407 5.772 326.111 6.092C325.815 6.404 325.667 6.84 325.667 7.4V10.724C325.667 10.804 325.639 10.872 325.583 10.928C325.535 10.976 325.471 11 325.391 11H324.791ZM333.789 11C333.581 11 333.433 10.9 333.345 10.7L331.125 5.132L331.101 5.012C331.101 4.94 331.125 4.88 331.173 4.832C331.221 4.784 331.281 4.76 331.353 4.76H331.929C332.065 4.76 332.165 4.828 332.229 4.964L334.053 9.692L335.877 4.964C335.949 4.828 336.045 4.76 336.165 4.76H336.753C336.817 4.76 336.873 4.784 336.921 4.832C336.977 4.88 337.005 4.94 337.005 5.012L336.981 5.132L334.749 10.7C334.661 10.9 334.513 11 334.305 11H333.789ZM338.441 3.596C338.361 3.596 338.293 3.572 338.237 3.524C338.189 3.468 338.165 3.4 338.165 3.32V2.672C338.165 2.592 338.189 2.524 338.237 2.468C338.293 2.412 338.361 2.384 338.441 2.384H339.197C339.277 2.384 339.345 2.412 339.401 2.468C339.457 2.524 339.485 2.592 339.485 2.672V3.32C339.485 3.4 339.457 3.468 339.401 3.524C339.345 3.572 339.277 3.596 339.197 3.596H338.441ZM338.537 11C338.457 11 338.389 10.976 338.333 10.928C338.285 10.872 338.261 10.804 338.261 10.724V5.036C338.261 4.956 338.285 4.892 338.333 4.844C338.389 4.788 338.457 4.76 338.537 4.76H339.113C339.193 4.76 339.257 4.788 339.305 4.844C339.361 4.892 339.389 4.956 339.389 5.036V10.724C339.389 10.804 339.361 10.872 339.305 10.928C339.257 10.976 339.193 11 339.113 11H338.537ZM343.663 11.12C342.839 11.12 342.179 10.868 341.683 10.364C341.195 9.852 340.927 9.156 340.879 8.276L340.867 7.868L340.879 7.472C340.935 6.608 341.207 5.92 341.695 5.408C342.191 4.896 342.843 4.64 343.651 4.64C344.539 4.64 345.227 4.924 345.715 5.492C346.203 6.052 346.447 6.812 346.447 7.772V7.976C346.447 8.056 346.419 8.124 346.363 8.18C346.315 8.228 346.251 8.252 346.171 8.252H342.019V8.36C342.043 8.88 342.199 9.324 342.487 9.692C342.783 10.052 343.171 10.232 343.651 10.232C344.019 10.232 344.319 10.16 344.551 10.016C344.791 9.864 344.967 9.708 345.079 9.548C345.151 9.452 345.203 9.396 345.235 9.38C345.275 9.356 345.343 9.344 345.439 9.344H346.027C346.099 9.344 346.159 9.364 346.207 9.404C346.255 9.444 346.279 9.5 346.279 9.572C346.279 9.748 346.167 9.96 345.943 10.208C345.727 10.456 345.419 10.672 345.019 10.856C344.627 11.032 344.175 11.12 343.663 11.12ZM345.307 7.424V7.388C345.307 6.836 345.155 6.388 344.851 6.044C344.555 5.692 344.155 5.516 343.651 5.516C343.147 5.516 342.747 5.692 342.451 6.044C342.163 6.388 342.019 6.836 342.019 7.388V7.424H345.307ZM348.158 11C348.078 11 348.01 10.976 347.954 10.928C347.906 10.872 347.882 10.804 347.882 10.724V5.048C347.882 4.968 347.906 4.9 347.954 4.844C348.01 4.788 348.078 4.76 348.158 4.76H348.71C348.79 4.76 348.858 4.788 348.914 4.844C348.97 4.9 348.998 4.968 348.998 5.048V5.576C349.326 5.032 349.886 4.76 350.678 4.76H351.146C351.226 4.76 351.29 4.788 351.338 4.844C351.394 4.892 351.422 4.956 351.422 5.036V5.528C351.422 5.608 351.394 5.672 351.338 5.72C351.29 5.768 351.226 5.792 351.146 5.792H350.426C349.994 5.792 349.654 5.92 349.406 6.176C349.158 6.424 349.034 6.764 349.034 7.196V10.724C349.034 10.804 349.006 10.872 348.95 10.928C348.894 10.976 348.826 11 348.746 11H348.158Z" fill="black"/>
<line x1="329" y1="104" x2="329" y2="24" stroke="black" stroke-width="2"/>
<path d="M57.2614 11.12C56.2134 11.12 55.4014 10.848 54.8254 10.304C54.2574 9.752 53.9574 8.924 53.9254 7.82C53.9174 7.58 53.9134 7.24 53.9134 6.8C53.9134 6.36 53.9174 6.024 53.9254 5.792C53.9574 4.712 54.2694 3.892 54.8614 3.332C55.4534 2.764 56.2534 2.48 57.2614 2.48C58.2614 2.48 59.0574 2.764 59.6494 3.332C60.2414 3.892 60.5534 4.712 60.5854 5.792C60.6014 6.256 60.6094 6.592 60.6094 6.8C60.6094 7 60.6014 7.34 60.5854 7.82C60.5534 8.924 60.2494 9.752 59.6734 10.304C59.1054 10.848 58.3014 11.12 57.2614 11.12ZM57.2614 10.1C57.8934 10.1 58.3974 9.908 58.7734 9.524C59.1494 9.14 59.3534 8.552 59.3854 7.76C59.4014 7.28 59.4094 6.96 59.4094 6.8C59.4094 6.624 59.4014 6.304 59.3854 5.84C59.3534 5.048 59.1454 4.46 58.7614 4.076C58.3854 3.692 57.8854 3.5 57.2614 3.5C56.6294 3.5 56.1214 3.692 55.7374 4.076C55.3614 4.46 55.1574 5.048 55.1254 5.84C55.1174 6.072 55.1134 6.392 55.1134 6.8C55.1134 7.2 55.1174 7.52 55.1254 7.76C55.1574 8.552 55.3614 9.14 55.7374 9.524C56.1214 9.908 56.6294 10.1 57.2614 10.1ZM64.7225 11.12C63.8665 11.12 63.1945 10.88 62.7065 10.4C62.2265 9.912 61.9705 9.232 61.9385 8.36L61.9265 7.88L61.9385 7.4C61.9705 6.528 62.2265 5.852 62.7065 5.372C63.1945 4.884 63.8665 4.64 64.7225 4.64C65.2985 4.64 65.7865 4.744 66.1865 4.952C66.5865 5.16 66.8825 5.416 67.0745 5.72C67.2745 6.024 67.3825 6.328 67.3985 6.632C67.4065 6.712 67.3825 6.776 67.3265 6.824C67.2705 6.872 67.2025 6.896 67.1225 6.896H66.5465C66.4665 6.896 66.4065 6.88 66.3665 6.848C66.3265 6.816 66.2865 6.752 66.2465 6.656C66.1105 6.272 65.9185 6 65.6705 5.84C65.4225 5.672 65.1105 5.588 64.7345 5.588C64.2385 5.588 63.8425 5.744 63.5465 6.056C63.2585 6.36 63.1025 6.828 63.0785 7.46L63.0665 7.892L63.0785 8.3C63.1025 8.94 63.2585 9.412 63.5465 9.716C63.8345 10.02 64.2305 10.172 64.7345 10.172C65.1105 10.172 65.4225 10.092 65.6705 9.932C65.9185 9.764 66.1105 9.488 66.2465 9.104C66.2865 9.008 66.3265 8.944 66.3665 8.912C66.4065 8.872 66.4665 8.852 66.5465 8.852H67.1225C67.2025 8.852 67.2705 8.88 67.3265 8.936C67.3825 8.984 67.4065 9.048 67.3985 9.128C67.3825 9.424 67.2745 9.728 67.0745 10.04C66.8825 10.344 66.5865 10.6 66.1865 10.808C65.7945 11.016 65.3065 11.12 64.7225 11.12ZM71.2595 11C69.9955 11 69.3635 10.296 69.3635 8.888V5.72H68.4275C68.3475 5.72 68.2795 5.696 68.2235 5.648C68.1755 5.592 68.1515 5.524 68.1515 5.444V5.036C68.1515 4.956 68.1755 4.892 68.2235 4.844C68.2795 4.788 68.3475 4.76 68.4275 4.76H69.3635V2.756C69.3635 2.676 69.3875 2.612 69.4355 2.564C69.4915 2.508 69.5595 2.48 69.6395 2.48H70.2035C70.2835 2.48 70.3475 2.508 70.3955 2.564C70.4515 2.612 70.4795 2.676 70.4795 2.756V4.76H71.9675C72.0475 4.76 72.1115 4.788 72.1595 4.844C72.2155 4.892 72.2435 4.956 72.2435 5.036V5.444C72.2435 5.524 72.2155 5.592 72.1595 5.648C72.1115 5.696 72.0475 5.72 71.9675 5.72H70.4795V8.804C70.4795 9.204 70.5475 9.508 70.6835 9.716C70.8195 9.916 71.0435 10.016 71.3555 10.016H72.0875C72.1675 10.016 72.2315 10.044 72.2795 10.1C72.3355 10.148 72.3635 10.212 72.3635 10.292V10.724C72.3635 10.804 72.3355 10.872 72.2795 10.928C72.2315 10.976 72.1675 11 72.0875 11H71.2595ZM76.067 11.12C75.187 11.12 74.503 10.872 74.015 10.376C73.535 9.88 73.279 9.22 73.247 8.396L73.235 7.88L73.247 7.364C73.279 6.548 73.539 5.892 74.027 5.396C74.515 4.892 75.195 4.64 76.067 4.64C76.939 4.64 77.619 4.892 78.107 5.396C78.595 5.892 78.855 6.548 78.887 7.364C78.895 7.452 78.899 7.624 78.899 7.88C78.899 8.136 78.895 8.308 78.887 8.396C78.855 9.22 78.595 9.88 78.107 10.376C77.627 10.872 76.947 11.12 76.067 11.12ZM76.067 10.196C76.571 10.196 76.967 10.036 77.255 9.716C77.551 9.396 77.711 8.936 77.735 8.336C77.743 8.256 77.747 8.104 77.747 7.88C77.747 7.656 77.743 7.504 77.735 7.424C77.711 6.824 77.551 6.364 77.255 6.044C76.967 5.724 76.571 5.564 76.067 5.564C75.563 5.564 75.163 5.724 74.867 6.044C74.571 6.364 74.415 6.824 74.399 7.424L74.387 7.88L74.399 8.336C74.415 8.936 74.571 9.396 74.867 9.716C75.163 10.036 75.563 10.196 76.067 10.196ZM83.4857 11.12C82.6217 11.12 81.9657 10.82 81.5177 10.22V10.724C81.5177 10.804 81.4897 10.872 81.4337 10.928C81.3857 10.976 81.3217 11 81.2417 11H80.6897C80.6097 11 80.5417 10.976 80.4857 10.928C80.4377 10.872 80.4137 10.804 80.4137 10.724V2.756C80.4137 2.676 80.4377 2.612 80.4857 2.564C80.5417 2.508 80.6097 2.48 80.6897 2.48H81.2777C81.3577 2.48 81.4217 2.508 81.4697 2.564C81.5177 2.612 81.5417 2.676 81.5417 2.756V5.516C82.0137 4.932 82.6617 4.64 83.4857 4.64C84.3177 4.64 84.9457 4.916 85.3697 5.468C85.7937 6.012 86.0217 6.696 86.0537 7.52C86.0617 7.608 86.0657 7.728 86.0657 7.88C86.0657 8.032 86.0617 8.152 86.0537 8.24C86.0217 9.072 85.7937 9.76 85.3697 10.304C84.9457 10.848 84.3177 11.12 83.4857 11.12ZM83.2337 10.148C83.8017 10.148 84.2137 9.972 84.4697 9.62C84.7337 9.268 84.8777 8.804 84.9017 8.228C84.9097 8.148 84.9137 8.032 84.9137 7.88C84.9137 6.368 84.3537 5.612 83.2337 5.612C82.6977 5.612 82.2857 5.788 81.9977 6.14C81.7097 6.492 81.5577 6.904 81.5417 7.376L81.5297 7.844L81.5417 8.3C81.5657 8.804 81.7137 9.24 81.9857 9.608C82.2657 9.968 82.6817 10.148 83.2337 10.148ZM87.8144 11C87.7344 11 87.6664 10.976 87.6104 10.928C87.5624 10.872 87.5384 10.804 87.5384 10.724V5.048C87.5384 4.968 87.5624 4.9 87.6104 4.844C87.6664 4.788 87.7344 4.76 87.8144 4.76H88.3664C88.4464 4.76 88.5144 4.788 88.5704 4.844C88.6264 4.9 88.6544 4.968 88.6544 5.048V5.576C88.9824 5.032 89.5424 4.76 90.3344 4.76H90.8024C90.8824 4.76 90.9464 4.788 90.9944 4.844C91.0504 4.892 91.0784 4.956 91.0784 5.036V5.528C91.0784 5.608 91.0504 5.672 90.9944 5.72C90.9464 5.768 90.8824 5.792 90.8024 5.792H90.0824C89.6504 5.792 89.3104 5.92 89.0624 6.176C88.8144 6.424 88.6904 6.764 88.6904 7.196V10.724C88.6904 10.804 88.6624 10.872 88.6064 10.928C88.5504 10.976 88.4824 11 88.4024 11H87.8144ZM94.4758 11.12C93.6518 11.12 92.9918 10.868 92.4958 10.364C92.0078 9.852 91.7398 9.156 91.6918 8.276L91.6798 7.868L91.6918 7.472C91.7478 6.608 92.0198 5.92 92.5078 5.408C93.0038 4.896 93.6558 4.64 94.4638 4.64C95.3518 4.64 96.0398 4.924 96.5278 5.492C97.0158 6.052 97.2598 6.812 97.2598 7.772V7.976C97.2598 8.056 97.2318 8.124 97.1758 8.18C97.1278 8.228 97.0638 8.252 96.9838 8.252H92.8318V8.36C92.8558 8.88 93.0118 9.324 93.2998 9.692C93.5958 10.052 93.9838 10.232 94.4638 10.232C94.8318 10.232 95.1318 10.16 95.3638 10.016C95.6038 9.864 95.7798 9.708 95.8918 9.548C95.9638 9.452 96.0158 9.396 96.0478 9.38C96.0878 9.356 96.1558 9.344 96.2518 9.344H96.8398C96.9118 9.344 96.9718 9.364 97.0198 9.404C97.0678 9.444 97.0918 9.5 97.0918 9.572C97.0918 9.748 96.9798 9.96 96.7558 10.208C96.5398 10.456 96.2318 10.672 95.8318 10.856C95.4398 11.032 94.9878 11.12 94.4758 11.12ZM96.1198 7.424V7.388C96.1198 6.836 95.9678 6.388 95.6638 6.044C95.3678 5.692 94.9678 5.516 94.4638 5.516C93.9598 5.516 93.5598 5.692 93.2638 6.044C92.9758 6.388 92.8318 6.836 92.8318 7.388V7.424H96.1198Z" fill="black"/>
<path d="M513.408 11C513.328 11 513.26 10.976 513.204 10.928C513.156 10.872 513.132 10.804 513.132 10.724V2.888C513.132 2.8 513.156 2.732 513.204 2.684C513.26 2.628 513.328 2.6 513.408 2.6H514.008C514.136 2.6 514.24 2.664 514.32 2.792L516.852 7.64L519.408 2.792C519.424 2.744 519.456 2.7 519.504 2.66C519.56 2.62 519.628 2.6 519.708 2.6H520.296C520.384 2.6 520.452 2.628 520.5 2.684C520.556 2.732 520.584 2.8 520.584 2.888V10.724C520.584 10.804 520.556 10.872 520.5 10.928C520.444 10.976 520.376 11 520.296 11H519.708C519.628 11 519.56 10.976 519.504 10.928C519.456 10.872 519.432 10.804 519.432 10.724V4.82L517.428 8.732C517.348 8.9 517.22 8.984 517.044 8.984H516.672C516.496 8.984 516.368 8.9 516.288 8.732L514.272 4.82V10.724C514.272 10.804 514.244 10.872 514.188 10.928C514.14 10.976 514.076 11 513.996 11H513.408ZM524.243 11.12C523.851 11.12 523.487 11.04 523.151 10.88C522.815 10.72 522.547 10.504 522.347 10.232C522.155 9.952 522.059 9.644 522.059 9.308C522.059 8.78 522.275 8.348 522.707 8.012C523.147 7.668 523.739 7.444 524.483 7.34L526.271 7.088V6.74C526.271 5.924 525.803 5.516 524.867 5.516C524.515 5.516 524.227 5.592 524.003 5.744C523.779 5.888 523.611 6.06 523.499 6.26C523.475 6.332 523.443 6.384 523.403 6.416C523.371 6.448 523.323 6.464 523.259 6.464H522.743C522.671 6.464 522.607 6.44 522.551 6.392C522.503 6.336 522.479 6.272 522.479 6.2C522.487 6.008 522.575 5.792 522.743 5.552C522.919 5.304 523.187 5.092 523.547 4.916C523.907 4.732 524.351 4.64 524.879 4.64C525.775 4.64 526.419 4.852 526.811 5.276C527.203 5.692 527.399 6.212 527.399 6.836V10.724C527.399 10.804 527.371 10.872 527.315 10.928C527.267 10.976 527.203 11 527.123 11H526.571C526.491 11 526.423 10.976 526.367 10.928C526.319 10.872 526.295 10.804 526.295 10.724V10.208C526.119 10.464 525.863 10.68 525.527 10.856C525.191 11.032 524.763 11.12 524.243 11.12ZM524.495 10.22C525.015 10.22 525.439 10.052 525.767 9.716C526.103 9.372 526.271 8.88 526.271 8.24V7.904L524.879 8.108C524.311 8.188 523.883 8.324 523.595 8.516C523.307 8.7 523.163 8.936 523.163 9.224C523.163 9.544 523.295 9.792 523.559 9.968C523.823 10.136 524.135 10.22 524.495 10.22ZM529.4 11C529.32 11 529.252 10.976 529.196 10.928C529.148 10.872 529.124 10.804 529.124 10.724V5.048C529.124 4.968 529.148 4.9 529.196 4.844C529.252 4.788 529.32 4.76 529.4 4.76H529.952C530.032 4.76 530.1 4.788 530.156 4.844C530.212 4.9 530.24 4.968 530.24 5.048V5.576C530.568 5.032 531.128 4.76 531.92 4.76H532.388C532.468 4.76 532.532 4.788 532.58 4.844C532.636 4.892 532.664 4.956 532.664 5.036V5.528C532.664 5.608 532.636 5.672 532.58 5.72C532.532 5.768 532.468 5.792 532.388 5.792H531.668C531.236 5.792 530.896 5.92 530.648 6.176C530.4 6.424 530.276 6.764 530.276 7.196V10.724C530.276 10.804 530.248 10.872 530.192 10.928C530.136 10.976 530.068 11 529.988 11H529.4ZM535.843 11.12C535.283 11.12 534.811 11.032 534.427 10.856C534.051 10.672 533.767 10.464 533.575 10.232C533.391 10 533.299 9.808 533.299 9.656C533.299 9.576 533.327 9.516 533.383 9.476C533.447 9.428 533.511 9.404 533.575 9.404H534.115C534.195 9.404 534.267 9.444 534.331 9.524C534.523 9.748 534.731 9.924 534.955 10.052C535.179 10.18 535.479 10.244 535.855 10.244C536.271 10.244 536.607 10.164 536.863 10.004C537.127 9.836 537.259 9.608 537.259 9.32C537.259 9.128 537.203 8.972 537.091 8.852C536.987 8.724 536.803 8.616 536.539 8.528C536.283 8.432 535.899 8.328 535.387 8.216C534.691 8.064 534.195 7.844 533.899 7.556C533.611 7.268 533.467 6.896 533.467 6.44C533.467 6.136 533.555 5.848 533.731 5.576C533.915 5.296 534.179 5.072 534.523 4.904C534.875 4.728 535.295 4.64 535.783 4.64C536.295 4.64 536.731 4.724 537.091 4.892C537.451 5.06 537.719 5.26 537.895 5.492C538.079 5.716 538.171 5.904 538.171 6.056C538.171 6.128 538.143 6.188 538.087 6.236C538.039 6.284 537.979 6.308 537.907 6.308H537.403C537.307 6.308 537.227 6.268 537.163 6.188C537.035 6.036 536.923 5.92 536.827 5.84C536.739 5.752 536.607 5.676 536.431 5.612C536.263 5.548 536.047 5.516 535.783 5.516C535.399 5.516 535.103 5.6 534.895 5.768C534.687 5.928 534.583 6.14 534.583 6.404C534.583 6.572 534.627 6.716 534.715 6.836C534.803 6.948 534.971 7.052 535.219 7.148C535.475 7.244 535.843 7.344 536.323 7.448C537.083 7.608 537.619 7.84 537.931 8.144C538.251 8.44 538.411 8.82 538.411 9.284C538.411 9.628 538.311 9.94 538.111 10.22C537.911 10.5 537.615 10.72 537.223 10.88C536.839 11.04 536.379 11.12 535.843 11.12Z" fill="black"/>
<path d="M84.2929 83.2929C83.9024 83.6834 83.9024 84.3166 84.2929 84.7071L90.6569 91.0711C91.0474 91.4616 91.6805 91.4616 92.0711 91.0711C92.4616 90.6805 92.4616 90.0474 92.0711 89.6569L86.4142 84L92.0711 78.3431C92.4616 77.9526 92.4616 77.3195 92.0711 76.9289C91.6805 76.5384 91.0474 76.5384 90.6569 76.9289L84.2929 83.2929ZM260.707 84.7071C261.098 84.3166 261.098 83.6834 260.707 83.2929L254.343 76.9289C253.953 76.5384 253.319 76.5384 252.929 76.9289C252.538 77.3194 252.538 77.9526 252.929 78.3431L258.586 84L252.929 89.6568C252.538 90.0474 252.538 90.6805 252.929 91.0711C253.319 91.4616 253.953 91.4616 254.343 91.0711L260.707 84.7071ZM85 85L260 85L260 83L85 83L85 85Z" fill="black"/>
<path d="M128.609 105C128.529 105 128.461 104.976 128.405 104.928C128.357 104.872 128.333 104.804 128.333 104.724V98.004L126.341 99.54C126.285 99.588 126.225 99.612 126.161 99.612C126.089 99.612 126.021 99.572 125.957 99.492L125.645 99.096C125.605 99.04 125.585 98.984 125.585 98.928C125.585 98.832 125.625 98.756 125.705 98.7L128.321 96.684C128.409 96.628 128.513 96.6 128.633 96.6H129.245C129.325 96.6 129.389 96.628 129.437 96.684C129.493 96.732 129.521 96.796 129.521 96.876V104.724C129.521 104.804 129.493 104.872 129.437 104.928C129.389 104.976 129.325 105 129.245 105H128.609ZM133.814 105.12C132.99 105.12 132.33 104.868 131.834 104.364C131.346 103.852 131.078 103.156 131.03 102.276L131.018 101.868L131.03 101.472C131.086 100.608 131.358 99.92 131.846 99.408C132.342 98.896 132.994 98.64 133.802 98.64C134.69 98.64 135.378 98.924 135.866 99.492C136.354 100.052 136.598 100.812 136.598 101.772V101.976C136.598 102.056 136.57 102.124 136.514 102.18C136.466 102.228 136.402 102.252 136.322 102.252H132.17V102.36C132.194 102.88 132.35 103.324 132.638 103.692C132.934 104.052 133.322 104.232 133.802 104.232C134.17 104.232 134.47 104.16 134.702 104.016C134.942 103.864 135.118 103.708 135.23 103.548C135.302 103.452 135.354 103.396 135.386 103.38C135.426 103.356 135.494 103.344 135.59 103.344H136.178C136.25 103.344 136.31 103.364 136.358 103.404C136.406 103.444 136.43 103.5 136.43 103.572C136.43 103.748 136.318 103.96 136.094 104.208C135.878 104.456 135.57 104.672 135.17 104.856C134.778 105.032 134.326 105.12 133.814 105.12ZM135.458 101.424V101.388C135.458 100.836 135.306 100.388 135.002 100.044C134.706 99.692 134.306 99.516 133.802 99.516C133.298 99.516 132.898 99.692 132.602 100.044C132.314 100.388 132.17 100.836 132.17 101.388V101.424H135.458ZM138.309 105C138.229 105 138.161 104.976 138.105 104.928C138.057 104.872 138.033 104.804 138.033 104.724V99.048C138.033 98.968 138.057 98.9 138.105 98.844C138.161 98.788 138.229 98.76 138.309 98.76H138.861C138.941 98.76 139.009 98.788 139.065 98.844C139.121 98.9 139.149 98.968 139.149 99.048V99.576C139.477 99.032 140.037 98.76 140.829 98.76H141.297C141.377 98.76 141.441 98.788 141.489 98.844C141.545 98.892 141.573 98.956 141.573 99.036V99.528C141.573 99.608 141.545 99.672 141.489 99.72C141.441 99.768 141.377 99.792 141.297 99.792H140.577C140.145 99.792 139.805 99.92 139.557 100.176C139.309 100.424 139.185 100.764 139.185 101.196V104.724C139.185 104.804 139.157 104.872 139.101 104.928C139.045 104.976 138.977 105 138.897 105H138.309ZM148.431 105.12C147.359 105.12 146.543 104.832 145.983 104.256C145.431 103.68 145.135 102.884 145.095 101.868C145.087 101.652 145.083 101.3 145.083 100.812C145.083 100.316 145.087 99.956 145.095 99.732C145.135 98.724 145.435 97.932 145.995 97.356C146.555 96.772 147.367 96.48 148.431 96.48C149.143 96.48 149.747 96.608 150.243 96.864C150.739 97.112 151.115 97.44 151.371 97.848C151.627 98.256 151.767 98.692 151.791 99.156V99.18C151.791 99.244 151.763 99.3 151.707 99.348C151.659 99.388 151.603 99.408 151.539 99.408H150.879C150.719 99.408 150.619 99.316 150.579 99.132C150.443 98.532 150.199 98.112 149.847 97.872C149.495 97.624 149.023 97.5 148.431 97.5C147.055 97.5 146.343 98.264 146.295 99.792C146.287 100.008 146.283 100.34 146.283 100.788C146.283 101.236 146.287 101.576 146.295 101.808C146.343 103.336 147.055 104.1 148.431 104.1C149.023 104.1 149.495 103.98 149.847 103.74C150.207 103.492 150.451 103.068 150.579 102.468C150.603 102.364 150.639 102.292 150.687 102.252C150.735 102.212 150.799 102.192 150.879 102.192H151.539C151.611 102.192 151.671 102.216 151.719 102.264C151.775 102.304 151.799 102.36 151.791 102.432C151.767 102.904 151.627 103.344 151.371 103.752C151.115 104.16 150.739 104.492 150.243 104.748C149.747 104.996 149.143 105.12 148.431 105.12ZM153.531 105C153.451 105 153.383 104.976 153.327 104.928C153.279 104.872 153.255 104.804 153.255 104.724V96.756C153.255 96.676 153.279 96.612 153.327 96.564C153.383 96.508 153.451 96.48 153.531 96.48H154.131C154.211 96.48 154.275 96.508 154.323 96.564C154.379 96.612 154.407 96.676 154.407 96.756V99.552C154.639 99.256 154.911 99.032 155.223 98.88C155.535 98.72 155.923 98.64 156.387 98.64C157.155 98.64 157.751 98.888 158.175 99.384C158.607 99.872 158.823 100.524 158.823 101.34V104.724C158.823 104.804 158.795 104.872 158.739 104.928C158.691 104.976 158.627 105 158.547 105H157.947C157.867 105 157.799 104.976 157.743 104.928C157.695 104.872 157.671 104.804 157.671 104.724V101.4C157.671 100.832 157.531 100.392 157.251 100.08C156.979 99.768 156.583 99.612 156.063 99.612C155.559 99.612 155.155 99.772 154.851 100.092C154.555 100.404 154.407 100.84 154.407 101.4V104.724C154.407 104.804 154.379 104.872 154.323 104.928C154.275 104.976 154.211 105 154.131 105H153.531ZM162.296 105.12C161.904 105.12 161.54 105.04 161.204 104.88C160.868 104.72 160.6 104.504 160.4 104.232C160.208 103.952 160.112 103.644 160.112 103.308C160.112 102.78 160.328 102.348 160.76 102.012C161.2 101.668 161.792 101.444 162.536 101.34L164.324 101.088V100.74C164.324 99.924 163.856 99.516 162.92 99.516C162.568 99.516 162.28 99.592 162.056 99.744C161.832 99.888 161.664 100.06 161.552 100.26C161.528 100.332 161.496 100.384 161.456 100.416C161.424 100.448 161.376 100.464 161.312 100.464H160.796C160.724 100.464 160.66 100.44 160.604 100.392C160.556 100.336 160.532 100.272 160.532 100.2C160.54 100.008 160.628 99.792 160.796 99.552C160.972 99.304 161.24 99.092 161.6 98.916C161.96 98.732 162.404 98.64 162.932 98.64C163.828 98.64 164.472 98.852 164.864 99.276C165.256 99.692 165.452 100.212 165.452 100.836V104.724C165.452 104.804 165.424 104.872 165.368 104.928C165.32 104.976 165.256 105 165.176 105H164.624C164.544 105 164.476 104.976 164.42 104.928C164.372 104.872 164.348 104.804 164.348 104.724V104.208C164.172 104.464 163.916 104.68 163.58 104.856C163.244 105.032 162.816 105.12 162.296 105.12ZM162.548 104.22C163.068 104.22 163.492 104.052 163.82 103.716C164.156 103.372 164.324 102.88 164.324 102.24V101.904L162.932 102.108C162.364 102.188 161.936 102.324 161.648 102.516C161.36 102.7 161.216 102.936 161.216 103.224C161.216 103.544 161.348 103.792 161.612 103.968C161.876 104.136 162.188 104.22 162.548 104.22ZM167.453 105C167.373 105 167.305 104.976 167.249 104.928C167.201 104.872 167.177 104.804 167.177 104.724V99.036C167.177 98.956 167.201 98.892 167.249 98.844C167.305 98.788 167.373 98.76 167.453 98.76H167.993C168.073 98.76 168.137 98.788 168.185 98.844C168.241 98.892 168.269 98.956 168.269 99.036V99.456C168.685 98.912 169.265 98.64 170.009 98.64C170.897 98.64 171.525 99.008 171.893 99.744C172.085 99.408 172.357 99.14 172.709 98.94C173.061 98.74 173.457 98.64 173.897 98.64C174.553 98.64 175.089 98.864 175.505 99.312C175.921 99.76 176.129 100.408 176.129 101.256V104.724C176.129 104.804 176.101 104.872 176.045 104.928C175.997 104.976 175.933 105 175.853 105H175.289C175.209 105 175.141 104.976 175.085 104.928C175.037 104.872 175.013 104.804 175.013 104.724V101.364C175.013 100.74 174.881 100.292 174.617 100.02C174.361 99.748 174.021 99.612 173.597 99.612C173.221 99.612 172.897 99.752 172.625 100.032C172.353 100.304 172.217 100.748 172.217 101.364V104.724C172.217 104.804 172.189 104.872 172.133 104.928C172.085 104.976 172.021 105 171.941 105H171.377C171.297 105 171.229 104.976 171.173 104.928C171.125 104.872 171.101 104.804 171.101 104.724V101.364C171.101 100.74 170.965 100.292 170.693 100.02C170.429 99.748 170.093 99.612 169.685 99.612C169.309 99.612 168.985 99.752 168.713 100.032C168.441 100.304 168.305 100.744 168.305 101.352V104.724C168.305 104.804 168.277 104.872 168.221 104.928C168.173 104.976 168.109 105 168.029 105H167.453ZM178.129 107.28C178.049 107.28 177.981 107.252 177.925 107.196C177.877 107.148 177.853 107.084 177.853 107.004V99.036C177.853 98.956 177.877 98.892 177.925 98.844C177.981 98.788 178.049 98.76 178.129 98.76H178.681C178.761 98.76 178.825 98.788 178.873 98.844C178.929 98.892 178.957 98.956 178.957 99.036V99.564C179.405 98.948 180.061 98.64 180.925 98.64C181.765 98.64 182.393 98.904 182.809 99.432C183.233 99.96 183.461 100.64 183.493 101.472C183.501 101.56 183.505 101.696 183.505 101.88C183.505 102.064 183.501 102.2 183.493 102.288C183.461 103.112 183.233 103.792 182.809 104.328C182.385 104.856 181.757 105.12 180.925 105.12C180.093 105.12 179.445 104.82 178.981 104.22V107.004C178.981 107.084 178.957 107.148 178.909 107.196C178.861 107.252 178.797 107.28 178.717 107.28H178.129ZM180.673 104.148C181.241 104.148 181.653 103.972 181.909 103.62C182.173 103.268 182.317 102.804 182.341 102.228C182.349 102.148 182.353 102.032 182.353 101.88C182.353 100.368 181.793 99.612 180.673 99.612C180.121 99.612 179.705 99.796 179.425 100.164C179.153 100.524 179.005 100.956 178.981 101.46L178.969 101.916L178.981 102.384C178.997 102.856 179.149 103.268 179.437 103.62C179.725 103.972 180.137 104.148 180.673 104.148ZM185.17 97.596C185.09 97.596 185.022 97.572 184.966 97.524C184.918 97.468 184.894 97.4 184.894 97.32V96.672C184.894 96.592 184.918 96.524 184.966 96.468C185.022 96.412 185.09 96.384 185.17 96.384H185.926C186.006 96.384 186.074 96.412 186.13 96.468C186.186 96.524 186.214 96.592 186.214 96.672V97.32C186.214 97.4 186.186 97.468 186.13 97.524C186.074 97.572 186.006 97.596 185.926 97.596H185.17ZM185.266 105C185.186 105 185.118 104.976 185.062 104.928C185.014 104.872 184.99 104.804 184.99 104.724V99.036C184.99 98.956 185.014 98.892 185.062 98.844C185.118 98.788 185.186 98.76 185.266 98.76H185.842C185.922 98.76 185.986 98.788 186.034 98.844C186.09 98.892 186.118 98.956 186.118 99.036V104.724C186.118 104.804 186.09 104.872 186.034 104.928C185.986 104.976 185.922 105 185.842 105H185.266ZM190.452 105.12C189.572 105.12 188.888 104.872 188.4 104.376C187.92 103.88 187.664 103.22 187.632 102.396L187.62 101.88L187.632 101.364C187.664 100.548 187.924 99.892 188.412 99.396C188.9 98.892 189.58 98.64 190.452 98.64C191.324 98.64 192.004 98.892 192.492 99.396C192.98 99.892 193.24 100.548 193.272 101.364C193.28 101.452 193.284 101.624 193.284 101.88C193.284 102.136 193.28 102.308 193.272 102.396C193.24 103.22 192.98 103.88 192.492 104.376C192.012 104.872 191.332 105.12 190.452 105.12ZM190.452 104.196C190.956 104.196 191.352 104.036 191.64 103.716C191.936 103.396 192.096 102.936 192.12 102.336C192.128 102.256 192.132 102.104 192.132 101.88C192.132 101.656 192.128 101.504 192.12 101.424C192.096 100.824 191.936 100.364 191.64 100.044C191.352 99.724 190.956 99.564 190.452 99.564C189.948 99.564 189.548 99.724 189.252 100.044C188.956 100.364 188.8 100.824 188.784 101.424L188.772 101.88L188.784 102.336C188.8 102.936 188.956 103.396 189.252 103.716C189.548 104.036 189.948 104.196 190.452 104.196ZM195.062 105C194.982 105 194.914 104.976 194.858 104.928C194.81 104.872 194.786 104.804 194.786 104.724V99.036C194.786 98.956 194.81 98.892 194.858 98.844C194.914 98.788 194.982 98.76 195.062 98.76H195.626C195.706 98.76 195.77 98.788 195.818 98.844C195.874 98.892 195.902 98.956 195.902 99.036V99.564C196.134 99.268 196.406 99.04 196.718 98.88C197.038 98.72 197.434 98.64 197.906 98.64C198.674 98.64 199.27 98.888 199.694 99.384C200.126 99.872 200.342 100.524 200.342 101.34V104.724C200.342 104.804 200.314 104.872 200.258 104.928C200.21 104.976 200.146 105 200.066 105H199.466C199.386 105 199.318 104.976 199.262 104.928C199.214 104.872 199.19 104.804 199.19 104.724V101.4C199.19 100.832 199.05 100.392 198.77 100.08C198.498 99.768 198.102 99.612 197.582 99.612C197.078 99.612 196.678 99.772 196.382 100.092C196.086 100.404 195.938 100.84 195.938 101.4V104.724C195.938 104.804 195.91 104.872 195.854 104.928C195.806 104.976 195.742 105 195.662 105H195.062ZM202.34 105C202.26 105 202.192 104.976 202.136 104.928C202.088 104.872 202.064 104.804 202.064 104.724V99.036C202.064 98.956 202.088 98.892 202.136 98.844C202.192 98.788 202.26 98.76 202.34 98.76H202.904C202.984 98.76 203.048 98.788 203.096 98.844C203.152 98.892 203.18 98.956 203.18 99.036V99.564C203.412 99.268 203.684 99.04 203.996 98.88C204.316 98.72 204.712 98.64 205.184 98.64C205.952 98.64 206.548 98.888 206.972 99.384C207.404 99.872 207.62 100.524 207.62 101.34V104.724C207.62 104.804 207.592 104.872 207.536 104.928C207.488 104.976 207.424 105 207.344 105H206.744C206.664 105 206.596 104.976 206.54 104.928C206.492 104.872 206.468 104.804 206.468 104.724V101.4C206.468 100.832 206.328 100.392 206.048 100.08C205.776 99.768 205.38 99.612 204.86 99.612C204.356 99.612 203.956 99.772 203.66 100.092C203.364 100.404 203.216 100.84 203.216 101.4V104.724C203.216 104.804 203.188 104.872 203.132 104.928C203.084 104.976 203.02 105 202.94 105H202.34ZM211.081 105.12C210.689 105.12 210.325 105.04 209.989 104.88C209.653 104.72 209.385 104.504 209.185 104.232C208.993 103.952 208.897 103.644 208.897 103.308C208.897 102.78 209.113 102.348 209.545 102.012C209.985 101.668 210.577 101.444 211.321 101.34L213.109 101.088V100.74C213.109 99.924 212.641 99.516 211.705 99.516C211.353 99.516 211.065 99.592 210.841 99.744C210.617 99.888 210.449 100.06 210.337 100.26C210.313 100.332 210.281 100.384 210.241 100.416C210.209 100.448 210.161 100.464 210.097 100.464H209.581C209.509 100.464 209.445 100.44 209.389 100.392C209.341 100.336 209.317 100.272 209.317 100.2C209.325 100.008 209.413 99.792 209.581 99.552C209.757 99.304 210.025 99.092 210.385 98.916C210.745 98.732 211.189 98.64 211.717 98.64C212.613 98.64 213.257 98.852 213.649 99.276C214.041 99.692 214.237 100.212 214.237 100.836V104.724C214.237 104.804 214.209 104.872 214.153 104.928C214.105 104.976 214.041 105 213.961 105H213.409C213.329 105 213.261 104.976 213.205 104.928C213.157 104.872 213.133 104.804 213.133 104.724V104.208C212.957 104.464 212.701 104.68 212.365 104.856C212.029 105.032 211.601 105.12 211.081 105.12ZM211.333 104.22C211.853 104.22 212.277 104.052 212.605 103.716C212.941 103.372 213.109 102.88 213.109 102.24V101.904L211.717 102.108C211.149 102.188 210.721 102.324 210.433 102.516C210.145 102.7 210.001 102.936 210.001 103.224C210.001 103.544 210.133 103.792 210.397 103.968C210.661 104.136 210.973 104.22 211.333 104.22ZM218.34 105C217.076 105 216.444 104.296 216.444 102.888V99.72H215.508C215.428 99.72 215.36 99.696 215.304 99.648C215.256 99.592 215.232 99.524 215.232 99.444V99.036C215.232 98.956 215.256 98.892 215.304 98.844C215.36 98.788 215.428 98.76 215.508 98.76H216.444V96.756C216.444 96.676 216.468 96.612 216.516 96.564C216.572 96.508 216.64 96.48 216.72 96.48H217.284C217.364 96.48 217.428 96.508 217.476 96.564C217.532 96.612 217.56 96.676 217.56 96.756V98.76H219.048C219.128 98.76 219.192 98.788 219.24 98.844C219.296 98.892 219.324 98.956 219.324 99.036V99.444C219.324 99.524 219.296 99.592 219.24 99.648C219.192 99.696 219.128 99.72 219.048 99.72H217.56V102.804C217.56 103.204 217.628 103.508 217.764 103.716C217.9 103.916 218.124 104.016 218.436 104.016H219.168C219.248 104.016 219.312 104.044 219.36 104.1C219.416 104.148 219.444 104.212 219.444 104.292V104.724C219.444 104.804 219.416 104.872 219.36 104.928C219.312 104.976 219.248 105 219.168 105H218.34ZM140.843 119.12C140.219 119.12 139.671 119.02 139.199 118.82C138.727 118.612 138.359 118.316 138.095 117.932C137.831 117.548 137.699 117.1 137.699 116.588C137.699 116.116 137.815 115.704 138.047 115.352C138.279 114.992 138.595 114.716 138.995 114.524C138.675 114.34 138.427 114.1 138.251 113.804C138.083 113.5 137.999 113.148 137.999 112.748C137.999 112.044 138.255 111.492 138.767 111.092C139.287 110.684 139.979 110.48 140.843 110.48C141.699 110.48 142.383 110.684 142.895 111.092C143.415 111.492 143.675 112.04 143.675 112.736C143.675 113.136 143.587 113.488 143.411 113.792C143.243 114.088 143.003 114.332 142.691 114.524C143.091 114.716 143.407 114.992 143.639 115.352C143.871 115.704 143.987 116.116 143.987 116.588C143.987 117.1 143.855 117.548 143.591 117.932C143.327 118.316 142.955 118.612 142.475 118.82C142.003 119.02 141.459 119.12 140.843 119.12ZM140.843 114.092C141.323 114.084 141.727 113.96 142.055 113.72C142.383 113.48 142.547 113.164 142.547 112.772C142.547 112.372 142.383 112.052 142.055 111.812C141.735 111.564 141.331 111.44 140.843 111.44C140.347 111.44 139.935 111.56 139.607 111.8C139.287 112.04 139.127 112.364 139.127 112.772C139.127 113.172 139.287 113.492 139.607 113.732C139.935 113.972 140.347 114.092 140.843 114.092ZM140.843 118.16C141.403 118.16 141.871 118.016 142.247 117.728C142.623 117.44 142.811 117.06 142.811 116.588C142.811 116.116 142.623 115.74 142.247 115.46C141.871 115.18 141.403 115.04 140.843 115.04C140.275 115.04 139.803 115.18 139.427 115.46C139.051 115.74 138.863 116.116 138.863 116.588C138.863 117.06 139.051 117.44 139.427 117.728C139.803 118.016 140.275 118.16 140.843 118.16ZM151.006 119.12C150.15 119.12 149.478 118.88 148.99 118.4C148.51 117.912 148.254 117.232 148.222 116.36L148.21 115.88L148.222 115.4C148.254 114.528 148.51 113.852 148.99 113.372C149.478 112.884 150.15 112.64 151.006 112.64C151.582 112.64 152.07 112.744 152.47 112.952C152.87 113.16 153.166 113.416 153.358 113.72C153.558 114.024 153.666 114.328 153.682 114.632C153.69 114.712 153.666 114.776 153.61 114.824C153.554 114.872 153.486 114.896 153.406 114.896H152.83C152.75 114.896 152.69 114.88 152.65 114.848C152.61 114.816 152.57 114.752 152.53 114.656C152.394 114.272 152.202 114 151.954 113.84C151.706 113.672 151.394 113.588 151.018 113.588C150.522 113.588 150.126 113.744 149.83 114.056C149.542 114.36 149.386 114.828 149.362 115.46L149.35 115.892L149.362 116.3C149.386 116.94 149.542 117.412 149.83 117.716C150.118 118.02 150.514 118.172 151.018 118.172C151.394 118.172 151.706 118.092 151.954 117.932C152.202 117.764 152.394 117.488 152.53 117.104C152.57 117.008 152.61 116.944 152.65 116.912C152.69 116.872 152.75 116.852 152.83 116.852H153.406C153.486 116.852 153.554 116.88 153.61 116.936C153.666 116.984 153.69 117.048 153.682 117.128C153.666 117.424 153.558 117.728 153.358 118.04C153.166 118.344 152.87 118.6 152.47 118.808C152.078 119.016 151.59 119.12 151.006 119.12ZM155.395 119C155.315 119 155.247 118.976 155.191 118.928C155.143 118.872 155.119 118.804 155.119 118.724V110.756C155.119 110.676 155.143 110.612 155.191 110.564C155.247 110.508 155.315 110.48 155.395 110.48H155.995C156.075 110.48 156.139 110.508 156.187 110.564C156.243 110.612 156.271 110.676 156.271 110.756V113.552C156.503 113.256 156.775 113.032 157.087 112.88C157.399 112.72 157.787 112.64 158.251 112.64C159.019 112.64 159.615 112.888 160.039 113.384C160.471 113.872 160.687 114.524 160.687 115.34V118.724C160.687 118.804 160.659 118.872 160.603 118.928C160.555 118.976 160.491 119 160.411 119H159.811C159.731 119 159.663 118.976 159.607 118.928C159.559 118.872 159.535 118.804 159.535 118.724V115.4C159.535 114.832 159.395 114.392 159.115 114.08C158.843 113.768 158.447 113.612 157.927 113.612C157.423 113.612 157.019 113.772 156.715 114.092C156.419 114.404 156.271 114.84 156.271 115.4V118.724C156.271 118.804 156.243 118.872 156.187 118.928C156.139 118.976 156.075 119 155.995 119H155.395ZM164.159 119.12C163.767 119.12 163.403 119.04 163.067 118.88C162.731 118.72 162.463 118.504 162.263 118.232C162.071 117.952 161.975 117.644 161.975 117.308C161.975 116.78 162.191 116.348 162.623 116.012C163.063 115.668 163.655 115.444 164.399 115.34L166.187 115.088V114.74C166.187 113.924 165.719 113.516 164.783 113.516C164.431 113.516 164.143 113.592 163.919 113.744C163.695 113.888 163.527 114.06 163.415 114.26C163.391 114.332 163.359 114.384 163.319 114.416C163.287 114.448 163.239 114.464 163.175 114.464H162.659C162.587 114.464 162.523 114.44 162.467 114.392C162.419 114.336 162.395 114.272 162.395 114.2C162.403 114.008 162.491 113.792 162.659 113.552C162.835 113.304 163.103 113.092 163.463 112.916C163.823 112.732 164.267 112.64 164.795 112.64C165.691 112.64 166.335 112.852 166.727 113.276C167.119 113.692 167.315 114.212 167.315 114.836V118.724C167.315 118.804 167.287 118.872 167.231 118.928C167.183 118.976 167.119 119 167.039 119H166.487C166.407 119 166.339 118.976 166.283 118.928C166.235 118.872 166.211 118.804 166.211 118.724V118.208C166.035 118.464 165.779 118.68 165.443 118.856C165.107 119.032 164.679 119.12 164.159 119.12ZM164.411 118.22C164.931 118.22 165.355 118.052 165.683 117.716C166.019 117.372 166.187 116.88 166.187 116.24V115.904L164.795 116.108C164.227 116.188 163.799 116.324 163.511 116.516C163.223 116.7 163.079 116.936 163.079 117.224C163.079 117.544 163.211 117.792 163.475 117.968C163.739 118.136 164.051 118.22 164.411 118.22ZM169.328 119C169.248 119 169.18 118.976 169.124 118.928C169.076 118.872 169.052 118.804 169.052 118.724V110.756C169.052 110.676 169.076 110.612 169.124 110.564C169.18 110.508 169.248 110.48 169.328 110.48H169.892C169.972 110.48 170.036 110.508 170.084 110.564C170.14 110.612 170.168 110.676 170.168 110.756V118.724C170.168 118.804 170.14 118.872 170.084 118.928C170.036 118.976 169.972 119 169.892 119H169.328ZM172.246 119C172.166 119 172.098 118.976 172.042 118.928C171.994 118.872 171.97 118.804 171.97 118.724V110.756C171.97 110.676 171.994 110.612 172.042 110.564C172.098 110.508 172.166 110.48 172.246 110.48H172.81C172.89 110.48 172.954 110.508 173.002 110.564C173.058 110.612 173.086 110.676 173.086 110.756V118.724C173.086 118.804 173.058 118.872 173.002 118.928C172.954 118.976 172.89 119 172.81 119H172.246ZM177.372 119.12C176.548 119.12 175.888 118.868 175.392 118.364C174.904 117.852 174.636 117.156 174.588 116.276L174.576 115.868L174.588 115.472C174.644 114.608 174.916 113.92 175.404 113.408C175.9 112.896 176.552 112.64 177.36 112.64C178.248 112.64 178.936 112.924 179.424 113.492C179.912 114.052 180.156 114.812 180.156 115.772V115.976C180.156 116.056 180.128 116.124 180.072 116.18C180.024 116.228 179.96 116.252 179.88 116.252H175.728V116.36C175.752 116.88 175.908 117.324 176.196 117.692C176.492 118.052 176.88 118.232 177.36 118.232C177.728 118.232 178.028 118.16 178.26 118.016C178.5 117.864 178.676 117.708 178.788 117.548C178.86 117.452 178.912 117.396 178.944 117.38C178.984 117.356 179.052 117.344 179.148 117.344H179.736C179.808 117.344 179.868 117.364 179.916 117.404C179.964 117.444 179.988 117.5 179.988 117.572C179.988 117.748 179.876 117.96 179.652 118.208C179.436 118.456 179.128 118.672 178.728 118.856C178.336 119.032 177.884 119.12 177.372 119.12ZM179.016 115.424V115.388C179.016 114.836 178.864 114.388 178.56 114.044C178.264 113.692 177.864 113.516 177.36 113.516C176.856 113.516 176.456 113.692 176.16 114.044C175.872 114.388 175.728 114.836 175.728 115.388V115.424H179.016ZM181.867 119C181.787 119 181.719 118.976 181.663 118.928C181.615 118.872 181.591 118.804 181.591 118.724V113.036C181.591 112.956 181.615 112.892 181.663 112.844C181.719 112.788 181.787 112.76 181.867 112.76H182.431C182.511 112.76 182.575 112.788 182.623 112.844C182.679 112.892 182.707 112.956 182.707 113.036V113.564C182.939 113.268 183.211 113.04 183.523 112.88C183.843 112.72 184.239 112.64 184.711 112.64C185.479 112.64 186.075 112.888 186.499 113.384C186.931 113.872 187.147 114.524 187.147 115.34V118.724C187.147 118.804 187.119 118.872 187.063 118.928C187.015 118.976 186.951 119 186.871 119H186.271C186.191 119 186.123 118.976 186.067 118.928C186.019 118.872 185.995 118.804 185.995 118.724V115.4C185.995 114.832 185.855 114.392 185.575 114.08C185.303 113.768 184.907 113.612 184.387 113.612C183.883 113.612 183.483 113.772 183.187 114.092C182.891 114.404 182.743 114.84 182.743 115.4V118.724C182.743 118.804 182.715 118.872 182.659 118.928C182.611 118.976 182.547 119 182.467 119H181.867ZM191.424 121.64C190.768 121.64 190.24 121.528 189.84 121.304C189.44 121.088 189.156 120.84 188.988 120.56C188.82 120.28 188.728 120.028 188.712 119.804C188.704 119.724 188.728 119.656 188.784 119.6C188.848 119.544 188.916 119.516 188.988 119.516H189.564C189.636 119.516 189.696 119.532 189.744 119.564C189.792 119.604 189.832 119.672 189.864 119.768C189.96 120.024 190.116 120.244 190.332 120.428C190.556 120.62 190.9 120.716 191.364 120.716C191.956 120.716 192.392 120.588 192.672 120.332C192.952 120.084 193.092 119.64 193.092 119V118.184C192.884 118.448 192.62 118.66 192.3 118.82C191.98 118.972 191.6 119.048 191.16 119.048C190.312 119.048 189.676 118.78 189.252 118.244C188.836 117.7 188.616 117.012 188.592 116.18L188.58 115.844L188.592 115.52C188.616 114.696 188.84 114.012 189.264 113.468C189.688 112.916 190.32 112.64 191.16 112.64C192 112.64 192.656 112.948 193.128 113.564V113.048C193.128 112.968 193.152 112.9 193.2 112.844C193.256 112.788 193.324 112.76 193.404 112.76H193.956C194.036 112.76 194.104 112.788 194.16 112.844C194.216 112.9 194.244 112.968 194.244 113.048V118.868C194.244 120.716 193.304 121.64 191.424 121.64ZM191.4 118.088C191.944 118.088 192.356 117.908 192.636 117.548C192.916 117.188 193.068 116.76 193.092 116.264C193.1 116.192 193.104 116.052 193.104 115.844C193.104 115.644 193.1 115.508 193.092 115.436C193.068 114.94 192.916 114.512 192.636 114.152C192.364 113.792 191.952 113.612 191.4 113.612C190.832 113.612 190.42 113.788 190.164 114.14C189.908 114.492 189.768 114.956 189.744 115.532L189.732 115.844L189.744 116.168C189.768 116.736 189.908 117.2 190.164 117.56C190.42 117.912 190.832 118.088 191.4 118.088ZM198.525 119.12C197.701 119.12 197.041 118.868 196.545 118.364C196.057 117.852 195.789 117.156 195.741 116.276L195.729 115.868L195.741 115.472C195.797 114.608 196.069 113.92 196.557 113.408C197.053 112.896 197.705 112.64 198.513 112.64C199.401 112.64 200.089 112.924 200.577 113.492C201.065 114.052 201.309 114.812 201.309 115.772V115.976C201.309 116.056 201.281 116.124 201.225 116.18C201.177 116.228 201.113 116.252 201.033 116.252H196.881V116.36C196.905 116.88 197.061 117.324 197.349 117.692C197.645 118.052 198.033 118.232 198.513 118.232C198.881 118.232 199.181 118.16 199.413 118.016C199.653 117.864 199.829 117.708 199.941 117.548C200.013 117.452 200.065 117.396 200.097 117.38C200.137 117.356 200.205 117.344 200.301 117.344H200.889C200.961 117.344 201.021 117.364 201.069 117.404C201.117 117.444 201.141 117.5 201.141 117.572C201.141 117.748 201.029 117.96 200.805 118.208C200.589 118.456 200.281 118.672 199.881 118.856C199.489 119.032 199.037 119.12 198.525 119.12ZM200.169 115.424V115.388C200.169 114.836 200.017 114.388 199.713 114.044C199.417 113.692 199.017 113.516 198.513 113.516C198.009 113.516 197.609 113.692 197.313 114.044C197.025 114.388 196.881 114.836 196.881 115.388V115.424H200.169ZM204.903 119.12C204.343 119.12 203.871 119.032 203.487 118.856C203.111 118.672 202.827 118.464 202.635 118.232C202.451 118 202.359 117.808 202.359 117.656C202.359 117.576 202.387 117.516 202.443 117.476C202.507 117.428 202.571 117.404 202.635 117.404H203.175C203.255 117.404 203.327 117.444 203.391 117.524C203.583 117.748 203.791 117.924 204.015 118.052C204.239 118.18 204.539 118.244 204.915 118.244C205.331 118.244 205.667 118.164 205.923 118.004C206.187 117.836 206.319 117.608 206.319 117.32C206.319 117.128 206.263 116.972 206.151 116.852C206.047 116.724 205.863 116.616 205.599 116.528C205.343 116.432 204.959 116.328 204.447 116.216C203.751 116.064 203.255 115.844 202.959 115.556C202.671 115.268 202.527 114.896 202.527 114.44C202.527 114.136 202.615 113.848 202.791 113.576C202.975 113.296 203.239 113.072 203.583 112.904C203.935 112.728 204.355 112.64 204.843 112.64C205.355 112.64 205.791 112.724 206.151 112.892C206.511 113.06 206.779 113.26 206.955 113.492C207.139 113.716 207.231 113.904 207.231 114.056C207.231 114.128 207.203 114.188 207.147 114.236C207.099 114.284 207.039 114.308 206.967 114.308H206.463C206.367 114.308 206.287 114.268 206.223 114.188C206.095 114.036 205.983 113.92 205.887 113.84C205.799 113.752 205.667 113.676 205.491 113.612C205.323 113.548 205.107 113.516 204.843 113.516C204.459 113.516 204.163 113.6 203.955 113.768C203.747 113.928 203.643 114.14 203.643 114.404C203.643 114.572 203.687 114.716 203.775 114.836C203.863 114.948 204.031 115.052 204.279 115.148C204.535 115.244 204.903 115.344 205.383 115.448C206.143 115.608 206.679 115.84 206.991 116.144C207.311 116.44 207.471 116.82 207.471 117.284C207.471 117.628 207.371 117.94 207.171 118.22C206.971 118.5 206.675 118.72 206.283 118.88C205.899 119.04 205.439 119.12 204.903 119.12Z" fill="black"/>
<path d="M339.293 83.2929C338.902 83.6834 338.902 84.3166 339.293 84.7071L345.657 91.0711C346.047 91.4616 346.681 91.4616 347.071 91.0711C347.462 90.6805 347.462 90.0474 347.071 89.6569L341.414 84L347.071 78.3431C347.462 77.9526 347.462 77.3195 347.071 76.9289C346.681 76.5384 346.047 76.5384 345.657 76.9289L339.293 83.2929ZM515.707 84.7071C516.098 84.3166 516.098 83.6834 515.707 83.2929L509.343 76.9289C508.953 76.5384 508.319 76.5384 507.929 76.9289C507.538 77.3194 507.538 77.9526 507.929 78.3431L513.586 84L507.929 89.6568C507.538 90.0474 507.538 90.6805 507.929 91.0711C508.319 91.4616 508.953 91.4616 509.343 91.0711L515.707 84.7071ZM340 85L515 85L515 83L340 83L340 85Z" fill="black"/>
<path d="M373.155 105C373.075 105 373.007 104.976 372.951 104.928C372.903 104.872 372.879 104.804 372.879 104.724V104.34C372.879 104.156 372.979 103.98 373.179 103.812L375.723 101.268C376.339 100.756 376.763 100.34 376.995 100.02C377.227 99.692 377.343 99.348 377.343 98.988C377.343 98.524 377.211 98.16 376.947 97.896C376.691 97.632 376.315 97.5 375.819 97.5C375.355 97.5 374.983 97.64 374.703 97.92C374.423 98.192 374.251 98.556 374.187 99.012C374.171 99.108 374.131 99.18 374.067 99.228C374.011 99.268 373.947 99.288 373.875 99.288H373.251C373.179 99.288 373.119 99.268 373.071 99.228C373.023 99.18 372.999 99.124 372.999 99.06C373.015 98.628 373.131 98.216 373.347 97.824C373.563 97.424 373.879 97.1 374.295 96.852C374.719 96.596 375.227 96.468 375.819 96.468C376.723 96.468 377.403 96.704 377.859 97.176C378.323 97.64 378.555 98.232 378.555 98.952C378.555 99.456 378.427 99.912 378.171 100.32C377.923 100.72 377.535 101.152 377.007 101.616L374.703 103.956H378.447C378.535 103.956 378.603 103.984 378.651 104.04C378.707 104.088 378.735 104.152 378.735 104.232V104.724C378.735 104.804 378.707 104.872 378.651 104.928C378.595 104.976 378.527 105 378.447 105H373.155ZM382.718 105.12C381.894 105.12 381.234 104.868 380.738 104.364C380.25 103.852 379.982 103.156 379.934 102.276L379.922 101.868L379.934 101.472C379.99 100.608 380.262 99.92 380.75 99.408C381.246 98.896 381.898 98.64 382.706 98.64C383.594 98.64 384.282 98.924 384.77 99.492C385.258 100.052 385.502 100.812 385.502 101.772V101.976C385.502 102.056 385.474 102.124 385.418 102.18C385.37 102.228 385.306 102.252 385.226 102.252H381.074V102.36C381.098 102.88 381.254 103.324 381.542 103.692C381.838 104.052 382.226 104.232 382.706 104.232C383.074 104.232 383.374 104.16 383.606 104.016C383.846 103.864 384.022 103.708 384.134 103.548C384.206 103.452 384.258 103.396 384.29 103.38C384.33 103.356 384.398 103.344 384.494 103.344H385.082C385.154 103.344 385.214 103.364 385.262 103.404C385.31 103.444 385.334 103.5 385.334 103.572C385.334 103.748 385.222 103.96 384.998 104.208C384.782 104.456 384.474 104.672 384.074 104.856C383.682 105.032 383.23 105.12 382.718 105.12ZM384.362 101.424V101.388C384.362 100.836 384.21 100.388 383.906 100.044C383.61 99.692 383.21 99.516 382.706 99.516C382.202 99.516 381.802 99.692 381.506 100.044C381.218 100.388 381.074 100.836 381.074 101.388V101.424H384.362ZM382.658 97.86C382.57 97.86 382.498 97.852 382.442 97.836C382.386 97.82 382.326 97.784 382.262 97.728L380.87 96.588C380.83 96.548 380.81 96.5 380.81 96.444C380.81 96.372 380.83 96.316 380.87 96.276C380.91 96.228 380.966 96.204 381.038 96.204H381.854C381.966 96.204 382.046 96.22 382.094 96.252C382.15 96.284 382.218 96.344 382.298 96.432L383.198 97.512C383.238 97.552 383.258 97.604 383.258 97.668C383.258 97.796 383.194 97.86 383.066 97.86H382.658ZM387.213 105C387.133 105 387.065 104.976 387.009 104.928C386.961 104.872 386.937 104.804 386.937 104.724V99.036C386.937 98.956 386.961 98.892 387.009 98.844C387.065 98.788 387.133 98.76 387.213 98.76H387.753C387.833 98.76 387.897 98.788 387.945 98.844C388.001 98.892 388.029 98.956 388.029 99.036V99.456C388.445 98.912 389.025 98.64 389.769 98.64C390.657 98.64 391.285 99.008 391.653 99.744C391.845 99.408 392.117 99.14 392.469 98.94C392.821 98.74 393.217 98.64 393.657 98.64C394.313 98.64 394.849 98.864 395.265 99.312C395.681 99.76 395.889 100.408 395.889 101.256V104.724C395.889 104.804 395.861 104.872 395.805 104.928C395.757 104.976 395.693 105 395.613 105H395.049C394.969 105 394.901 104.976 394.845 104.928C394.797 104.872 394.773 104.804 394.773 104.724V101.364C394.773 100.74 394.641 100.292 394.377 100.02C394.121 99.748 393.781 99.612 393.357 99.612C392.981 99.612 392.657 99.752 392.385 100.032C392.113 100.304 391.977 100.748 391.977 101.364V104.724C391.977 104.804 391.949 104.872 391.893 104.928C391.845 104.976 391.781 105 391.701 105H391.137C391.057 105 390.989 104.976 390.933 104.928C390.885 104.872 390.861 104.804 390.861 104.724V101.364C390.861 100.74 390.725 100.292 390.453 100.02C390.189 99.748 389.853 99.612 389.445 99.612C389.069 99.612 388.745 99.752 388.473 100.032C388.201 100.304 388.065 100.744 388.065 101.352V104.724C388.065 104.804 388.037 104.872 387.981 104.928C387.933 104.976 387.869 105 387.789 105H387.213ZM400.097 105.12C399.273 105.12 398.613 104.868 398.117 104.364C397.629 103.852 397.361 103.156 397.313 102.276L397.301 101.868L397.313 101.472C397.369 100.608 397.641 99.92 398.129 99.408C398.625 98.896 399.277 98.64 400.085 98.64C400.973 98.64 401.661 98.924 402.149 99.492C402.637 100.052 402.881 100.812 402.881 101.772V101.976C402.881 102.056 402.853 102.124 402.797 102.18C402.749 102.228 402.685 102.252 402.605 102.252H398.453V102.36C398.477 102.88 398.633 103.324 398.921 103.692C399.217 104.052 399.605 104.232 400.085 104.232C400.453 104.232 400.753 104.16 400.985 104.016C401.225 103.864 401.401 103.708 401.513 103.548C401.585 103.452 401.637 103.396 401.669 103.38C401.709 103.356 401.777 103.344 401.873 103.344H402.461C402.533 103.344 402.593 103.364 402.641 103.404C402.689 103.444 402.713 103.5 402.713 103.572C402.713 103.748 402.601 103.96 402.377 104.208C402.161 104.456 401.853 104.672 401.453 104.856C401.061 105.032 400.609 105.12 400.097 105.12ZM401.741 101.424V101.388C401.741 100.836 401.589 100.388 401.285 100.044C400.989 99.692 400.589 99.516 400.085 99.516C399.581 99.516 399.181 99.692 398.885 100.044C398.597 100.388 398.453 100.836 398.453 101.388V101.424H401.741ZM410.437 105.12C409.365 105.12 408.549 104.832 407.989 104.256C407.437 103.68 407.141 102.884 407.101 101.868C407.093 101.652 407.089 101.3 407.089 100.812C407.089 100.316 407.093 99.956 407.101 99.732C407.141 98.724 407.441 97.932 408.001 97.356C408.561 96.772 409.373 96.48 410.437 96.48C411.149 96.48 411.753 96.608 412.249 96.864C412.745 97.112 413.121 97.44 413.377 97.848C413.633 98.256 413.773 98.692 413.797 99.156V99.18C413.797 99.244 413.769 99.3 413.713 99.348C413.665 99.388 413.609 99.408 413.545 99.408H412.885C412.725 99.408 412.625 99.316 412.585 99.132C412.449 98.532 412.205 98.112 411.853 97.872C411.501 97.624 411.029 97.5 410.437 97.5C409.061 97.5 408.349 98.264 408.301 99.792C408.293 100.008 408.289 100.34 408.289 100.788C408.289 101.236 408.293 101.576 408.301 101.808C408.349 103.336 409.061 104.1 410.437 104.1C411.029 104.1 411.501 103.98 411.853 103.74C412.213 103.492 412.457 103.068 412.585 102.468C412.609 102.364 412.645 102.292 412.693 102.252C412.741 102.212 412.805 102.192 412.885 102.192H413.545C413.617 102.192 413.677 102.216 413.725 102.264C413.781 102.304 413.805 102.36 413.797 102.432C413.773 102.904 413.633 103.344 413.377 103.752C413.121 104.16 412.745 104.492 412.249 104.748C411.753 104.996 411.149 105.12 410.437 105.12ZM415.537 105C415.457 105 415.389 104.976 415.333 104.928C415.285 104.872 415.261 104.804 415.261 104.724V96.756C415.261 96.676 415.285 96.612 415.333 96.564C415.389 96.508 415.457 96.48 415.537 96.48H416.137C416.217 96.48 416.281 96.508 416.329 96.564C416.385 96.612 416.413 96.676 416.413 96.756V99.552C416.645 99.256 416.917 99.032 417.229 98.88C417.541 98.72 417.929 98.64 418.393 98.64C419.161 98.64 419.757 98.888 420.181 99.384C420.613 99.872 420.829 100.524 420.829 101.34V104.724C420.829 104.804 420.801 104.872 420.745 104.928C420.697 104.976 420.633 105 420.553 105H419.953C419.873 105 419.805 104.976 419.749 104.928C419.701 104.872 419.677 104.804 419.677 104.724V101.4C419.677 100.832 419.537 100.392 419.257 100.08C418.985 99.768 418.589 99.612 418.069 99.612C417.565 99.612 417.161 99.772 416.857 100.092C416.561 100.404 416.413 100.84 416.413 101.4V104.724C416.413 104.804 416.385 104.872 416.329 104.928C416.281 104.976 416.217 105 416.137 105H415.537ZM424.302 105.12C423.91 105.12 423.546 105.04 423.21 104.88C422.874 104.72 422.606 104.504 422.406 104.232C422.214 103.952 422.118 103.644 422.118 103.308C422.118 102.78 422.334 102.348 422.766 102.012C423.206 101.668 423.798 101.444 424.542 101.34L426.33 101.088V100.74C426.33 99.924 425.862 99.516 424.926 99.516C424.574 99.516 424.286 99.592 424.062 99.744C423.838 99.888 423.67 100.06 423.558 100.26C423.534 100.332 423.502 100.384 423.462 100.416C423.43 100.448 423.382 100.464 423.318 100.464H422.802C422.73 100.464 422.666 100.44 422.61 100.392C422.562 100.336 422.538 100.272 422.538 100.2C422.546 100.008 422.634 99.792 422.802 99.552C422.978 99.304 423.246 99.092 423.606 98.916C423.966 98.732 424.41 98.64 424.938 98.64C425.834 98.64 426.478 98.852 426.87 99.276C427.262 99.692 427.458 100.212 427.458 100.836V104.724C427.458 104.804 427.43 104.872 427.374 104.928C427.326 104.976 427.262 105 427.182 105H426.63C426.55 105 426.482 104.976 426.426 104.928C426.378 104.872 426.354 104.804 426.354 104.724V104.208C426.178 104.464 425.922 104.68 425.586 104.856C425.25 105.032 424.822 105.12 424.302 105.12ZM424.554 104.22C425.074 104.22 425.498 104.052 425.826 103.716C426.162 103.372 426.33 102.88 426.33 102.24V101.904L424.938 102.108C424.37 102.188 423.942 102.324 423.654 102.516C423.366 102.7 423.222 102.936 423.222 103.224C423.222 103.544 423.354 103.792 423.618 103.968C423.882 104.136 424.194 104.22 424.554 104.22ZM429.459 105C429.379 105 429.311 104.976 429.255 104.928C429.207 104.872 429.183 104.804 429.183 104.724V99.036C429.183 98.956 429.207 98.892 429.255 98.844C429.311 98.788 429.379 98.76 429.459 98.76H429.999C430.079 98.76 430.143 98.788 430.191 98.844C430.247 98.892 430.275 98.956 430.275 99.036V99.456C430.691 98.912 431.271 98.64 432.015 98.64C432.903 98.64 433.531 99.008 433.899 99.744C434.091 99.408 434.363 99.14 434.715 98.94C435.067 98.74 435.463 98.64 435.903 98.64C436.559 98.64 437.095 98.864 437.511 99.312C437.927 99.76 438.135 100.408 438.135 101.256V104.724C438.135 104.804 438.107 104.872 438.051 104.928C438.003 104.976 437.939 105 437.859 105H437.295C437.215 105 437.147 104.976 437.091 104.928C437.043 104.872 437.019 104.804 437.019 104.724V101.364C437.019 100.74 436.887 100.292 436.623 100.02C436.367 99.748 436.027 99.612 435.603 99.612C435.227 99.612 434.903 99.752 434.631 100.032C434.359 100.304 434.223 100.748 434.223 101.364V104.724C434.223 104.804 434.195 104.872 434.139 104.928C434.091 104.976 434.027 105 433.947 105H433.383C433.303 105 433.235 104.976 433.179 104.928C433.131 104.872 433.107 104.804 433.107 104.724V101.364C433.107 100.74 432.971 100.292 432.699 100.02C432.435 99.748 432.099 99.612 431.691 99.612C431.315 99.612 430.991 99.752 430.719 100.032C430.447 100.304 430.311 100.744 430.311 101.352V104.724C430.311 104.804 430.283 104.872 430.227 104.928C430.179 104.976 430.115 105 430.035 105H429.459ZM440.135 107.28C440.055 107.28 439.987 107.252 439.931 107.196C439.883 107.148 439.859 107.084 439.859 107.004V99.036C439.859 98.956 439.883 98.892 439.931 98.844C439.987 98.788 440.055 98.76 440.135 98.76H440.687C440.767 98.76 440.831 98.788 440.879 98.844C440.935 98.892 440.963 98.956 440.963 99.036V99.564C441.411 98.948 442.067 98.64 442.931 98.64C443.771 98.64 444.399 98.904 444.815 99.432C445.239 99.96 445.467 100.64 445.499 101.472C445.507 101.56 445.511 101.696 445.511 101.88C445.511 102.064 445.507 102.2 445.499 102.288C445.467 103.112 445.239 103.792 444.815 104.328C444.391 104.856 443.763 105.12 442.931 105.12C442.099 105.12 441.451 104.82 440.987 104.22V107.004C440.987 107.084 440.963 107.148 440.915 107.196C440.867 107.252 440.803 107.28 440.723 107.28H440.135ZM442.679 104.148C443.247 104.148 443.659 103.972 443.915 103.62C444.179 103.268 444.323 102.804 444.347 102.228C444.355 102.148 444.359 102.032 444.359 101.88C444.359 100.368 443.799 99.612 442.679 99.612C442.127 99.612 441.711 99.796 441.431 100.164C441.159 100.524 441.011 100.956 440.987 101.46L440.975 101.916L440.987 102.384C441.003 102.856 441.155 103.268 441.443 103.62C441.731 103.972 442.143 104.148 442.679 104.148ZM447.175 97.596C447.095 97.596 447.027 97.572 446.971 97.524C446.923 97.468 446.899 97.4 446.899 97.32V96.672C446.899 96.592 446.923 96.524 446.971 96.468C447.027 96.412 447.095 96.384 447.175 96.384H447.931C448.011 96.384 448.079 96.412 448.135 96.468C448.191 96.524 448.219 96.592 448.219 96.672V97.32C448.219 97.4 448.191 97.468 448.135 97.524C448.079 97.572 448.011 97.596 447.931 97.596H447.175ZM447.271 105C447.191 105 447.123 104.976 447.067 104.928C447.019 104.872 446.995 104.804 446.995 104.724V99.036C446.995 98.956 447.019 98.892 447.067 98.844C447.123 98.788 447.191 98.76 447.271 98.76H447.847C447.927 98.76 447.991 98.788 448.039 98.844C448.095 98.892 448.123 98.956 448.123 99.036V104.724C448.123 104.804 448.095 104.872 448.039 104.928C447.991 104.976 447.927 105 447.847 105H447.271ZM452.458 105.12C451.578 105.12 450.894 104.872 450.406 104.376C449.926 103.88 449.67 103.22 449.638 102.396L449.626 101.88L449.638 101.364C449.67 100.548 449.93 99.892 450.418 99.396C450.906 98.892 451.586 98.64 452.458 98.64C453.33 98.64 454.01 98.892 454.498 99.396C454.986 99.892 455.246 100.548 455.278 101.364C455.286 101.452 455.29 101.624 455.29 101.88C455.29 102.136 455.286 102.308 455.278 102.396C455.246 103.22 454.986 103.88 454.498 104.376C454.018 104.872 453.338 105.12 452.458 105.12ZM452.458 104.196C452.962 104.196 453.358 104.036 453.646 103.716C453.942 103.396 454.102 102.936 454.126 102.336C454.134 102.256 454.138 102.104 454.138 101.88C454.138 101.656 454.134 101.504 454.126 101.424C454.102 100.824 453.942 100.364 453.646 100.044C453.358 99.724 452.962 99.564 452.458 99.564C451.954 99.564 451.554 99.724 451.258 100.044C450.962 100.364 450.806 100.824 450.79 101.424L450.778 101.88L450.79 102.336C450.806 102.936 450.962 103.396 451.258 103.716C451.554 104.036 451.954 104.196 452.458 104.196ZM457.068 105C456.988 105 456.92 104.976 456.864 104.928C456.816 104.872 456.792 104.804 456.792 104.724V99.036C456.792 98.956 456.816 98.892 456.864 98.844C456.92 98.788 456.988 98.76 457.068 98.76H457.632C457.712 98.76 457.776 98.788 457.824 98.844C457.88 98.892 457.908 98.956 457.908 99.036V99.564C458.14 99.268 458.412 99.04 458.724 98.88C459.044 98.72 459.44 98.64 459.912 98.64C460.68 98.64 461.276 98.888 461.7 99.384C462.132 99.872 462.348 100.524 462.348 101.34V104.724C462.348 104.804 462.32 104.872 462.264 104.928C462.216 104.976 462.152 105 462.072 105H461.472C461.392 105 461.324 104.976 461.268 104.928C461.22 104.872 461.196 104.804 461.196 104.724V101.4C461.196 100.832 461.056 100.392 460.776 100.08C460.504 99.768 460.108 99.612 459.588 99.612C459.084 99.612 458.684 99.772 458.388 100.092C458.092 100.404 457.944 100.84 457.944 101.4V104.724C457.944 104.804 457.916 104.872 457.86 104.928C457.812 104.976 457.748 105 457.668 105H457.068ZM464.346 105C464.266 105 464.198 104.976 464.142 104.928C464.094 104.872 464.07 104.804 464.07 104.724V99.036C464.07 98.956 464.094 98.892 464.142 98.844C464.198 98.788 464.266 98.76 464.346 98.76H464.91C464.99 98.76 465.054 98.788 465.102 98.844C465.158 98.892 465.186 98.956 465.186 99.036V99.564C465.418 99.268 465.69 99.04 466.002 98.88C466.322 98.72 466.718 98.64 467.19 98.64C467.958 98.64 468.554 98.888 468.978 99.384C469.41 99.872 469.626 100.524 469.626 101.34V104.724C469.626 104.804 469.598 104.872 469.542 104.928C469.494 104.976 469.43 105 469.35 105H468.75C468.67 105 468.602 104.976 468.546 104.928C468.498 104.872 468.474 104.804 468.474 104.724V101.4C468.474 100.832 468.334 100.392 468.054 100.08C467.782 99.768 467.386 99.612 466.866 99.612C466.362 99.612 465.962 99.772 465.666 100.092C465.37 100.404 465.222 100.84 465.222 101.4V104.724C465.222 104.804 465.194 104.872 465.138 104.928C465.09 104.976 465.026 105 464.946 105H464.346ZM473.087 105.12C472.695 105.12 472.331 105.04 471.995 104.88C471.659 104.72 471.391 104.504 471.191 104.232C470.999 103.952 470.903 103.644 470.903 103.308C470.903 102.78 471.119 102.348 471.551 102.012C471.991 101.668 472.583 101.444 473.327 101.34L475.115 101.088V100.74C475.115 99.924 474.647 99.516 473.711 99.516C473.359 99.516 473.071 99.592 472.847 99.744C472.623 99.888 472.455 100.06 472.343 100.26C472.319 100.332 472.287 100.384 472.247 100.416C472.215 100.448 472.167 100.464 472.103 100.464H471.587C471.515 100.464 471.451 100.44 471.395 100.392C471.347 100.336 471.323 100.272 471.323 100.2C471.331 100.008 471.419 99.792 471.587 99.552C471.763 99.304 472.031 99.092 472.391 98.916C472.751 98.732 473.195 98.64 473.723 98.64C474.619 98.64 475.263 98.852 475.655 99.276C476.047 99.692 476.243 100.212 476.243 100.836V104.724C476.243 104.804 476.215 104.872 476.159 104.928C476.111 104.976 476.047 105 475.967 105H475.415C475.335 105 475.267 104.976 475.211 104.928C475.163 104.872 475.139 104.804 475.139 104.724V104.208C474.963 104.464 474.707 104.68 474.371 104.856C474.035 105.032 473.607 105.12 473.087 105.12ZM473.339 104.22C473.859 104.22 474.283 104.052 474.611 103.716C474.947 103.372 475.115 102.88 475.115 102.24V101.904L473.723 102.108C473.155 102.188 472.727 102.324 472.439 102.516C472.151 102.7 472.007 102.936 472.007 103.224C472.007 103.544 472.139 103.792 472.403 103.968C472.667 104.136 472.979 104.22 473.339 104.22ZM480.345 105C479.081 105 478.449 104.296 478.449 102.888V99.72H477.513C477.433 99.72 477.365 99.696 477.309 99.648C477.261 99.592 477.237 99.524 477.237 99.444V99.036C477.237 98.956 477.261 98.892 477.309 98.844C477.365 98.788 477.433 98.76 477.513 98.76H478.449V96.756C478.449 96.676 478.473 96.612 478.521 96.564C478.577 96.508 478.645 96.48 478.725 96.48H479.289C479.369 96.48 479.433 96.508 479.481 96.564C479.537 96.612 479.565 96.676 479.565 96.756V98.76H481.053C481.133 98.76 481.197 98.788 481.245 98.844C481.301 98.892 481.329 98.956 481.329 99.036V99.444C481.329 99.524 481.301 99.592 481.245 99.648C481.197 99.696 481.133 99.72 481.053 99.72H479.565V102.804C479.565 103.204 479.633 103.508 479.769 103.716C479.905 103.916 480.129 104.016 480.441 104.016H481.173C481.253 104.016 481.317 104.044 481.365 104.1C481.421 104.148 481.449 104.212 481.449 104.292V104.724C481.449 104.804 481.421 104.872 481.365 104.928C481.317 104.976 481.253 105 481.173 105H480.345ZM395.343 119.12C394.719 119.12 394.171 119.02 393.699 118.82C393.227 118.612 392.859 118.316 392.595 117.932C392.331 117.548 392.199 117.1 392.199 116.588C392.199 116.116 392.315 115.704 392.547 115.352C392.779 114.992 393.095 114.716 393.495 114.524C393.175 114.34 392.927 114.1 392.751 113.804C392.583 113.5 392.499 113.148 392.499 112.748C392.499 112.044 392.755 111.492 393.267 111.092C393.787 110.684 394.479 110.48 395.343 110.48C396.199 110.48 396.883 110.684 397.395 111.092C397.915 111.492 398.175 112.04 398.175 112.736C398.175 113.136 398.087 113.488 397.911 113.792C397.743 114.088 397.503 114.332 397.191 114.524C397.591 114.716 397.907 114.992 398.139 115.352C398.371 115.704 398.487 116.116 398.487 116.588C398.487 117.1 398.355 117.548 398.091 117.932C397.827 118.316 397.455 118.612 396.975 118.82C396.503 119.02 395.959 119.12 395.343 119.12ZM395.343 114.092C395.823 114.084 396.227 113.96 396.555 113.72C396.883 113.48 397.047 113.164 397.047 112.772C397.047 112.372 396.883 112.052 396.555 111.812C396.235 111.564 395.831 111.44 395.343 111.44C394.847 111.44 394.435 111.56 394.107 111.8C393.787 112.04 393.627 112.364 393.627 112.772C393.627 113.172 393.787 113.492 394.107 113.732C394.435 113.972 394.847 114.092 395.343 114.092ZM395.343 118.16C395.903 118.16 396.371 118.016 396.747 117.728C397.123 117.44 397.311 117.06 397.311 116.588C397.311 116.116 397.123 115.74 396.747 115.46C396.371 115.18 395.903 115.04 395.343 115.04C394.775 115.04 394.303 115.18 393.927 115.46C393.551 115.74 393.363 116.116 393.363 116.588C393.363 117.06 393.551 117.44 393.927 117.728C394.303 118.016 394.775 118.16 395.343 118.16ZM405.506 119.12C404.65 119.12 403.978 118.88 403.49 118.4C403.01 117.912 402.754 117.232 402.722 116.36L402.71 115.88L402.722 115.4C402.754 114.528 403.01 113.852 403.49 113.372C403.978 112.884 404.65 112.64 405.506 112.64C406.082 112.64 406.57 112.744 406.97 112.952C407.37 113.16 407.666 113.416 407.858 113.72C408.058 114.024 408.166 114.328 408.182 114.632C408.19 114.712 408.166 114.776 408.11 114.824C408.054 114.872 407.986 114.896 407.906 114.896H407.33C407.25 114.896 407.19 114.88 407.15 114.848C407.11 114.816 407.07 114.752 407.03 114.656C406.894 114.272 406.702 114 406.454 113.84C406.206 113.672 405.894 113.588 405.518 113.588C405.022 113.588 404.626 113.744 404.33 114.056C404.042 114.36 403.886 114.828 403.862 115.46L403.85 115.892L403.862 116.3C403.886 116.94 404.042 117.412 404.33 117.716C404.618 118.02 405.014 118.172 405.518 118.172C405.894 118.172 406.206 118.092 406.454 117.932C406.702 117.764 406.894 117.488 407.03 117.104C407.07 117.008 407.11 116.944 407.15 116.912C407.19 116.872 407.25 116.852 407.33 116.852H407.906C407.986 116.852 408.054 116.88 408.11 116.936C408.166 116.984 408.19 117.048 408.182 117.128C408.166 117.424 408.058 117.728 407.858 118.04C407.666 118.344 407.37 118.6 406.97 118.808C406.578 119.016 406.09 119.12 405.506 119.12ZM409.895 119C409.815 119 409.747 118.976 409.691 118.928C409.643 118.872 409.619 118.804 409.619 118.724V110.756C409.619 110.676 409.643 110.612 409.691 110.564C409.747 110.508 409.815 110.48 409.895 110.48H410.495C410.575 110.48 410.639 110.508 410.687 110.564C410.743 110.612 410.771 110.676 410.771 110.756V113.552C411.003 113.256 411.275 113.032 411.587 112.88C411.899 112.72 412.287 112.64 412.751 112.64C413.519 112.64 414.115 112.888 414.539 113.384C414.971 113.872 415.187 114.524 415.187 115.34V118.724C415.187 118.804 415.159 118.872 415.103 118.928C415.055 118.976 414.991 119 414.911 119H414.311C414.231 119 414.163 118.976 414.107 118.928C414.059 118.872 414.035 118.804 414.035 118.724V115.4C414.035 114.832 413.895 114.392 413.615 114.08C413.343 113.768 412.947 113.612 412.427 113.612C411.923 113.612 411.519 113.772 411.215 114.092C410.919 114.404 410.771 114.84 410.771 115.4V118.724C410.771 118.804 410.743 118.872 410.687 118.928C410.639 118.976 410.575 119 410.495 119H409.895ZM418.659 119.12C418.267 119.12 417.903 119.04 417.567 118.88C417.231 118.72 416.963 118.504 416.763 118.232C416.571 117.952 416.475 117.644 416.475 117.308C416.475 116.78 416.691 116.348 417.123 116.012C417.563 115.668 418.155 115.444 418.899 115.34L420.687 115.088V114.74C420.687 113.924 420.219 113.516 419.283 113.516C418.931 113.516 418.643 113.592 418.419 113.744C418.195 113.888 418.027 114.06 417.915 114.26C417.891 114.332 417.859 114.384 417.819 114.416C417.787 114.448 417.739 114.464 417.675 114.464H417.159C417.087 114.464 417.023 114.44 416.967 114.392C416.919 114.336 416.895 114.272 416.895 114.2C416.903 114.008 416.991 113.792 417.159 113.552C417.335 113.304 417.603 113.092 417.963 112.916C418.323 112.732 418.767 112.64 419.295 112.64C420.191 112.64 420.835 112.852 421.227 113.276C421.619 113.692 421.815 114.212 421.815 114.836V118.724C421.815 118.804 421.787 118.872 421.731 118.928C421.683 118.976 421.619 119 421.539 119H420.987C420.907 119 420.839 118.976 420.783 118.928C420.735 118.872 420.711 118.804 420.711 118.724V118.208C420.535 118.464 420.279 118.68 419.943 118.856C419.607 119.032 419.179 119.12 418.659 119.12ZM418.911 118.22C419.431 118.22 419.855 118.052 420.183 117.716C420.519 117.372 420.687 116.88 420.687 116.24V115.904L419.295 116.108C418.727 116.188 418.299 116.324 418.011 116.516C417.723 116.7 417.579 116.936 417.579 117.224C417.579 117.544 417.711 117.792 417.975 117.968C418.239 118.136 418.551 118.22 418.911 118.22ZM423.828 119C423.748 119 423.68 118.976 423.624 118.928C423.576 118.872 423.552 118.804 423.552 118.724V110.756C423.552 110.676 423.576 110.612 423.624 110.564C423.68 110.508 423.748 110.48 423.828 110.48H424.392C424.472 110.48 424.536 110.508 424.584 110.564C424.64 110.612 424.668 110.676 424.668 110.756V118.724C424.668 118.804 424.64 118.872 424.584 118.928C424.536 118.976 424.472 119 424.392 119H423.828ZM426.746 119C426.666 119 426.598 118.976 426.542 118.928C426.494 118.872 426.47 118.804 426.47 118.724V110.756C426.47 110.676 426.494 110.612 426.542 110.564C426.598 110.508 426.666 110.48 426.746 110.48H427.31C427.39 110.48 427.454 110.508 427.502 110.564C427.558 110.612 427.586 110.676 427.586 110.756V118.724C427.586 118.804 427.558 118.872 427.502 118.928C427.454 118.976 427.39 119 427.31 119H426.746ZM431.872 119.12C431.048 119.12 430.388 118.868 429.892 118.364C429.404 117.852 429.136 117.156 429.088 116.276L429.076 115.868L429.088 115.472C429.144 114.608 429.416 113.92 429.904 113.408C430.4 112.896 431.052 112.64 431.86 112.64C432.748 112.64 433.436 112.924 433.924 113.492C434.412 114.052 434.656 114.812 434.656 115.772V115.976C434.656 116.056 434.628 116.124 434.572 116.18C434.524 116.228 434.46 116.252 434.38 116.252H430.228V116.36C430.252 116.88 430.408 117.324 430.696 117.692C430.992 118.052 431.38 118.232 431.86 118.232C432.228 118.232 432.528 118.16 432.76 118.016C433 117.864 433.176 117.708 433.288 117.548C433.36 117.452 433.412 117.396 433.444 117.38C433.484 117.356 433.552 117.344 433.648 117.344H434.236C434.308 117.344 434.368 117.364 434.416 117.404C434.464 117.444 434.488 117.5 434.488 117.572C434.488 117.748 434.376 117.96 434.152 118.208C433.936 118.456 433.628 118.672 433.228 118.856C432.836 119.032 432.384 119.12 431.872 119.12ZM433.516 115.424V115.388C433.516 114.836 433.364 114.388 433.06 114.044C432.764 113.692 432.364 113.516 431.86 113.516C431.356 113.516 430.956 113.692 430.66 114.044C430.372 114.388 430.228 114.836 430.228 115.388V115.424H433.516ZM436.367 119C436.287 119 436.219 118.976 436.163 118.928C436.115 118.872 436.091 118.804 436.091 118.724V113.036C436.091 112.956 436.115 112.892 436.163 112.844C436.219 112.788 436.287 112.76 436.367 112.76H436.931C437.011 112.76 437.075 112.788 437.123 112.844C437.179 112.892 437.207 112.956 437.207 113.036V113.564C437.439 113.268 437.711 113.04 438.023 112.88C438.343 112.72 438.739 112.64 439.211 112.64C439.979 112.64 440.575 112.888 440.999 113.384C441.431 113.872 441.647 114.524 441.647 115.34V118.724C441.647 118.804 441.619 118.872 441.563 118.928C441.515 118.976 441.451 119 441.371 119H440.771C440.691 119 440.623 118.976 440.567 118.928C440.519 118.872 440.495 118.804 440.495 118.724V115.4C440.495 114.832 440.355 114.392 440.075 114.08C439.803 113.768 439.407 113.612 438.887 113.612C438.383 113.612 437.983 113.772 437.687 114.092C437.391 114.404 437.243 114.84 437.243 115.4V118.724C437.243 118.804 437.215 118.872 437.159 118.928C437.111 118.976 437.047 119 436.967 119H436.367ZM445.924 121.64C445.268 121.64 444.74 121.528 444.34 121.304C443.94 121.088 443.656 120.84 443.488 120.56C443.32 120.28 443.228 120.028 443.212 119.804C443.204 119.724 443.228 119.656 443.284 119.6C443.348 119.544 443.416 119.516 443.488 119.516H444.064C444.136 119.516 444.196 119.532 444.244 119.564C444.292 119.604 444.332 119.672 444.364 119.768C444.46 120.024 444.616 120.244 444.832 120.428C445.056 120.62 445.4 120.716 445.864 120.716C446.456 120.716 446.892 120.588 447.172 120.332C447.452 120.084 447.592 119.64 447.592 119V118.184C447.384 118.448 447.12 118.66 446.8 118.82C446.48 118.972 446.1 119.048 445.66 119.048C444.812 119.048 444.176 118.78 443.752 118.244C443.336 117.7 443.116 117.012 443.092 116.18L443.08 115.844L443.092 115.52C443.116 114.696 443.34 114.012 443.764 113.468C444.188 112.916 444.82 112.64 445.66 112.64C446.5 112.64 447.156 112.948 447.628 113.564V113.048C447.628 112.968 447.652 112.9 447.7 112.844C447.756 112.788 447.824 112.76 447.904 112.76H448.456C448.536 112.76 448.604 112.788 448.66 112.844C448.716 112.9 448.744 112.968 448.744 113.048V118.868C448.744 120.716 447.804 121.64 445.924 121.64ZM445.9 118.088C446.444 118.088 446.856 117.908 447.136 117.548C447.416 117.188 447.568 116.76 447.592 116.264C447.6 116.192 447.604 116.052 447.604 115.844C447.604 115.644 447.6 115.508 447.592 115.436C447.568 114.94 447.416 114.512 447.136 114.152C446.864 113.792 446.452 113.612 445.9 113.612C445.332 113.612 444.92 113.788 444.664 114.14C444.408 114.492 444.268 114.956 444.244 115.532L444.232 115.844L444.244 116.168C444.268 116.736 444.408 117.2 444.664 117.56C444.92 117.912 445.332 118.088 445.9 118.088ZM453.025 119.12C452.201 119.12 451.541 118.868 451.045 118.364C450.557 117.852 450.289 117.156 450.241 116.276L450.229 115.868L450.241 115.472C450.297 114.608 450.569 113.92 451.057 113.408C451.553 112.896 452.205 112.64 453.013 112.64C453.901 112.64 454.589 112.924 455.077 113.492C455.565 114.052 455.809 114.812 455.809 115.772V115.976C455.809 116.056 455.781 116.124 455.725 116.18C455.677 116.228 455.613 116.252 455.533 116.252H451.381V116.36C451.405 116.88 451.561 117.324 451.849 117.692C452.145 118.052 452.533 118.232 453.013 118.232C453.381 118.232 453.681 118.16 453.913 118.016C454.153 117.864 454.329 117.708 454.441 117.548C454.513 117.452 454.565 117.396 454.597 117.38C454.637 117.356 454.705 117.344 454.801 117.344H455.389C455.461 117.344 455.521 117.364 455.569 117.404C455.617 117.444 455.641 117.5 455.641 117.572C455.641 117.748 455.529 117.96 455.305 118.208C455.089 118.456 454.781 118.672 454.381 118.856C453.989 119.032 453.537 119.12 453.025 119.12ZM454.669 115.424V115.388C454.669 114.836 454.517 114.388 454.213 114.044C453.917 113.692 453.517 113.516 453.013 113.516C452.509 113.516 452.109 113.692 451.813 114.044C451.525 114.388 451.381 114.836 451.381 115.388V115.424H454.669ZM459.403 119.12C458.843 119.12 458.371 119.032 457.987 118.856C457.611 118.672 457.327 118.464 457.135 118.232C456.951 118 456.859 117.808 456.859 117.656C456.859 117.576 456.887 117.516 456.943 117.476C457.007 117.428 457.071 117.404 457.135 117.404H457.675C457.755 117.404 457.827 117.444 457.891 117.524C458.083 117.748 458.291 117.924 458.515 118.052C458.739 118.18 459.039 118.244 459.415 118.244C459.831 118.244 460.167 118.164 460.423 118.004C460.687 117.836 460.819 117.608 460.819 117.32C460.819 117.128 460.763 116.972 460.651 116.852C460.547 116.724 460.363 116.616 460.099 116.528C459.843 116.432 459.459 116.328 458.947 116.216C458.251 116.064 457.755 115.844 457.459 115.556C457.171 115.268 457.027 114.896 457.027 114.44C457.027 114.136 457.115 113.848 457.291 113.576C457.475 113.296 457.739 113.072 458.083 112.904C458.435 112.728 458.855 112.64 459.343 112.64C459.855 112.64 460.291 112.724 460.651 112.892C461.011 113.06 461.279 113.26 461.455 113.492C461.639 113.716 461.731 113.904 461.731 114.056C461.731 114.128 461.703 114.188 461.647 114.236C461.599 114.284 461.539 114.308 461.467 114.308H460.963C460.867 114.308 460.787 114.268 460.723 114.188C460.595 114.036 460.483 113.92 460.387 113.84C460.299 113.752 460.167 113.676 459.991 113.612C459.823 113.548 459.607 113.516 459.343 113.516C458.959 113.516 458.663 113.6 458.455 113.768C458.247 113.928 458.143 114.14 458.143 114.404C458.143 114.572 458.187 114.716 458.275 114.836C458.363 114.948 458.531 115.052 458.779 115.148C459.035 115.244 459.403 115.344 459.883 115.448C460.643 115.608 461.179 115.84 461.491 116.144C461.811 116.44 461.971 116.82 461.971 117.284C461.971 117.628 461.871 117.94 461.671 118.22C461.471 118.5 461.175 118.72 460.783 118.88C460.399 119.04 459.939 119.12 459.403 119.12Z" fill="black"/>
</svg>
