<svg width="600" height="242" viewBox="0 0 600 242" fill="none" xmlns="http://www.w3.org/2000/svg">
<path d="M415.119 126C415.019 126 414.934 125.97 414.864 125.91C414.804 125.84 414.774 125.755 414.774 125.655V115.86C414.774 115.75 414.804 115.665 414.864 115.605C414.934 115.535 415.019 115.5 415.119 115.5H418.524C420.034 115.5 421.124 115.84 421.794 116.52C422.464 117.19 422.814 118.205 422.844 119.565C422.854 119.855 422.859 120.245 422.859 120.735C422.859 121.225 422.854 121.62 422.844 121.92C422.814 122.87 422.654 123.645 422.364 124.245C422.084 124.835 421.639 125.275 421.029 125.565C420.419 125.855 419.609 126 418.599 126H415.119ZM418.524 124.725C419.214 124.725 419.759 124.63 420.159 124.44C420.569 124.25 420.864 123.95 421.044 123.54C421.234 123.12 421.339 122.56 421.359 121.86C421.379 121.26 421.389 120.885 421.389 120.735C421.389 120.575 421.379 120.205 421.359 119.625C421.339 118.635 421.104 117.915 420.654 117.465C420.204 117.005 419.469 116.775 418.449 116.775H416.244V124.725H418.524ZM428.041 126.15C427.011 126.15 426.186 125.835 425.566 125.205C424.956 124.565 424.621 123.695 424.561 122.595L424.546 122.085L424.561 121.59C424.631 120.51 424.971 119.65 425.581 119.01C426.201 118.37 427.016 118.05 428.026 118.05C429.136 118.05 429.996 118.405 430.606 119.115C431.216 119.815 431.521 120.765 431.521 121.965V122.22C431.521 122.32 431.486 122.405 431.416 122.475C431.356 122.535 431.276 122.565 431.176 122.565H425.986V122.7C426.016 123.35 426.211 123.905 426.571 124.365C426.941 124.815 427.426 125.04 428.026 125.04C428.486 125.04 428.861 124.95 429.151 124.77C429.451 124.58 429.671 124.385 429.811 124.185C429.901 124.065 429.966 123.995 430.006 123.975C430.056 123.945 430.141 123.93 430.261 123.93H430.996C431.086 123.93 431.161 123.955 431.221 124.005C431.281 124.055 431.311 124.125 431.311 124.215C431.311 124.435 431.171 124.7 430.891 125.01C430.621 125.32 430.236 125.59 429.736 125.82C429.246 126.04 428.681 126.15 428.041 126.15ZM430.096 121.53V121.485C430.096 120.795 429.906 120.235 429.526 119.805C429.156 119.365 428.656 119.145 428.026 119.145C427.396 119.145 426.896 119.365 426.526 119.805C426.166 120.235 425.986 120.795 425.986 121.485V121.53H430.096ZM436.015 126.15C435.315 126.15 434.725 126.04 434.245 125.82C433.775 125.59 433.42 125.33 433.18 125.04C432.95 124.75 432.835 124.51 432.835 124.32C432.835 124.22 432.87 124.145 432.94 124.095C433.02 124.035 433.1 124.005 433.18 124.005H433.855C433.955 124.005 434.045 124.055 434.125 124.155C434.365 124.435 434.625 124.655 434.905 124.815C435.185 124.975 435.56 125.055 436.03 125.055C436.55 125.055 436.97 124.955 437.29 124.755C437.62 124.545 437.785 124.26 437.785 123.9C437.785 123.66 437.715 123.465 437.575 123.315C437.445 123.155 437.215 123.02 436.885 122.91C436.565 122.79 436.085 122.66 435.445 122.52C434.575 122.33 433.955 122.055 433.585 121.695C433.225 121.335 433.045 120.87 433.045 120.3C433.045 119.92 433.155 119.56 433.375 119.22C433.605 118.87 433.935 118.59 434.365 118.38C434.805 118.16 435.33 118.05 435.94 118.05C436.58 118.05 437.125 118.155 437.575 118.365C438.025 118.575 438.36 118.825 438.58 119.115C438.81 119.395 438.925 119.63 438.925 119.82C438.925 119.91 438.89 119.985 438.82 120.045C438.76 120.105 438.685 120.135 438.595 120.135H437.965C437.845 120.135 437.745 120.085 437.665 119.985C437.505 119.795 437.365 119.65 437.245 119.55C437.135 119.44 436.97 119.345 436.75 119.265C436.54 119.185 436.27 119.145 435.94 119.145C435.46 119.145 435.09 119.25 434.83 119.46C434.57 119.66 434.44 119.925 434.44 120.255C434.44 120.465 434.495 120.645 434.605 120.795C434.715 120.935 434.925 121.065 435.235 121.185C435.555 121.305 436.015 121.43 436.615 121.56C437.565 121.76 438.235 122.05 438.625 122.43C439.025 122.8 439.225 123.275 439.225 123.855C439.225 124.285 439.1 124.675 438.85 125.025C438.6 125.375 438.23 125.65 437.74 125.85C437.26 126.05 436.685 126.15 436.015 126.15ZM441.186 116.745C441.086 116.745 441.001 116.715 440.931 116.655C440.871 116.585 440.841 116.5 440.841 116.4V115.59C440.841 115.49 440.871 115.405 440.931 115.335C441.001 115.265 441.086 115.23 441.186 115.23H442.131C442.231 115.23 442.316 115.265 442.386 115.335C442.456 115.405 442.491 115.49 442.491 115.59V116.4C442.491 116.5 442.456 116.585 442.386 116.655C442.316 116.715 442.231 116.745 442.131 116.745H441.186ZM441.306 126C441.206 126 441.121 125.97 441.051 125.91C440.991 125.84 440.961 125.755 440.961 125.655V118.545C440.961 118.445 440.991 118.365 441.051 118.305C441.121 118.235 441.206 118.2 441.306 118.2H442.026C442.126 118.2 442.206 118.235 442.266 118.305C442.336 118.365 442.371 118.445 442.371 118.545V125.655C442.371 125.755 442.336 125.84 442.266 125.91C442.206 125.97 442.126 126 442.026 126H441.306ZM447.789 129.3C446.969 129.3 446.309 129.16 445.809 128.88C445.309 128.61 444.954 128.3 444.744 127.95C444.534 127.6 444.419 127.285 444.399 127.005C444.389 126.905 444.419 126.82 444.489 126.75C444.569 126.68 444.654 126.645 444.744 126.645H445.464C445.554 126.645 445.629 126.665 445.689 126.705C445.749 126.755 445.799 126.84 445.839 126.96C445.959 127.28 446.154 127.555 446.424 127.785C446.704 128.025 447.134 128.145 447.714 128.145C448.454 128.145 448.999 127.985 449.349 127.665C449.699 127.355 449.874 126.8 449.874 126V124.98C449.614 125.31 449.284 125.575 448.884 125.775C448.484 125.965 448.009 126.06 447.459 126.06C446.399 126.06 445.604 125.725 445.074 125.055C444.554 124.375 444.279 123.515 444.249 122.475L444.234 122.055L444.249 121.65C444.279 120.62 444.559 119.765 445.089 119.085C445.619 118.395 446.409 118.05 447.459 118.05C448.509 118.05 449.329 118.435 449.919 119.205V118.56C449.919 118.46 449.949 118.375 450.009 118.305C450.079 118.235 450.164 118.2 450.264 118.2H450.954C451.054 118.2 451.139 118.235 451.209 118.305C451.279 118.375 451.314 118.46 451.314 118.56V125.835C451.314 128.145 450.139 129.3 447.789 129.3ZM447.759 124.86C448.439 124.86 448.954 124.635 449.304 124.185C449.654 123.735 449.844 123.2 449.874 122.58C449.884 122.49 449.889 122.315 449.889 122.055C449.889 121.805 449.884 121.635 449.874 121.545C449.844 120.925 449.654 120.39 449.304 119.94C448.964 119.49 448.449 119.265 447.759 119.265C447.049 119.265 446.534 119.485 446.214 119.925C445.894 120.365 445.719 120.945 445.689 121.665L445.674 122.055L445.689 122.46C445.719 123.17 445.894 123.75 446.214 124.2C446.534 124.64 447.049 124.86 447.759 124.86ZM453.889 126C453.789 126 453.704 125.97 453.634 125.91C453.574 125.84 453.544 125.755 453.544 125.655V118.545C453.544 118.445 453.574 118.365 453.634 118.305C453.704 118.235 453.789 118.2 453.889 118.2H454.594C454.694 118.2 454.774 118.235 454.834 118.305C454.904 118.365 454.939 118.445 454.939 118.545V119.205C455.229 118.835 455.569 118.55 455.959 118.35C456.359 118.15 456.854 118.05 457.444 118.05C458.404 118.05 459.149 118.36 459.679 118.98C460.219 119.59 460.489 120.405 460.489 121.425V125.655C460.489 125.755 460.454 125.84 460.384 125.91C460.324 125.97 460.244 126 460.144 126H459.394C459.294 126 459.209 125.97 459.139 125.91C459.079 125.84 459.049 125.755 459.049 125.655V121.5C459.049 120.79 458.874 120.24 458.524 119.85C458.184 119.46 457.689 119.265 457.039 119.265C456.409 119.265 455.909 119.465 455.539 119.865C455.169 120.255 454.984 120.8 454.984 121.5V125.655C454.984 125.755 454.949 125.84 454.879 125.91C454.819 125.97 454.739 126 454.639 126H453.889Z" fill="#c9c9b6"/>
<path d="M282.675 17.18C281.019 17.18 279.735 16.754 278.823 15.902C277.923 15.05 277.443 13.85 277.383 12.302C277.371 11.978 277.365 11.45 277.365 10.718C277.365 9.974 277.371 9.434 277.383 9.098C277.443 7.562 277.929 6.368 278.841 5.516C279.765 4.652 281.043 4.22 282.675 4.22C283.743 4.22 284.673 4.406 285.465 4.778C286.257 5.138 286.869 5.636 287.301 6.272C287.733 6.896 287.961 7.604 287.985 8.396V8.432C287.985 8.528 287.943 8.612 287.859 8.684C287.787 8.744 287.703 8.774 287.607 8.774H285.897C285.753 8.774 285.645 8.744 285.573 8.684C285.501 8.624 285.441 8.51 285.393 8.342C285.201 7.586 284.883 7.058 284.439 6.758C283.995 6.446 283.401 6.29 282.657 6.29C280.929 6.29 280.029 7.256 279.957 9.188C279.945 9.512 279.939 10.01 279.939 10.682C279.939 11.354 279.945 11.864 279.957 12.212C280.029 14.144 280.929 15.11 282.657 15.11C283.401 15.11 283.995 14.954 284.439 14.642C284.895 14.33 285.213 13.802 285.393 13.058C285.429 12.89 285.483 12.776 285.555 12.716C285.639 12.656 285.753 12.626 285.897 12.626H287.607C287.715 12.626 287.805 12.662 287.877 12.734C287.961 12.806 287.997 12.896 287.985 13.004C287.961 13.796 287.733 14.51 287.301 15.146C286.869 15.77 286.257 16.268 285.465 16.64C284.673 17 283.743 17.18 282.675 17.18ZM295.142 17.18C293.522 17.18 292.262 16.766 291.362 15.938C290.462 15.11 290.012 13.856 290.012 12.176V4.85C290.012 4.718 290.048 4.61 290.12 4.526C290.204 4.442 290.312 4.4 290.444 4.4H292.082C292.214 4.4 292.316 4.442 292.388 4.526C292.472 4.61 292.514 4.718 292.514 4.85V12.176C292.514 13.136 292.742 13.862 293.198 14.354C293.654 14.834 294.302 15.074 295.142 15.074C295.982 15.074 296.624 14.834 297.068 14.354C297.524 13.862 297.752 13.136 297.752 12.176V4.85C297.752 4.718 297.794 4.61 297.878 4.526C297.962 4.442 298.07 4.4 298.202 4.4H299.822C299.954 4.4 300.056 4.442 300.128 4.526C300.212 4.61 300.254 4.718 300.254 4.85V12.176C300.254 13.856 299.804 15.11 298.904 15.938C298.016 16.766 296.762 17.18 295.142 17.18ZM303.384 17C303.264 17 303.162 16.958 303.078 16.874C302.994 16.79 302.952 16.688 302.952 16.568V4.85C302.952 4.718 302.988 4.61 303.06 4.526C303.144 4.442 303.252 4.4 303.384 4.4H308.046C309.51 4.4 310.656 4.742 311.484 5.426C312.324 6.11 312.744 7.082 312.744 8.342C312.744 9.218 312.528 9.956 312.096 10.556C311.676 11.144 311.088 11.57 310.332 11.834L312.96 16.424C312.996 16.496 313.014 16.562 313.014 16.622C313.014 16.73 312.972 16.82 312.888 16.892C312.816 16.964 312.732 17 312.636 17H310.998C310.806 17 310.656 16.958 310.548 16.874C310.452 16.79 310.362 16.67 310.278 16.514L307.956 12.248H305.454V16.568C305.454 16.688 305.412 16.79 305.328 16.874C305.256 16.958 305.154 17 305.022 17H303.384ZM307.992 10.214C308.712 10.214 309.252 10.052 309.612 9.728C309.984 9.404 310.17 8.936 310.17 8.324C310.17 7.712 309.984 7.238 309.612 6.902C309.252 6.566 308.712 6.398 307.992 6.398H305.454V10.214H307.992ZM319.437 17.18C318.369 17.18 317.451 17.018 316.683 16.694C315.915 16.37 315.333 15.944 314.937 15.416C314.541 14.888 314.331 14.318 314.307 13.706C314.307 13.598 314.343 13.508 314.415 13.436C314.487 13.364 314.577 13.328 314.685 13.328H316.287C316.431 13.328 316.539 13.358 316.611 13.418C316.695 13.466 316.773 13.55 316.845 13.67C316.965 14.078 317.241 14.42 317.673 14.696C318.105 14.972 318.693 15.11 319.437 15.11C320.289 15.11 320.931 14.972 321.363 14.696C321.795 14.408 322.011 14.012 322.011 13.508C322.011 13.172 321.897 12.896 321.669 12.68C321.453 12.464 321.123 12.278 320.679 12.122C320.247 11.966 319.599 11.774 318.735 11.546C317.319 11.21 316.281 10.766 315.621 10.214C314.973 9.65 314.649 8.852 314.649 7.82C314.649 7.124 314.835 6.506 315.207 5.966C315.591 5.426 316.137 5 316.845 4.688C317.565 4.376 318.399 4.22 319.347 4.22C320.331 4.22 321.183 4.394 321.903 4.742C322.623 5.09 323.169 5.528 323.541 6.056C323.925 6.572 324.129 7.088 324.153 7.604C324.153 7.712 324.117 7.802 324.045 7.874C323.973 7.946 323.883 7.982 323.775 7.982H322.101C321.849 7.982 321.675 7.868 321.579 7.64C321.507 7.256 321.267 6.938 320.859 6.686C320.451 6.422 319.947 6.29 319.347 6.29C318.675 6.29 318.147 6.416 317.763 6.668C317.379 6.92 317.187 7.286 317.187 7.766C317.187 8.102 317.283 8.378 317.475 8.594C317.667 8.81 317.967 9.002 318.375 9.17C318.795 9.338 319.395 9.524 320.175 9.728C321.231 9.968 322.071 10.238 322.695 10.538C323.331 10.838 323.799 11.216 324.099 11.672C324.399 12.128 324.549 12.71 324.549 13.418C324.549 14.186 324.333 14.858 323.901 15.434C323.481 15.998 322.881 16.43 322.101 16.73C321.333 17.03 320.445 17.18 319.437 17.18ZM331.634 17.18C330.014 17.18 328.754 16.766 327.854 15.938C326.954 15.11 326.504 13.856 326.504 12.176V4.85C326.504 4.718 326.54 4.61 326.612 4.526C326.696 4.442 326.804 4.4 326.936 4.4H328.574C328.706 4.4 328.808 4.442 328.88 4.526C328.964 4.61 329.006 4.718 329.006 4.85V12.176C329.006 13.136 329.234 13.862 329.69 14.354C330.146 14.834 330.794 15.074 331.634 15.074C332.474 15.074 333.116 14.834 333.56 14.354C334.016 13.862 334.244 13.136 334.244 12.176V4.85C334.244 4.718 334.286 4.61 334.37 4.526C334.454 4.442 334.562 4.4 334.694 4.4H336.314C336.446 4.4 336.548 4.442 336.62 4.526C336.704 4.61 336.746 4.718 336.746 4.85V12.176C336.746 13.856 336.296 15.11 335.396 15.938C334.508 16.766 333.254 17.18 331.634 17.18ZM343.818 17.18C342.75 17.18 341.832 17.018 341.064 16.694C340.296 16.37 339.714 15.944 339.318 15.416C338.922 14.888 338.712 14.318 338.688 13.706C338.688 13.598 338.724 13.508 338.796 13.436C338.868 13.364 338.958 13.328 339.066 13.328H340.668C340.812 13.328 340.92 13.358 340.992 13.418C341.076 13.466 341.154 13.55 341.226 13.67C341.346 14.078 341.622 14.42 342.054 14.696C342.486 14.972 343.074 15.11 343.818 15.11C344.67 15.11 345.312 14.972 345.744 14.696C346.176 14.408 346.392 14.012 346.392 13.508C346.392 13.172 346.278 12.896 346.05 12.68C345.834 12.464 345.504 12.278 345.06 12.122C344.628 11.966 343.98 11.774 343.116 11.546C341.7 11.21 340.662 10.766 340.002 10.214C339.354 9.65 339.03 8.852 339.03 7.82C339.03 7.124 339.216 6.506 339.588 5.966C339.972 5.426 340.518 5 341.226 4.688C341.946 4.376 342.78 4.22 343.728 4.22C344.712 4.22 345.564 4.394 346.284 4.742C347.004 5.09 347.55 5.528 347.922 6.056C348.306 6.572 348.51 7.088 348.534 7.604C348.534 7.712 348.498 7.802 348.426 7.874C348.354 7.946 348.264 7.982 348.156 7.982H346.482C346.23 7.982 346.056 7.868 345.96 7.64C345.888 7.256 345.648 6.938 345.24 6.686C344.832 6.422 344.328 6.29 343.728 6.29C343.056 6.29 342.528 6.416 342.144 6.668C341.76 6.92 341.568 7.286 341.568 7.766C341.568 8.102 341.664 8.378 341.856 8.594C342.048 8.81 342.348 9.002 342.756 9.17C343.176 9.338 343.776 9.524 344.556 9.728C345.612 9.968 346.452 10.238 347.076 10.538C347.712 10.838 348.18 11.216 348.48 11.672C348.78 12.128 348.93 12.71 348.93 13.418C348.93 14.186 348.714 14.858 348.282 15.434C347.862 15.998 347.262 16.43 346.482 16.73C345.714 17.03 344.826 17.18 343.818 17.18Z" fill="#F9B131"/>
<path d="M198.616 238.18C196.96 238.18 195.676 237.754 194.764 236.902C193.864 236.05 193.384 234.85 193.324 233.302C193.312 232.978 193.306 232.45 193.306 231.718C193.306 230.974 193.312 230.434 193.324 230.098C193.384 228.562 193.87 227.368 194.782 226.516C195.706 225.652 196.984 225.22 198.616 225.22C199.684 225.22 200.614 225.406 201.406 225.778C202.198 226.138 202.81 226.636 203.242 227.272C203.674 227.896 203.902 228.604 203.926 229.396V229.432C203.926 229.528 203.884 229.612 203.8 229.684C203.728 229.744 203.644 229.774 203.548 229.774H201.838C201.694 229.774 201.586 229.744 201.514 229.684C201.442 229.624 201.382 229.51 201.334 229.342C201.142 228.586 200.824 228.058 200.38 227.758C199.936 227.446 199.342 227.29 198.598 227.29C196.87 227.29 195.97 228.256 195.898 230.188C195.886 230.512 195.88 231.01 195.88 231.682C195.88 232.354 195.886 232.864 195.898 233.212C195.97 235.144 196.87 236.11 198.598 236.11C199.342 236.11 199.936 235.954 200.38 235.642C200.836 235.33 201.154 234.802 201.334 234.058C201.37 233.89 201.424 233.776 201.496 233.716C201.58 233.656 201.694 233.626 201.838 233.626H203.548C203.656 233.626 203.746 233.662 203.818 233.734C203.902 233.806 203.938 233.896 203.926 234.004C203.902 234.796 203.674 235.51 203.242 236.146C202.81 236.77 202.198 237.268 201.406 237.64C200.614 238 199.684 238.18 198.616 238.18ZM210.902 238.18C209.27 238.18 207.998 237.766 207.086 236.938C206.174 236.11 205.694 234.88 205.646 233.248C205.634 232.9 205.628 232.39 205.628 231.718C205.628 231.034 205.634 230.518 205.646 230.17C205.694 228.574 206.186 227.35 207.122 226.498C208.058 225.646 209.318 225.22 210.902 225.22C212.486 225.22 213.746 225.646 214.682 226.498C215.63 227.35 216.128 228.574 216.176 230.17C216.2 230.866 216.212 231.382 216.212 231.718C216.212 232.042 216.2 232.552 216.176 233.248C216.116 234.88 215.63 236.11 214.718 236.938C213.806 237.766 212.534 238.18 210.902 238.18ZM210.902 236.11C211.706 236.11 212.348 235.87 212.828 235.39C213.308 234.898 213.566 234.154 213.602 233.158C213.626 232.438 213.638 231.952 213.638 231.7C213.638 231.424 213.626 230.938 213.602 230.242C213.566 229.246 213.308 228.508 212.828 228.028C212.348 227.536 211.706 227.29 210.902 227.29C210.11 227.29 209.474 227.536 208.994 228.028C208.514 228.508 208.256 229.246 208.22 230.242C208.208 230.59 208.202 231.076 208.202 231.7C208.202 232.312 208.208 232.798 208.22 233.158C208.256 234.154 208.508 234.898 208.976 235.39C209.456 235.87 210.098 236.11 210.902 236.11ZM219.026 238C218.894 238 218.786 237.964 218.702 237.892C218.618 237.808 218.576 237.7 218.576 237.568V225.85C218.576 225.718 218.618 225.61 218.702 225.526C218.786 225.442 218.894 225.4 219.026 225.4H220.448C220.7 225.4 220.88 225.514 220.988 225.742L224.462 232.222L227.972 225.742C228.092 225.514 228.272 225.4 228.512 225.4H229.916C230.048 225.4 230.156 225.442 230.24 225.526C230.324 225.61 230.366 225.718 230.366 225.85V237.568C230.366 237.7 230.324 237.808 230.24 237.892C230.156 237.964 230.048 238 229.916 238H228.404C228.284 238 228.182 237.958 228.098 237.874C228.014 237.79 227.972 237.688 227.972 237.568V229.774L225.452 234.58C225.296 234.844 225.092 234.976 224.84 234.976H224.102C223.85 234.976 223.646 234.844 223.49 234.58L220.97 229.774V237.568C220.97 237.688 220.928 237.79 220.844 237.874C220.772 237.958 220.67 238 220.538 238H219.026ZM233.598 238C233.478 238 233.376 237.958 233.292 237.874C233.208 237.79 233.166 237.688 233.166 237.568V225.85C233.166 225.718 233.202 225.61 233.274 225.526C233.358 225.442 233.466 225.4 233.598 225.4H238.422C239.862 225.4 240.996 225.742 241.824 226.426C242.652 227.098 243.066 228.088 243.066 229.396C243.066 230.704 242.652 231.694 241.824 232.366C241.008 233.026 239.874 233.356 238.422 233.356H235.74V237.568C235.74 237.688 235.698 237.79 235.614 237.874C235.542 237.958 235.44 238 235.308 238H233.598ZM238.332 231.358C239.028 231.358 239.562 231.196 239.934 230.872C240.306 230.536 240.492 230.044 240.492 229.396C240.492 228.772 240.312 228.286 239.952 227.938C239.592 227.578 239.052 227.398 238.332 227.398H235.704V231.358H238.332ZM249.873 238.18C248.241 238.18 246.969 237.766 246.057 236.938C245.145 236.11 244.665 234.88 244.617 233.248C244.605 232.9 244.599 232.39 244.599 231.718C244.599 231.034 244.605 230.518 244.617 230.17C244.665 228.574 245.157 227.35 246.093 226.498C247.029 225.646 248.289 225.22 249.873 225.22C251.457 225.22 252.717 225.646 253.653 226.498C254.601 227.35 255.099 228.574 255.147 230.17C255.171 230.866 255.183 231.382 255.183 231.718C255.183 232.042 255.171 232.552 255.147 233.248C255.087 234.88 254.601 236.11 253.689 236.938C252.777 237.766 251.505 238.18 249.873 238.18ZM249.873 236.11C250.677 236.11 251.319 235.87 251.799 235.39C252.279 234.898 252.537 234.154 252.573 233.158C252.597 232.438 252.609 231.952 252.609 231.7C252.609 231.424 252.597 230.938 252.573 230.242C252.537 229.246 252.279 228.508 251.799 228.028C251.319 227.536 250.677 227.29 249.873 227.29C249.081 227.29 248.445 227.536 247.965 228.028C247.485 228.508 247.227 229.246 247.191 230.242C247.179 230.59 247.173 231.076 247.173 231.7C247.173 232.312 247.179 232.798 247.191 233.158C247.227 234.154 247.479 234.898 247.947 235.39C248.427 235.87 249.069 236.11 249.873 236.11ZM261.921 238.18C260.853 238.18 259.935 238.018 259.167 237.694C258.399 237.37 257.817 236.944 257.421 236.416C257.025 235.888 256.815 235.318 256.791 234.706C256.791 234.598 256.827 234.508 256.899 234.436C256.971 234.364 257.061 234.328 257.169 234.328H258.771C258.915 234.328 259.023 234.358 259.095 234.418C259.179 234.466 259.257 234.55 259.329 234.67C259.449 235.078 259.725 235.42 260.157 235.696C260.589 235.972 261.177 236.11 261.921 236.11C262.773 236.11 263.415 235.972 263.847 235.696C264.279 235.408 264.495 235.012 264.495 234.508C264.495 234.172 264.381 233.896 264.153 233.68C263.937 233.464 263.607 233.278 263.163 233.122C262.731 232.966 262.083 232.774 261.219 232.546C259.803 232.21 258.765 231.766 258.105 231.214C257.457 230.65 257.133 229.852 257.133 228.82C257.133 228.124 257.319 227.506 257.691 226.966C258.075 226.426 258.621 226 259.329 225.688C260.049 225.376 260.883 225.22 261.831 225.22C262.815 225.22 263.667 225.394 264.387 225.742C265.107 226.09 265.653 226.528 266.025 227.056C266.409 227.572 266.613 228.088 266.637 228.604C266.637 228.712 266.601 228.802 266.529 228.874C266.457 228.946 266.367 228.982 266.259 228.982H264.585C264.333 228.982 264.159 228.868 264.063 228.64C263.991 228.256 263.751 227.938 263.343 227.686C262.935 227.422 262.431 227.29 261.831 227.29C261.159 227.29 260.631 227.416 260.247 227.668C259.863 227.92 259.671 228.286 259.671 228.766C259.671 229.102 259.767 229.378 259.959 229.594C260.151 229.81 260.451 230.002 260.859 230.17C261.279 230.338 261.879 230.524 262.659 230.728C263.715 230.968 264.555 231.238 265.179 231.538C265.815 231.838 266.283 232.216 266.583 232.672C266.883 233.128 267.033 233.71 267.033 234.418C267.033 235.186 266.817 235.858 266.385 236.434C265.965 236.998 265.365 237.43 264.585 237.73C263.817 238.03 262.929 238.18 261.921 238.18ZM269.527 238C269.407 238 269.305 237.958 269.221 237.874C269.137 237.79 269.095 237.688 269.095 237.568V225.832C269.095 225.7 269.137 225.598 269.221 225.526C269.305 225.442 269.407 225.4 269.527 225.4H271.219C271.351 225.4 271.453 225.442 271.525 225.526C271.609 225.598 271.651 225.7 271.651 225.832V237.568C271.651 237.688 271.609 237.79 271.525 237.874C271.453 237.958 271.351 238 271.219 238H269.527ZM277.678 238C277.558 238 277.456 237.958 277.372 237.874C277.288 237.79 277.246 237.688 277.246 237.568V227.614H273.916C273.796 227.614 273.694 227.572 273.61 227.488C273.526 227.404 273.484 227.302 273.484 227.182V225.85C273.484 225.718 273.52 225.61 273.592 225.526C273.676 225.442 273.784 225.4 273.916 225.4H283.096C283.228 225.4 283.336 225.442 283.42 225.526C283.504 225.61 283.546 225.718 283.546 225.85V227.182C283.546 227.302 283.504 227.404 283.42 227.488C283.336 227.572 283.228 227.614 283.096 227.614H279.784V237.568C279.784 237.688 279.742 237.79 279.658 237.874C279.574 237.958 279.466 238 279.334 238H277.678ZM285.805 238C285.685 238 285.583 237.958 285.499 237.874C285.415 237.79 285.373 237.688 285.373 237.568V225.832C285.373 225.7 285.415 225.598 285.499 225.526C285.583 225.442 285.685 225.4 285.805 225.4H287.497C287.629 225.4 287.731 225.442 287.803 225.526C287.887 225.598 287.929 225.7 287.929 225.832V237.568C287.929 237.688 287.887 237.79 287.803 237.874C287.731 237.958 287.629 238 287.497 238H285.805ZM295.594 238.18C293.962 238.18 292.69 237.766 291.778 236.938C290.866 236.11 290.386 234.88 290.338 233.248C290.326 232.9 290.32 232.39 290.32 231.718C290.32 231.034 290.326 230.518 290.338 230.17C290.386 228.574 290.878 227.35 291.814 226.498C292.75 225.646 294.01 225.22 295.594 225.22C297.178 225.22 298.438 225.646 299.374 226.498C300.322 227.35 300.82 228.574 300.868 230.17C300.892 230.866 300.904 231.382 300.904 231.718C300.904 232.042 300.892 232.552 300.868 233.248C300.808 234.88 300.322 236.11 299.41 236.938C298.498 237.766 297.226 238.18 295.594 238.18ZM295.594 236.11C296.398 236.11 297.04 235.87 297.52 235.39C298 234.898 298.258 234.154 298.294 233.158C298.318 232.438 298.33 231.952 298.33 231.7C298.33 231.424 298.318 230.938 298.294 230.242C298.258 229.246 298 228.508 297.52 228.028C297.04 227.536 296.398 227.29 295.594 227.29C294.802 227.29 294.166 227.536 293.686 228.028C293.206 228.508 292.948 229.246 292.912 230.242C292.9 230.59 292.894 231.076 292.894 231.7C292.894 232.312 292.9 232.798 292.912 233.158C292.948 234.154 293.2 234.898 293.668 235.39C294.148 235.87 294.79 236.11 295.594 236.11ZM303.699 238C303.579 238 303.477 237.958 303.393 237.874C303.309 237.79 303.267 237.688 303.267 237.568V225.85C303.267 225.718 303.303 225.61 303.375 225.526C303.459 225.442 303.567 225.4 303.699 225.4H305.085C305.229 225.4 305.337 225.43 305.409 225.49C305.481 225.538 305.547 225.604 305.607 225.688L310.791 233.752V225.85C310.791 225.718 310.827 225.61 310.899 225.526C310.983 225.442 311.091 225.4 311.223 225.4H312.735C312.867 225.4 312.975 225.442 313.059 225.526C313.143 225.61 313.185 225.718 313.185 225.85V237.55C313.185 237.682 313.143 237.79 313.059 237.874C312.975 237.958 312.873 238 312.753 238H311.349C311.145 238 310.971 237.904 310.827 237.712L305.661 229.828V237.568C305.661 237.7 305.619 237.808 305.535 237.892C305.451 237.964 305.343 238 305.211 238H303.699ZM320.539 238C320.419 238 320.317 237.958 320.233 237.874C320.149 237.79 320.107 237.688 320.107 237.568V225.85C320.107 225.718 320.143 225.61 320.215 225.526C320.299 225.442 320.407 225.4 320.539 225.4H324.931C328.459 225.4 330.259 227.032 330.331 230.296C330.355 230.992 330.367 231.46 330.367 231.7C330.367 231.928 330.355 232.39 330.331 233.086C330.283 234.766 329.833 236.008 328.981 236.812C328.129 237.604 326.809 238 325.021 238H320.539ZM324.931 235.93C325.939 235.93 326.665 235.708 327.109 235.264C327.553 234.808 327.787 234.064 327.811 233.032C327.835 232.312 327.847 231.862 327.847 231.682C327.847 231.49 327.835 231.046 327.811 230.35C327.787 229.366 327.535 228.64 327.055 228.172C326.587 227.704 325.849 227.47 324.841 227.47H322.609V235.93H324.931ZM333.195 238C333.075 238 332.973 237.958 332.889 237.874C332.805 237.79 332.763 237.688 332.763 237.568V225.85C332.763 225.718 332.799 225.61 332.871 225.526C332.955 225.442 333.063 225.4 333.195 225.4H341.115C341.247 225.4 341.355 225.442 341.439 225.526C341.523 225.61 341.565 225.718 341.565 225.85V227.038C341.565 227.17 341.523 227.278 341.439 227.362C341.355 227.434 341.247 227.47 341.115 227.47H335.193V230.656H340.719C340.851 230.656 340.959 230.698 341.043 230.782C341.127 230.854 341.169 230.956 341.169 231.088V232.204C341.169 232.336 341.127 232.444 341.043 232.528C340.959 232.6 340.851 232.636 340.719 232.636H335.193V235.93H341.259C341.391 235.93 341.499 235.972 341.583 236.056C341.667 236.14 341.709 236.248 341.709 236.38V237.568C341.709 237.7 341.667 237.808 341.583 237.892C341.499 237.964 341.391 238 341.259 238H333.195ZM348.335 238.18C347.267 238.18 346.349 238.018 345.581 237.694C344.813 237.37 344.231 236.944 343.835 236.416C343.439 235.888 343.229 235.318 343.205 234.706C343.205 234.598 343.241 234.508 343.313 234.436C343.385 234.364 343.475 234.328 343.583 234.328H345.185C345.329 234.328 345.437 234.358 345.509 234.418C345.593 234.466 345.671 234.55 345.743 234.67C345.863 235.078 346.139 235.42 346.571 235.696C347.003 235.972 347.591 236.11 348.335 236.11C349.187 236.11 349.829 235.972 350.261 235.696C350.693 235.408 350.909 235.012 350.909 234.508C350.909 234.172 350.795 233.896 350.567 233.68C350.351 233.464 350.021 233.278 349.577 233.122C349.145 232.966 348.497 232.774 347.633 232.546C346.217 232.21 345.179 231.766 344.519 231.214C343.871 230.65 343.547 229.852 343.547 228.82C343.547 228.124 343.733 227.506 344.105 226.966C344.489 226.426 345.035 226 345.743 225.688C346.463 225.376 347.297 225.22 348.245 225.22C349.229 225.22 350.081 225.394 350.801 225.742C351.521 226.09 352.067 226.528 352.439 227.056C352.823 227.572 353.027 228.088 353.051 228.604C353.051 228.712 353.015 228.802 352.943 228.874C352.871 228.946 352.781 228.982 352.673 228.982H350.999C350.747 228.982 350.573 228.868 350.477 228.64C350.405 228.256 350.165 227.938 349.757 227.686C349.349 227.422 348.845 227.29 348.245 227.29C347.573 227.29 347.045 227.416 346.661 227.668C346.277 227.92 346.085 228.286 346.085 228.766C346.085 229.102 346.181 229.378 346.373 229.594C346.565 229.81 346.865 230.002 347.273 230.17C347.693 230.338 348.293 230.524 349.073 230.728C350.129 230.968 350.969 231.238 351.593 231.538C352.229 231.838 352.697 232.216 352.997 232.672C353.297 233.128 353.447 233.71 353.447 234.418C353.447 235.186 353.231 235.858 352.799 236.434C352.379 236.998 351.779 237.43 350.999 237.73C350.231 238.03 349.343 238.18 348.335 238.18ZM360.055 238C359.935 238 359.833 237.958 359.749 237.874C359.665 237.79 359.623 237.688 359.623 237.568V225.85C359.623 225.718 359.659 225.61 359.731 225.526C359.815 225.442 359.923 225.4 360.055 225.4H367.975C368.107 225.4 368.215 225.442 368.299 225.526C368.383 225.61 368.425 225.718 368.425 225.85V227.038C368.425 227.17 368.383 227.278 368.299 227.362C368.215 227.434 368.107 227.47 367.975 227.47H362.053V230.656H367.579C367.711 230.656 367.819 230.698 367.903 230.782C367.987 230.854 368.029 230.956 368.029 231.088V232.204C368.029 232.336 367.987 232.444 367.903 232.528C367.819 232.6 367.711 232.636 367.579 232.636H362.053V235.93H368.119C368.251 235.93 368.359 235.972 368.443 236.056C368.527 236.14 368.569 236.248 368.569 236.38V237.568C368.569 237.7 368.527 237.808 368.443 237.892C368.359 237.964 368.251 238 368.119 238H360.055ZM378.797 239.17C378.653 239.17 378.527 239.128 378.419 239.044C378.323 238.972 378.233 238.876 378.149 238.756L377.483 237.856C376.931 238.072 376.289 238.18 375.557 238.18C373.925 238.18 372.653 237.766 371.741 236.938C370.829 236.11 370.343 234.88 370.283 233.248C370.271 232.9 370.265 232.39 370.265 231.718C370.265 231.034 370.271 230.518 370.283 230.17C370.331 228.574 370.823 227.35 371.759 226.498C372.707 225.646 373.973 225.22 375.557 225.22C377.141 225.22 378.401 225.646 379.337 226.498C380.273 227.35 380.765 228.574 380.813 230.17C380.837 230.866 380.849 231.382 380.849 231.718C380.849 232.042 380.837 232.552 380.813 233.248C380.765 234.808 380.333 236.002 379.517 236.83L380.777 238.612C380.813 238.684 380.831 238.744 380.831 238.792V238.828C380.831 238.924 380.795 239.002 380.723 239.062C380.651 239.134 380.567 239.17 380.471 239.17H378.797ZM375.557 236.11C376.361 236.11 376.997 235.87 377.465 235.39C377.945 234.898 378.203 234.154 378.239 233.158C378.263 232.438 378.275 231.952 378.275 231.7C378.275 231.424 378.263 230.938 378.239 230.242C378.203 229.246 377.945 228.508 377.465 228.028C376.985 227.536 376.349 227.29 375.557 227.29C374.753 227.29 374.111 227.536 373.631 228.028C373.151 228.508 372.893 229.246 372.857 230.242C372.845 230.59 372.839 231.076 372.839 231.7C372.839 232.312 372.845 232.798 372.857 233.158C372.893 234.154 373.151 234.898 373.631 235.39C374.111 235.87 374.753 236.11 375.557 236.11ZM388.252 238.18C386.632 238.18 385.372 237.766 384.472 236.938C383.572 236.11 383.122 234.856 383.122 233.176V225.85C383.122 225.718 383.158 225.61 383.23 225.526C383.314 225.442 383.422 225.4 383.554 225.4H385.192C385.324 225.4 385.426 225.442 385.498 225.526C385.582 225.61 385.624 225.718 385.624 225.85V233.176C385.624 234.136 385.852 234.862 386.308 235.354C386.764 235.834 387.412 236.074 388.252 236.074C389.092 236.074 389.734 235.834 390.178 235.354C390.634 234.862 390.862 234.136 390.862 233.176V225.85C390.862 225.718 390.904 225.61 390.988 225.526C391.072 225.442 391.18 225.4 391.312 225.4H392.932C393.064 225.4 393.166 225.442 393.238 225.526C393.322 225.61 393.364 225.718 393.364 225.85V233.176C393.364 234.856 392.914 236.11 392.014 236.938C391.126 237.766 389.872 238.18 388.252 238.18ZM396.494 238C396.374 238 396.272 237.958 396.188 237.874C396.104 237.79 396.062 237.688 396.062 237.568V225.832C396.062 225.7 396.104 225.598 396.188 225.526C396.272 225.442 396.374 225.4 396.494 225.4H398.186C398.318 225.4 398.42 225.442 398.492 225.526C398.576 225.598 398.618 225.7 398.618 225.832V237.568C398.618 237.688 398.576 237.79 398.492 237.874C398.42 237.958 398.318 238 398.186 238H396.494ZM401.873 238C401.753 238 401.651 237.958 401.567 237.874C401.483 237.79 401.441 237.688 401.441 237.568V225.85C401.441 225.718 401.477 225.61 401.549 225.526C401.633 225.442 401.741 225.4 401.873 225.4H406.697C408.137 225.4 409.271 225.742 410.099 226.426C410.927 227.098 411.341 228.088 411.341 229.396C411.341 230.704 410.927 231.694 410.099 232.366C409.283 233.026 408.149 233.356 406.697 233.356H404.015V237.568C404.015 237.688 403.973 237.79 403.889 237.874C403.817 237.958 403.715 238 403.583 238H401.873ZM406.607 231.358C407.303 231.358 407.837 231.196 408.209 230.872C408.581 230.536 408.767 230.044 408.767 229.396C408.767 228.772 408.587 228.286 408.227 227.938C407.867 227.578 407.327 227.398 406.607 227.398H403.979V231.358H406.607ZM413.738 238C413.618 238 413.516 237.958 413.432 237.874C413.348 237.79 413.306 237.688 413.306 237.568V225.85C413.306 225.718 413.342 225.61 413.414 225.526C413.498 225.442 413.606 225.4 413.738 225.4H421.658C421.79 225.4 421.898 225.442 421.982 225.526C422.066 225.61 422.108 225.718 422.108 225.85V227.038C422.108 227.17 422.066 227.278 421.982 227.362C421.898 227.434 421.79 227.47 421.658 227.47H415.736V230.656H421.262C421.394 230.656 421.502 230.698 421.586 230.782C421.67 230.854 421.712 230.956 421.712 231.088V232.204C421.712 232.336 421.67 232.444 421.586 232.528C421.502 232.6 421.394 232.636 421.262 232.636H415.736V235.93H421.802C421.934 235.93 422.042 235.972 422.126 236.056C422.21 236.14 422.252 236.248 422.252 236.38V237.568C422.252 237.7 422.21 237.808 422.126 237.892C422.042 237.964 421.934 238 421.802 238H413.738ZM428.878 238.18C427.81 238.18 426.892 238.018 426.124 237.694C425.356 237.37 424.774 236.944 424.378 236.416C423.982 235.888 423.772 235.318 423.748 234.706C423.748 234.598 423.784 234.508 423.856 234.436C423.928 234.364 424.018 234.328 424.126 234.328H425.728C425.872 234.328 425.98 234.358 426.052 234.418C426.136 234.466 426.214 234.55 426.286 234.67C426.406 235.078 426.682 235.42 427.114 235.696C427.546 235.972 428.134 236.11 428.878 236.11C429.73 236.11 430.372 235.972 430.804 235.696C431.236 235.408 431.452 235.012 431.452 234.508C431.452 234.172 431.338 233.896 431.11 233.68C430.894 233.464 430.564 233.278 430.12 233.122C429.688 232.966 429.04 232.774 428.176 232.546C426.76 232.21 425.722 231.766 425.062 231.214C424.414 230.65 424.09 229.852 424.09 228.82C424.09 228.124 424.276 227.506 424.648 226.966C425.032 226.426 425.578 226 426.286 225.688C427.006 225.376 427.84 225.22 428.788 225.22C429.772 225.22 430.624 225.394 431.344 225.742C432.064 226.09 432.61 226.528 432.982 227.056C433.366 227.572 433.57 228.088 433.594 228.604C433.594 228.712 433.558 228.802 433.486 228.874C433.414 228.946 433.324 228.982 433.216 228.982H431.542C431.29 228.982 431.116 228.868 431.02 228.64C430.948 228.256 430.708 227.938 430.3 227.686C429.892 227.422 429.388 227.29 428.788 227.29C428.116 227.29 427.588 227.416 427.204 227.668C426.82 227.92 426.628 228.286 426.628 228.766C426.628 229.102 426.724 229.378 426.916 229.594C427.108 229.81 427.408 230.002 427.816 230.17C428.236 230.338 428.836 230.524 429.616 230.728C430.672 230.968 431.512 231.238 432.136 231.538C432.772 231.838 433.24 232.216 433.54 232.672C433.84 233.128 433.99 233.71 433.99 234.418C433.99 235.186 433.774 235.858 433.342 236.434C432.922 236.998 432.322 237.43 431.542 237.73C430.774 238.03 429.886 238.18 428.878 238.18Z" fill="#F9B131"/>
<path d="M200.289 101.711C200.289 102.263 200.737 102.711 201.289 102.711L210.289 102.711C210.842 102.711 211.289 102.263 211.289 101.711C211.289 101.158 210.842 100.711 210.289 100.711H202.289V92.7107C202.289 92.1584 201.842 91.7107 201.289 91.7107C200.737 91.7107 200.289 92.1584 200.289 92.7107L200.289 101.711ZM271.293 30.2929L200.582 101.004L201.996 102.418L272.707 31.7071L271.293 30.2929Z" fill="black"/>
<path d="M424.711 102.711C425.263 102.711 425.711 102.263 425.711 101.711L425.711 92.7107C425.711 92.1584 425.263 91.7107 424.711 91.7107C424.158 91.7107 423.711 92.1584 423.711 92.7107V100.711H415.711C415.158 100.711 414.711 101.158 414.711 101.711C414.711 102.263 415.158 102.711 415.711 102.711L424.711 102.711ZM353.293 31.7071L424.004 102.418L425.418 101.004L354.707 30.2929L353.293 31.7071Z" fill="black"/>
<path d="M312.293 102.707C312.683 103.098 313.317 103.098 313.707 102.707L320.071 96.3431C320.462 95.9526 320.462 95.3195 320.071 94.9289C319.681 94.5384 319.047 94.5384 318.657 94.9289L313 100.586L307.343 94.9289C306.953 94.5384 306.319 94.5384 305.929 94.9289C305.538 95.3195 305.538 95.9526 305.929 96.3431L312.293 102.707ZM312 31V102H314V31H312Z" fill="black"/>
<path d="M312.293 211.707C312.683 212.098 313.317 212.098 313.707 211.707L320.071 205.343C320.462 204.953 320.462 204.319 320.071 203.929C319.681 203.538 319.047 203.538 318.657 203.929L313 209.586L307.343 203.929C306.953 203.538 306.319 203.538 305.929 203.929C305.538 204.319 305.538 204.953 305.929 205.343L312.293 211.707ZM312 140V211H314V140H312Z" fill="black"/>
<path d="M243.922 126C243.822 126 243.737 125.97 243.667 125.91C243.607 125.84 243.577 125.755 243.577 125.655V115.86C243.577 115.75 243.607 115.665 243.667 115.605C243.737 115.535 243.822 115.5 243.922 115.5H247.327C248.837 115.5 249.927 115.84 250.597 116.52C251.267 117.19 251.617 118.205 251.647 119.565C251.657 119.855 251.662 120.245 251.662 120.735C251.662 121.225 251.657 121.62 251.647 121.92C251.617 122.87 251.457 123.645 251.167 124.245C250.887 124.835 250.442 125.275 249.832 125.565C249.222 125.855 248.412 126 247.402 126H243.922ZM247.327 124.725C248.017 124.725 248.562 124.63 248.962 124.44C249.372 124.25 249.667 123.95 249.847 123.54C250.037 123.12 250.142 122.56 250.162 121.86C250.182 121.26 250.192 120.885 250.192 120.735C250.192 120.575 250.182 120.205 250.162 119.625C250.142 118.635 249.907 117.915 249.457 117.465C249.007 117.005 248.272 116.775 247.252 116.775H245.047V124.725H247.327ZM256.844 126.15C255.814 126.15 254.989 125.835 254.369 125.205C253.759 124.565 253.424 123.695 253.364 122.595L253.349 122.085L253.364 121.59C253.434 120.51 253.774 119.65 254.384 119.01C255.004 118.37 255.819 118.05 256.829 118.05C257.939 118.05 258.799 118.405 259.409 119.115C260.019 119.815 260.324 120.765 260.324 121.965V122.22C260.324 122.32 260.289 122.405 260.219 122.475C260.159 122.535 260.079 122.565 259.979 122.565H254.789V122.7C254.819 123.35 255.014 123.905 255.374 124.365C255.744 124.815 256.229 125.04 256.829 125.04C257.289 125.04 257.664 124.95 257.954 124.77C258.254 124.58 258.474 124.385 258.614 124.185C258.704 124.065 258.769 123.995 258.809 123.975C258.859 123.945 258.944 123.93 259.064 123.93H259.799C259.889 123.93 259.964 123.955 260.024 124.005C260.084 124.055 260.114 124.125 260.114 124.215C260.114 124.435 259.974 124.7 259.694 125.01C259.424 125.32 259.039 125.59 258.539 125.82C258.049 126.04 257.484 126.15 256.844 126.15ZM258.899 121.53V121.485C258.899 120.795 258.709 120.235 258.329 119.805C257.959 119.365 257.459 119.145 256.829 119.145C256.199 119.145 255.699 119.365 255.329 119.805C254.969 120.235 254.789 120.795 254.789 121.485V121.53H258.899ZM256.424 117.075C256.264 117.075 256.184 116.995 256.184 116.835C256.184 116.755 256.209 116.69 256.259 116.64L257.384 115.29C257.484 115.18 257.564 115.105 257.624 115.065C257.694 115.025 257.799 115.005 257.939 115.005H258.959C259.049 115.005 259.119 115.035 259.169 115.095C259.219 115.145 259.244 115.215 259.244 115.305C259.244 115.375 259.219 115.435 259.169 115.485L257.429 116.91C257.349 116.98 257.274 117.025 257.204 117.045C257.134 117.065 257.044 117.075 256.934 117.075H256.424ZM264.569 126C264.309 126 264.124 125.875 264.014 125.625L261.239 118.665L261.209 118.515C261.209 118.425 261.239 118.35 261.299 118.29C261.359 118.23 261.434 118.2 261.524 118.2H262.244C262.414 118.2 262.539 118.285 262.619 118.455L264.899 124.365L267.179 118.455C267.269 118.285 267.389 118.2 267.539 118.2H268.274C268.354 118.2 268.424 118.23 268.484 118.29C268.554 118.35 268.589 118.425 268.589 118.515L268.559 118.665L265.769 125.625C265.659 125.875 265.474 126 265.214 126H264.569ZM273.001 126.15C271.971 126.15 271.146 125.835 270.526 125.205C269.916 124.565 269.581 123.695 269.521 122.595L269.506 122.085L269.521 121.59C269.591 120.51 269.931 119.65 270.541 119.01C271.161 118.37 271.976 118.05 272.986 118.05C274.096 118.05 274.956 118.405 275.566 119.115C276.176 119.815 276.481 120.765 276.481 121.965V122.22C276.481 122.32 276.446 122.405 276.376 122.475C276.316 122.535 276.236 122.565 276.136 122.565H270.946V122.7C270.976 123.35 271.171 123.905 271.531 124.365C271.901 124.815 272.386 125.04 272.986 125.04C273.446 125.04 273.821 124.95 274.111 124.77C274.411 124.58 274.631 124.385 274.771 124.185C274.861 124.065 274.926 123.995 274.966 123.975C275.016 123.945 275.101 123.93 275.221 123.93H275.956C276.046 123.93 276.121 123.955 276.181 124.005C276.241 124.055 276.271 124.125 276.271 124.215C276.271 124.435 276.131 124.7 275.851 125.01C275.581 125.32 275.196 125.59 274.696 125.82C274.206 126.04 273.641 126.15 273.001 126.15ZM275.056 121.53V121.485C275.056 120.795 274.866 120.235 274.486 119.805C274.116 119.365 273.616 119.145 272.986 119.145C272.356 119.145 271.856 119.365 271.486 119.805C271.126 120.235 270.946 120.795 270.946 121.485V121.53H275.056ZM278.635 126C278.535 126 278.45 125.97 278.38 125.91C278.32 125.84 278.29 125.755 278.29 125.655V115.695C278.29 115.595 278.32 115.515 278.38 115.455C278.45 115.385 278.535 115.35 278.635 115.35H279.34C279.44 115.35 279.52 115.385 279.58 115.455C279.65 115.515 279.685 115.595 279.685 115.695V125.655C279.685 125.755 279.65 125.84 279.58 125.91C279.52 125.97 279.44 126 279.34 126H278.635ZM285.117 126.15C284.017 126.15 283.162 125.84 282.552 125.22C281.952 124.6 281.632 123.775 281.592 122.745L281.577 122.1L281.592 121.455C281.632 120.435 281.957 119.615 282.567 118.995C283.177 118.365 284.027 118.05 285.117 118.05C286.207 118.05 287.057 118.365 287.667 118.995C288.277 119.615 288.602 120.435 288.642 121.455C288.652 121.565 288.657 121.78 288.657 122.1C288.657 122.42 288.652 122.635 288.642 122.745C288.602 123.775 288.277 124.6 287.667 125.22C287.067 125.84 286.217 126.15 285.117 126.15ZM285.117 124.995C285.747 124.995 286.242 124.795 286.602 124.395C286.972 123.995 287.172 123.42 287.202 122.67C287.212 122.57 287.217 122.38 287.217 122.1C287.217 121.82 287.212 121.63 287.202 121.53C287.172 120.78 286.972 120.205 286.602 119.805C286.242 119.405 285.747 119.205 285.117 119.205C284.487 119.205 283.987 119.405 283.617 119.805C283.247 120.205 283.052 120.78 283.032 121.53L283.017 122.1L283.032 122.67C283.052 123.42 283.247 123.995 283.617 124.395C283.987 124.795 284.487 124.995 285.117 124.995ZM290.895 128.85C290.795 128.85 290.71 128.815 290.64 128.745C290.58 128.685 290.55 128.605 290.55 128.505V118.545C290.55 118.445 290.58 118.365 290.64 118.305C290.71 118.235 290.795 118.2 290.895 118.2H291.585C291.685 118.2 291.765 118.235 291.825 118.305C291.895 118.365 291.93 118.445 291.93 118.545V119.205C292.49 118.435 293.31 118.05 294.39 118.05C295.44 118.05 296.225 118.38 296.745 119.04C297.275 119.7 297.56 120.55 297.6 121.59C297.61 121.7 297.615 121.87 297.615 122.1C297.615 122.33 297.61 122.5 297.6 122.61C297.56 123.64 297.275 124.49 296.745 125.16C296.215 125.82 295.43 126.15 294.39 126.15C293.35 126.15 292.54 125.775 291.96 125.025V128.505C291.96 128.605 291.93 128.685 291.87 128.745C291.81 128.815 291.73 128.85 291.63 128.85H290.895ZM294.075 124.935C294.785 124.935 295.3 124.715 295.62 124.275C295.95 123.835 296.13 123.255 296.16 122.535C296.17 122.435 296.175 122.29 296.175 122.1C296.175 120.21 295.475 119.265 294.075 119.265C293.385 119.265 292.865 119.495 292.515 119.955C292.175 120.405 291.99 120.945 291.96 121.575L291.945 122.145L291.96 122.73C291.98 123.32 292.17 123.835 292.53 124.275C292.89 124.715 293.405 124.935 294.075 124.935ZM299.831 128.85C299.731 128.85 299.646 128.815 299.576 128.745C299.516 128.685 299.486 128.605 299.486 128.505V118.545C299.486 118.445 299.516 118.365 299.576 118.305C299.646 118.235 299.731 118.2 299.831 118.2H300.521C300.621 118.2 300.701 118.235 300.761 118.305C300.831 118.365 300.866 118.445 300.866 118.545V119.205C301.426 118.435 302.246 118.05 303.326 118.05C304.376 118.05 305.161 118.38 305.681 119.04C306.211 119.7 306.496 120.55 306.536 121.59C306.546 121.7 306.551 121.87 306.551 122.1C306.551 122.33 306.546 122.5 306.536 122.61C306.496 123.64 306.211 124.49 305.681 125.16C305.151 125.82 304.366 126.15 303.326 126.15C302.286 126.15 301.476 125.775 300.896 125.025V128.505C300.896 128.605 300.866 128.685 300.806 128.745C300.746 128.815 300.666 128.85 300.566 128.85H299.831ZM303.011 124.935C303.721 124.935 304.236 124.715 304.556 124.275C304.886 123.835 305.066 123.255 305.096 122.535C305.106 122.435 305.111 122.29 305.111 122.1C305.111 120.21 304.411 119.265 303.011 119.265C302.321 119.265 301.801 119.495 301.451 119.955C301.111 120.405 300.926 120.945 300.896 121.575L300.881 122.145L300.896 122.73C300.916 123.32 301.106 123.835 301.466 124.275C301.826 124.715 302.341 124.935 303.011 124.935ZM311.526 126.15C310.496 126.15 309.671 125.835 309.051 125.205C308.441 124.565 308.106 123.695 308.046 122.595L308.031 122.085L308.046 121.59C308.116 120.51 308.456 119.65 309.066 119.01C309.686 118.37 310.501 118.05 311.511 118.05C312.621 118.05 313.481 118.405 314.091 119.115C314.701 119.815 315.006 120.765 315.006 121.965V122.22C315.006 122.32 314.971 122.405 314.901 122.475C314.841 122.535 314.761 122.565 314.661 122.565H309.471V122.7C309.501 123.35 309.696 123.905 310.056 124.365C310.426 124.815 310.911 125.04 311.511 125.04C311.971 125.04 312.346 124.95 312.636 124.77C312.936 124.58 313.156 124.385 313.296 124.185C313.386 124.065 313.451 123.995 313.491 123.975C313.541 123.945 313.626 123.93 313.746 123.93H314.481C314.571 123.93 314.646 123.955 314.706 124.005C314.766 124.055 314.796 124.125 314.796 124.215C314.796 124.435 314.656 124.7 314.376 125.01C314.106 125.32 313.721 125.59 313.221 125.82C312.731 126.04 312.166 126.15 311.526 126.15ZM313.581 121.53V121.485C313.581 120.795 313.391 120.235 313.011 119.805C312.641 119.365 312.141 119.145 311.511 119.145C310.881 119.145 310.381 119.365 310.011 119.805C309.651 120.235 309.471 120.795 309.471 121.485V121.53H313.581ZM317.145 126C317.045 126 316.96 125.97 316.89 125.91C316.83 125.84 316.8 125.755 316.8 125.655V118.545C316.8 118.445 316.83 118.365 316.89 118.305C316.96 118.235 317.045 118.2 317.145 118.2H317.82C317.92 118.2 318 118.235 318.06 118.305C318.13 118.365 318.165 118.445 318.165 118.545V119.07C318.685 118.39 319.41 118.05 320.34 118.05C321.45 118.05 322.235 118.51 322.695 119.43C322.935 119.01 323.275 118.675 323.715 118.425C324.155 118.175 324.65 118.05 325.2 118.05C326.02 118.05 326.69 118.33 327.21 118.89C327.73 119.45 327.99 120.26 327.99 121.32V125.655C327.99 125.755 327.955 125.84 327.885 125.91C327.825 125.97 327.745 126 327.645 126H326.94C326.84 126 326.755 125.97 326.685 125.91C326.625 125.84 326.595 125.755 326.595 125.655V121.455C326.595 120.675 326.43 120.115 326.1 119.775C325.78 119.435 325.355 119.265 324.825 119.265C324.355 119.265 323.95 119.44 323.61 119.79C323.27 120.13 323.1 120.685 323.1 121.455V125.655C323.1 125.755 323.065 125.84 322.995 125.91C322.935 125.97 322.855 126 322.755 126H322.05C321.95 126 321.865 125.97 321.795 125.91C321.735 125.84 321.705 125.755 321.705 125.655V121.455C321.705 120.675 321.535 120.115 321.195 119.775C320.865 119.435 320.445 119.265 319.935 119.265C319.465 119.265 319.06 119.44 318.72 119.79C318.38 120.13 318.21 120.68 318.21 121.44V125.655C318.21 125.755 318.175 125.84 318.105 125.91C318.045 125.97 317.965 126 317.865 126H317.145ZM333.25 126.15C332.22 126.15 331.395 125.835 330.775 125.205C330.165 124.565 329.83 123.695 329.77 122.595L329.755 122.085L329.77 121.59C329.84 120.51 330.18 119.65 330.79 119.01C331.41 118.37 332.225 118.05 333.235 118.05C334.345 118.05 335.205 118.405 335.815 119.115C336.425 119.815 336.73 120.765 336.73 121.965V122.22C336.73 122.32 336.695 122.405 336.625 122.475C336.565 122.535 336.485 122.565 336.385 122.565H331.195V122.7C331.225 123.35 331.42 123.905 331.78 124.365C332.15 124.815 332.635 125.04 333.235 125.04C333.695 125.04 334.07 124.95 334.36 124.77C334.66 124.58 334.88 124.385 335.02 124.185C335.11 124.065 335.175 123.995 335.215 123.975C335.265 123.945 335.35 123.93 335.47 123.93H336.205C336.295 123.93 336.37 123.955 336.43 124.005C336.49 124.055 336.52 124.125 336.52 124.215C336.52 124.435 336.38 124.7 336.1 125.01C335.83 125.32 335.445 125.59 334.945 125.82C334.455 126.04 333.89 126.15 333.25 126.15ZM335.305 121.53V121.485C335.305 120.795 335.115 120.235 334.735 119.805C334.365 119.365 333.865 119.145 333.235 119.145C332.605 119.145 332.105 119.365 331.735 119.805C331.375 120.235 331.195 120.795 331.195 121.485V121.53H335.305ZM338.869 126C338.769 126 338.684 125.97 338.614 125.91C338.554 125.84 338.524 125.755 338.524 125.655V118.545C338.524 118.445 338.554 118.365 338.614 118.305C338.684 118.235 338.769 118.2 338.869 118.2H339.574C339.674 118.2 339.754 118.235 339.814 118.305C339.884 118.365 339.919 118.445 339.919 118.545V119.205C340.209 118.835 340.549 118.55 340.939 118.35C341.339 118.15 341.834 118.05 342.424 118.05C343.384 118.05 344.129 118.36 344.659 118.98C345.199 119.59 345.469 120.405 345.469 121.425V125.655C345.469 125.755 345.434 125.84 345.364 125.91C345.304 125.97 345.224 126 345.124 126H344.374C344.274 126 344.189 125.97 344.119 125.91C344.059 125.84 344.029 125.755 344.029 125.655V121.5C344.029 120.79 343.854 120.24 343.504 119.85C343.164 119.46 342.669 119.265 342.019 119.265C341.389 119.265 340.889 119.465 340.519 119.865C340.149 120.255 339.964 120.8 339.964 121.5V125.655C339.964 125.755 339.929 125.84 339.859 125.91C339.799 125.97 339.719 126 339.619 126H338.869ZM350.563 126C348.983 126 348.193 125.12 348.193 123.36V119.4H347.023C346.923 119.4 346.838 119.37 346.768 119.31C346.708 119.24 346.678 119.155 346.678 119.055V118.545C346.678 118.445 346.708 118.365 346.768 118.305C346.838 118.235 346.923 118.2 347.023 118.2H348.193V115.695C348.193 115.595 348.223 115.515 348.283 115.455C348.353 115.385 348.438 115.35 348.538 115.35H349.243C349.343 115.35 349.423 115.385 349.483 115.455C349.553 115.515 349.588 115.595 349.588 115.695V118.2H351.448C351.548 118.2 351.628 118.235 351.688 118.305C351.758 118.365 351.793 118.445 351.793 118.545V119.055C351.793 119.155 351.758 119.24 351.688 119.31C351.628 119.37 351.548 119.4 351.448 119.4H349.588V123.255C349.588 123.755 349.673 124.135 349.843 124.395C350.013 124.645 350.293 124.77 350.683 124.77H351.598C351.698 124.77 351.778 124.805 351.838 124.875C351.908 124.935 351.943 125.015 351.943 125.115V125.655C351.943 125.755 351.908 125.84 351.838 125.91C351.778 125.97 351.698 126 351.598 126H350.563ZM358.772 126C358.642 126 358.542 125.97 358.472 125.91C358.402 125.85 358.342 125.755 358.292 125.625L356.162 118.665L356.132 118.515C356.132 118.425 356.162 118.35 356.222 118.29C356.292 118.23 356.367 118.2 356.447 118.2H357.107C357.207 118.2 357.287 118.23 357.347 118.29C357.417 118.34 357.462 118.395 357.482 118.455L359.147 124.11L360.932 118.515C360.952 118.435 360.997 118.365 361.067 118.305C361.137 118.235 361.232 118.2 361.352 118.2H361.862C361.982 118.2 362.077 118.235 362.147 118.305C362.217 118.365 362.262 118.435 362.282 118.515L364.067 124.11L365.732 118.455C365.742 118.405 365.777 118.35 365.837 118.29C365.907 118.23 365.992 118.2 366.092 118.2H366.767C366.847 118.2 366.917 118.23 366.977 118.29C367.037 118.35 367.067 118.425 367.067 118.515L367.037 118.665L364.922 125.625C364.872 125.755 364.812 125.85 364.742 125.91C364.672 125.97 364.567 126 364.427 126H363.842C363.572 126 363.407 125.875 363.347 125.625L361.607 120.255L359.867 125.625C359.787 125.875 359.617 126 359.357 126H358.772ZM371.644 126.15C370.614 126.15 369.789 125.835 369.169 125.205C368.559 124.565 368.224 123.695 368.164 122.595L368.149 122.085L368.164 121.59C368.234 120.51 368.574 119.65 369.184 119.01C369.804 118.37 370.619 118.05 371.629 118.05C372.739 118.05 373.599 118.405 374.209 119.115C374.819 119.815 375.124 120.765 375.124 121.965V122.22C375.124 122.32 375.089 122.405 375.019 122.475C374.959 122.535 374.879 122.565 374.779 122.565H369.589V122.7C369.619 123.35 369.814 123.905 370.174 124.365C370.544 124.815 371.029 125.04 371.629 125.04C372.089 125.04 372.464 124.95 372.754 124.77C373.054 124.58 373.274 124.385 373.414 124.185C373.504 124.065 373.569 123.995 373.609 123.975C373.659 123.945 373.744 123.93 373.864 123.93H374.599C374.689 123.93 374.764 123.955 374.824 124.005C374.884 124.055 374.914 124.125 374.914 124.215C374.914 124.435 374.774 124.7 374.494 125.01C374.224 125.32 373.839 125.59 373.339 125.82C372.849 126.04 372.284 126.15 371.644 126.15ZM373.699 121.53V121.485C373.699 120.795 373.509 120.235 373.129 119.805C372.759 119.365 372.259 119.145 371.629 119.145C370.999 119.145 370.499 119.365 370.129 119.805C369.769 120.235 369.589 120.795 369.589 121.485V121.53H373.699ZM380.772 126.15C379.692 126.15 378.872 125.775 378.312 125.025V125.655C378.312 125.755 378.277 125.84 378.207 125.91C378.147 125.97 378.067 126 377.967 126H377.277C377.177 126 377.092 125.97 377.022 125.91C376.962 125.84 376.932 125.755 376.932 125.655V115.695C376.932 115.595 376.962 115.515 377.022 115.455C377.092 115.385 377.177 115.35 377.277 115.35H378.012C378.112 115.35 378.192 115.385 378.252 115.455C378.312 115.515 378.342 115.595 378.342 115.695V119.145C378.932 118.415 379.742 118.05 380.772 118.05C381.812 118.05 382.597 118.395 383.127 119.085C383.657 119.765 383.942 120.62 383.982 121.65C383.992 121.76 383.997 121.91 383.997 122.1C383.997 122.29 383.992 122.44 383.982 122.55C383.942 123.59 383.657 124.45 383.127 125.13C382.597 125.81 381.812 126.15 380.772 126.15ZM380.457 124.935C381.167 124.935 381.682 124.715 382.002 124.275C382.332 123.835 382.512 123.255 382.542 122.535C382.552 122.435 382.557 122.29 382.557 122.1C382.557 120.21 381.857 119.265 380.457 119.265C379.787 119.265 379.272 119.485 378.912 119.925C378.552 120.365 378.362 120.88 378.342 121.47L378.327 122.055L378.342 122.625C378.372 123.255 378.557 123.8 378.897 124.26C379.247 124.71 379.767 124.935 380.457 124.935Z" fill="black"/>
<path d="M143.557 126.15C142.247 126.15 141.227 125.795 140.497 125.085C139.777 124.365 139.392 123.385 139.342 122.145C139.332 121.845 139.327 121.375 139.327 120.735C139.327 120.085 139.332 119.615 139.342 119.325C139.392 118.095 139.782 117.125 140.512 116.415C141.242 115.705 142.257 115.35 143.557 115.35C144.437 115.35 145.182 115.51 145.792 115.83C146.412 116.14 146.877 116.52 147.187 116.97C147.497 117.42 147.662 117.84 147.682 118.23V118.26C147.682 118.34 147.652 118.405 147.592 118.455C147.532 118.505 147.457 118.53 147.367 118.53H146.482C146.382 118.53 146.307 118.515 146.257 118.485C146.217 118.445 146.177 118.37 146.137 118.26C145.987 117.81 145.697 117.425 145.267 117.105C144.847 116.785 144.277 116.625 143.557 116.625C142.727 116.625 142.077 116.85 141.607 117.3C141.137 117.75 140.882 118.45 140.842 119.4C140.832 119.69 140.827 120.135 140.827 120.735C140.827 121.325 140.832 121.77 140.842 122.07C140.882 123.03 141.137 123.74 141.607 124.2C142.077 124.65 142.727 124.875 143.557 124.875C144.397 124.875 145.067 124.645 145.567 124.185C146.067 123.725 146.317 123.035 146.317 122.115V121.485H144.067C143.967 121.485 143.882 121.455 143.812 121.395C143.752 121.325 143.722 121.235 143.722 121.125V120.645C143.722 120.545 143.752 120.46 143.812 120.39C143.882 120.32 143.967 120.285 144.067 120.285H147.457C147.557 120.285 147.637 120.32 147.697 120.39C147.767 120.45 147.802 120.535 147.802 120.645V122.085C147.802 122.905 147.632 123.62 147.292 124.23C146.952 124.84 146.462 125.315 145.822 125.655C145.182 125.985 144.427 126.15 143.557 126.15ZM150.092 126C149.992 126 149.907 125.97 149.837 125.91C149.777 125.84 149.747 125.755 149.747 125.655V118.56C149.747 118.46 149.777 118.375 149.837 118.305C149.907 118.235 149.992 118.2 150.092 118.2H150.782C150.882 118.2 150.967 118.235 151.037 118.305C151.107 118.375 151.142 118.46 151.142 118.56V119.22C151.552 118.54 152.252 118.2 153.242 118.2H153.827C153.927 118.2 154.007 118.235 154.067 118.305C154.137 118.365 154.172 118.445 154.172 118.545V119.16C154.172 119.26 154.137 119.34 154.067 119.4C154.007 119.46 153.927 119.49 153.827 119.49H152.927C152.387 119.49 151.962 119.65 151.652 119.97C151.342 120.28 151.187 120.705 151.187 121.245V125.655C151.187 125.755 151.152 125.84 151.082 125.91C151.012 125.97 150.927 126 150.827 126H150.092ZM157.503 126.15C157.013 126.15 156.558 126.05 156.138 125.85C155.718 125.65 155.383 125.38 155.133 125.04C154.893 124.69 154.773 124.305 154.773 123.885C154.773 123.225 155.043 122.685 155.583 122.265C156.133 121.835 156.873 121.555 157.803 121.425L160.038 121.11V120.675C160.038 119.655 159.453 119.145 158.283 119.145C157.843 119.145 157.483 119.24 157.203 119.43C156.923 119.61 156.713 119.825 156.573 120.075C156.543 120.165 156.503 120.23 156.453 120.27C156.413 120.31 156.353 120.33 156.273 120.33H155.628C155.538 120.33 155.458 120.3 155.388 120.24C155.328 120.17 155.298 120.09 155.298 120C155.308 119.76 155.418 119.49 155.628 119.19C155.848 118.88 156.183 118.615 156.633 118.395C157.083 118.165 157.638 118.05 158.298 118.05C159.418 118.05 160.223 118.315 160.713 118.845C161.203 119.365 161.448 120.015 161.448 120.795V125.655C161.448 125.755 161.413 125.84 161.343 125.91C161.283 125.97 161.203 126 161.103 126H160.413C160.313 126 160.228 125.97 160.158 125.91C160.098 125.84 160.068 125.755 160.068 125.655V125.01C159.848 125.33 159.528 125.6 159.108 125.82C158.688 126.04 158.153 126.15 157.503 126.15ZM157.818 125.025C158.468 125.025 158.998 124.815 159.408 124.395C159.828 123.965 160.038 123.35 160.038 122.55V122.13L158.298 122.385C157.588 122.485 157.053 122.655 156.693 122.895C156.333 123.125 156.153 123.42 156.153 123.78C156.153 124.18 156.318 124.49 156.648 124.71C156.978 124.92 157.368 125.025 157.818 125.025ZM163.964 128.85C163.864 128.85 163.779 128.815 163.709 128.745C163.649 128.685 163.619 128.605 163.619 128.505V118.545C163.619 118.445 163.649 118.365 163.709 118.305C163.779 118.235 163.864 118.2 163.964 118.2H164.654C164.754 118.2 164.834 118.235 164.894 118.305C164.964 118.365 164.999 118.445 164.999 118.545V119.205C165.559 118.435 166.379 118.05 167.459 118.05C168.509 118.05 169.294 118.38 169.814 119.04C170.344 119.7 170.629 120.55 170.669 121.59C170.679 121.7 170.684 121.87 170.684 122.1C170.684 122.33 170.679 122.5 170.669 122.61C170.629 123.64 170.344 124.49 169.814 125.16C169.284 125.82 168.499 126.15 167.459 126.15C166.419 126.15 165.609 125.775 165.029 125.025V128.505C165.029 128.605 164.999 128.685 164.939 128.745C164.879 128.815 164.799 128.85 164.699 128.85H163.964ZM167.144 124.935C167.854 124.935 168.369 124.715 168.689 124.275C169.019 123.835 169.199 123.255 169.229 122.535C169.239 122.435 169.244 122.29 169.244 122.1C169.244 120.21 168.544 119.265 167.144 119.265C166.454 119.265 165.934 119.495 165.584 119.955C165.244 120.405 165.059 120.945 165.029 121.575L165.014 122.145L165.029 122.73C165.049 123.32 165.239 123.835 165.599 124.275C165.959 124.715 166.474 124.935 167.144 124.935ZM172.9 126C172.8 126 172.715 125.97 172.645 125.91C172.585 125.84 172.555 125.755 172.555 125.655V115.695C172.555 115.595 172.585 115.515 172.645 115.455C172.715 115.385 172.8 115.35 172.9 115.35H173.65C173.75 115.35 173.83 115.385 173.89 115.455C173.96 115.515 173.995 115.595 173.995 115.695V119.19C174.285 118.82 174.625 118.54 175.015 118.35C175.405 118.15 175.89 118.05 176.47 118.05C177.43 118.05 178.175 118.36 178.705 118.98C179.245 119.59 179.515 120.405 179.515 121.425V125.655C179.515 125.755 179.48 125.84 179.41 125.91C179.35 125.97 179.27 126 179.17 126H178.42C178.32 126 178.235 125.97 178.165 125.91C178.105 125.84 178.075 125.755 178.075 125.655V121.5C178.075 120.79 177.9 120.24 177.55 119.85C177.21 119.46 176.715 119.265 176.065 119.265C175.435 119.265 174.93 119.465 174.55 119.865C174.18 120.255 173.995 120.8 173.995 121.5V125.655C173.995 125.755 173.96 125.84 173.89 125.91C173.83 125.97 173.75 126 173.65 126H172.9ZM181.905 116.745C181.805 116.745 181.72 116.715 181.65 116.655C181.59 116.585 181.56 116.5 181.56 116.4V115.59C181.56 115.49 181.59 115.405 181.65 115.335C181.72 115.265 181.805 115.23 181.905 115.23H182.85C182.95 115.23 183.035 115.265 183.105 115.335C183.175 115.405 183.21 115.49 183.21 115.59V116.4C183.21 116.5 183.175 116.585 183.105 116.655C183.035 116.715 182.95 116.745 182.85 116.745H181.905ZM182.025 126C181.925 126 181.84 125.97 181.77 125.91C181.71 125.84 181.68 125.755 181.68 125.655V118.545C181.68 118.445 181.71 118.365 181.77 118.305C181.84 118.235 181.925 118.2 182.025 118.2H182.745C182.845 118.2 182.925 118.235 182.985 118.305C183.055 118.365 183.09 118.445 183.09 118.545V125.655C183.09 125.755 183.055 125.84 182.985 125.91C182.925 125.97 182.845 126 182.745 126H182.025ZM188.013 126.15C187.313 126.15 186.723 126.04 186.243 125.82C185.773 125.59 185.418 125.33 185.178 125.04C184.948 124.75 184.833 124.51 184.833 124.32C184.833 124.22 184.868 124.145 184.938 124.095C185.018 124.035 185.098 124.005 185.178 124.005H185.853C185.953 124.005 186.043 124.055 186.123 124.155C186.363 124.435 186.623 124.655 186.903 124.815C187.183 124.975 187.558 125.055 188.028 125.055C188.548 125.055 188.968 124.955 189.288 124.755C189.618 124.545 189.783 124.26 189.783 123.9C189.783 123.66 189.713 123.465 189.573 123.315C189.443 123.155 189.213 123.02 188.883 122.91C188.563 122.79 188.083 122.66 187.443 122.52C186.573 122.33 185.953 122.055 185.583 121.695C185.223 121.335 185.043 120.87 185.043 120.3C185.043 119.92 185.153 119.56 185.373 119.22C185.603 118.87 185.933 118.59 186.363 118.38C186.803 118.16 187.328 118.05 187.938 118.05C188.578 118.05 189.123 118.155 189.573 118.365C190.023 118.575 190.358 118.825 190.578 119.115C190.808 119.395 190.923 119.63 190.923 119.82C190.923 119.91 190.888 119.985 190.818 120.045C190.758 120.105 190.683 120.135 190.593 120.135H189.963C189.843 120.135 189.743 120.085 189.663 119.985C189.503 119.795 189.363 119.65 189.243 119.55C189.133 119.44 188.968 119.345 188.748 119.265C188.538 119.185 188.268 119.145 187.938 119.145C187.458 119.145 187.088 119.25 186.828 119.46C186.568 119.66 186.438 119.925 186.438 120.255C186.438 120.465 186.493 120.645 186.603 120.795C186.713 120.935 186.923 121.065 187.233 121.185C187.553 121.305 188.013 121.43 188.613 121.56C189.563 121.76 190.233 122.05 190.623 122.43C191.023 122.8 191.223 123.275 191.223 123.855C191.223 124.285 191.098 124.675 190.848 125.025C190.598 125.375 190.228 125.65 189.738 125.85C189.258 126.05 188.683 126.15 188.013 126.15ZM193.305 126C193.205 126 193.12 125.97 193.05 125.91C192.99 125.84 192.96 125.755 192.96 125.655V118.545C192.96 118.445 192.99 118.365 193.05 118.305C193.12 118.235 193.205 118.2 193.305 118.2H193.98C194.08 118.2 194.16 118.235 194.22 118.305C194.29 118.365 194.325 118.445 194.325 118.545V119.07C194.845 118.39 195.57 118.05 196.5 118.05C197.61 118.05 198.395 118.51 198.855 119.43C199.095 119.01 199.435 118.675 199.875 118.425C200.315 118.175 200.81 118.05 201.36 118.05C202.18 118.05 202.85 118.33 203.37 118.89C203.89 119.45 204.15 120.26 204.15 121.32V125.655C204.15 125.755 204.115 125.84 204.045 125.91C203.985 125.97 203.905 126 203.805 126H203.1C203 126 202.915 125.97 202.845 125.91C202.785 125.84 202.755 125.755 202.755 125.655V121.455C202.755 120.675 202.59 120.115 202.26 119.775C201.94 119.435 201.515 119.265 200.985 119.265C200.515 119.265 200.11 119.44 199.77 119.79C199.43 120.13 199.26 120.685 199.26 121.455V125.655C199.26 125.755 199.225 125.84 199.155 125.91C199.095 125.97 199.015 126 198.915 126H198.21C198.11 126 198.025 125.97 197.955 125.91C197.895 125.84 197.865 125.755 197.865 125.655V121.455C197.865 120.675 197.695 120.115 197.355 119.775C197.025 119.435 196.605 119.265 196.095 119.265C195.625 119.265 195.22 119.44 194.88 119.79C194.54 120.13 194.37 120.68 194.37 121.44V125.655C194.37 125.755 194.335 125.84 194.265 125.91C194.205 125.97 194.125 126 194.025 126H193.305ZM209.41 126.15C208.38 126.15 207.555 125.835 206.935 125.205C206.325 124.565 205.99 123.695 205.93 122.595L205.915 122.085L205.93 121.59C206 120.51 206.34 119.65 206.95 119.01C207.57 118.37 208.385 118.05 209.395 118.05C210.505 118.05 211.365 118.405 211.975 119.115C212.585 119.815 212.89 120.765 212.89 121.965V122.22C212.89 122.32 212.855 122.405 212.785 122.475C212.725 122.535 212.645 122.565 212.545 122.565H207.355V122.7C207.385 123.35 207.58 123.905 207.94 124.365C208.31 124.815 208.795 125.04 209.395 125.04C209.855 125.04 210.23 124.95 210.52 124.77C210.82 124.58 211.04 124.385 211.18 124.185C211.27 124.065 211.335 123.995 211.375 123.975C211.425 123.945 211.51 123.93 211.63 123.93H212.365C212.455 123.93 212.53 123.955 212.59 124.005C212.65 124.055 212.68 124.125 212.68 124.215C212.68 124.435 212.54 124.7 212.26 125.01C211.99 125.32 211.605 125.59 211.105 125.82C210.615 126.04 210.05 126.15 209.41 126.15ZM211.465 121.53V121.485C211.465 120.795 211.275 120.235 210.895 119.805C210.525 119.365 210.025 119.145 209.395 119.145C208.765 119.145 208.265 119.365 207.895 119.805C207.535 120.235 207.355 120.795 207.355 121.485V121.53H211.465Z" fill="#c9c9b6"/>
</svg>
