<svg width="600" height="102" viewBox="0 0 600 102" fill="none" xmlns="http://www.w3.org/2000/svg">
<path d="M260.737 98.18C259.081 98.18 257.797 97.754 256.885 96.902C255.985 96.05 255.505 94.85 255.445 93.302C255.433 92.978 255.427 92.45 255.427 91.718C255.427 90.974 255.433 90.434 255.445 90.098C255.505 88.562 255.991 87.368 256.903 86.516C257.827 85.652 259.105 85.22 260.737 85.22C261.805 85.22 262.735 85.406 263.527 85.778C264.319 86.138 264.931 86.636 265.363 87.272C265.795 87.896 266.023 88.604 266.047 89.396V89.432C266.047 89.528 266.005 89.612 265.921 89.684C265.849 89.744 265.765 89.774 265.669 89.774H263.959C263.815 89.774 263.707 89.744 263.635 89.684C263.563 89.624 263.503 89.51 263.455 89.342C263.263 88.586 262.945 88.058 262.501 87.758C262.057 87.446 261.463 87.29 260.719 87.29C258.991 87.29 258.091 88.256 258.019 90.188C258.007 90.512 258.001 91.01 258.001 91.682C258.001 92.354 258.007 92.864 258.019 93.212C258.091 95.144 258.991 96.11 260.719 96.11C261.463 96.11 262.057 95.954 262.501 95.642C262.957 95.33 263.275 94.802 263.455 94.058C263.491 93.89 263.545 93.776 263.617 93.716C263.701 93.656 263.815 93.626 263.959 93.626H265.669C265.777 93.626 265.867 93.662 265.939 93.734C266.023 93.806 266.059 93.896 266.047 94.004C266.023 94.796 265.795 95.51 265.363 96.146C264.931 96.77 264.319 97.268 263.527 97.64C262.735 98 261.805 98.18 260.737 98.18ZM268.613 98C268.493 98 268.391 97.958 268.307 97.874C268.223 97.79 268.181 97.688 268.181 97.568V85.85C268.181 85.718 268.217 85.61 268.289 85.526C268.373 85.442 268.481 85.4 268.613 85.4H270.251C270.383 85.4 270.485 85.442 270.557 85.526C270.641 85.61 270.683 85.718 270.683 85.85V90.494H275.993V85.85C275.993 85.718 276.029 85.61 276.101 85.526C276.185 85.442 276.293 85.4 276.425 85.4H278.045C278.177 85.4 278.285 85.442 278.369 85.526C278.453 85.61 278.495 85.718 278.495 85.85V97.568C278.495 97.7 278.453 97.808 278.369 97.892C278.285 97.964 278.177 98 278.045 98H276.425C276.305 98 276.203 97.958 276.119 97.874C276.035 97.79 275.993 97.688 275.993 97.568V92.744H270.683V97.568C270.683 97.688 270.641 97.79 270.557 97.874C270.485 97.958 270.383 98 270.251 98H268.613ZM280.521 98C280.425 98 280.335 97.964 280.251 97.892C280.179 97.82 280.143 97.73 280.143 97.622L280.179 97.46L284.517 85.85C284.601 85.55 284.811 85.4 285.147 85.4H287.109C287.421 85.4 287.631 85.55 287.739 85.85L292.077 97.46C292.089 97.496 292.095 97.55 292.095 97.622C292.095 97.73 292.059 97.82 291.987 97.892C291.915 97.964 291.831 98 291.735 98H290.169C290.013 98 289.893 97.964 289.809 97.892C289.725 97.82 289.671 97.742 289.647 97.658L288.801 95.462H283.455L282.609 97.658C282.513 97.886 282.339 98 282.087 98H280.521ZM288.171 93.392L286.119 87.83L284.085 93.392H288.171ZM294.207 98C294.087 98 293.985 97.958 293.901 97.874C293.817 97.79 293.775 97.688 293.775 97.568V85.832C293.775 85.7 293.817 85.598 293.901 85.526C293.985 85.442 294.087 85.4 294.207 85.4H295.881C296.013 85.4 296.115 85.442 296.187 85.526C296.271 85.598 296.313 85.7 296.313 85.832V95.858H302.019C302.151 95.858 302.259 95.9 302.343 95.984C302.427 96.068 302.469 96.176 302.469 96.308V97.568C302.469 97.7 302.427 97.808 302.343 97.892C302.259 97.964 302.151 98 302.019 98H294.207ZM304.649 98C304.529 98 304.427 97.958 304.343 97.874C304.259 97.79 304.217 97.688 304.217 97.568V85.832C304.217 85.7 304.259 85.598 304.343 85.526C304.427 85.442 304.529 85.4 304.649 85.4H306.323C306.455 85.4 306.557 85.442 306.629 85.526C306.713 85.598 306.755 85.7 306.755 85.832V95.858H312.461C312.593 95.858 312.701 95.9 312.785 95.984C312.869 96.068 312.911 96.176 312.911 96.308V97.568C312.911 97.7 312.869 97.808 312.785 97.892C312.701 97.964 312.593 98 312.461 98H304.649ZM315.09 98C314.97 98 314.868 97.958 314.784 97.874C314.7 97.79 314.658 97.688 314.658 97.568V85.85C314.658 85.718 314.694 85.61 314.766 85.526C314.85 85.442 314.958 85.4 315.09 85.4H323.01C323.142 85.4 323.25 85.442 323.334 85.526C323.418 85.61 323.46 85.718 323.46 85.85V87.038C323.46 87.17 323.418 87.278 323.334 87.362C323.25 87.434 323.142 87.47 323.01 87.47H317.088V90.656H322.614C322.746 90.656 322.854 90.698 322.938 90.782C323.022 90.854 323.064 90.956 323.064 91.088V92.204C323.064 92.336 323.022 92.444 322.938 92.528C322.854 92.6 322.746 92.636 322.614 92.636H317.088V95.93H323.154C323.286 95.93 323.394 95.972 323.478 96.056C323.562 96.14 323.604 96.248 323.604 96.38V97.568C323.604 97.7 323.562 97.808 323.478 97.892C323.394 97.964 323.286 98 323.154 98H315.09ZM326.287 98C326.167 98 326.065 97.958 325.981 97.874C325.897 97.79 325.855 97.688 325.855 97.568V85.85C325.855 85.718 325.891 85.61 325.963 85.526C326.047 85.442 326.155 85.4 326.287 85.4H327.673C327.817 85.4 327.925 85.43 327.997 85.49C328.069 85.538 328.135 85.604 328.195 85.688L333.379 93.752V85.85C333.379 85.718 333.415 85.61 333.487 85.526C333.571 85.442 333.679 85.4 333.811 85.4H335.323C335.455 85.4 335.563 85.442 335.647 85.526C335.731 85.61 335.773 85.718 335.773 85.85V97.55C335.773 97.682 335.731 97.79 335.647 97.874C335.563 97.958 335.461 98 335.341 98H333.937C333.733 98 333.559 97.904 333.415 97.712L328.249 89.828V97.568C328.249 97.7 328.207 97.808 328.123 97.892C328.039 97.964 327.931 98 327.799 98H326.287ZM343.478 98.18C341.834 98.18 340.55 97.754 339.626 96.902C338.714 96.05 338.228 94.862 338.168 93.338C338.156 92.99 338.15 92.432 338.15 91.664C338.15 90.896 338.156 90.338 338.168 89.99C338.228 88.502 338.72 87.338 339.644 86.498C340.58 85.646 341.858 85.22 343.478 85.22C344.582 85.22 345.53 85.406 346.322 85.778C347.114 86.15 347.714 86.618 348.122 87.182C348.53 87.734 348.746 88.28 348.77 88.82V88.856C348.77 88.952 348.734 89.036 348.662 89.108C348.59 89.168 348.5 89.198 348.392 89.198H346.538C346.418 89.198 346.328 89.18 346.268 89.144C346.208 89.096 346.154 89.018 346.106 88.91C345.938 88.466 345.644 88.088 345.224 87.776C344.804 87.452 344.222 87.29 343.478 87.29C342.638 87.29 341.978 87.518 341.498 87.974C341.03 88.43 340.778 89.132 340.742 90.08C340.73 90.428 340.724 90.956 340.724 91.664C340.724 92.36 340.73 92.888 340.742 93.248C340.814 95.156 341.738 96.11 343.514 96.11C344.366 96.11 345.05 95.882 345.566 95.426C346.082 94.958 346.34 94.268 346.34 93.356V92.798H344.144C344.012 92.798 343.904 92.756 343.82 92.672C343.748 92.588 343.712 92.48 343.712 92.348V91.394C343.712 91.262 343.748 91.154 343.82 91.07C343.904 90.986 344.012 90.944 344.144 90.944H348.446C348.578 90.944 348.68 90.986 348.752 91.07C348.836 91.154 348.878 91.262 348.878 91.394V93.284C348.878 94.28 348.656 95.15 348.212 95.894C347.78 96.626 347.156 97.19 346.34 97.586C345.524 97.982 344.57 98.18 343.478 98.18ZM351.617 98C351.497 98 351.395 97.958 351.311 97.874C351.227 97.79 351.185 97.688 351.185 97.568V85.85C351.185 85.718 351.221 85.61 351.293 85.526C351.377 85.442 351.485 85.4 351.617 85.4H359.537C359.669 85.4 359.777 85.442 359.861 85.526C359.945 85.61 359.987 85.718 359.987 85.85V87.038C359.987 87.17 359.945 87.278 359.861 87.362C359.777 87.434 359.669 87.47 359.537 87.47H353.615V90.656H359.141C359.273 90.656 359.381 90.698 359.465 90.782C359.549 90.854 359.591 90.956 359.591 91.088V92.204C359.591 92.336 359.549 92.444 359.465 92.528C359.381 92.6 359.273 92.636 359.141 92.636H353.615V95.93H359.681C359.813 95.93 359.921 95.972 360.005 96.056C360.089 96.14 360.131 96.248 360.131 96.38V97.568C360.131 97.7 360.089 97.808 360.005 97.892C359.921 97.964 359.813 98 359.681 98H351.617ZM366.757 98.18C365.689 98.18 364.771 98.018 364.003 97.694C363.235 97.37 362.653 96.944 362.257 96.416C361.861 95.888 361.651 95.318 361.627 94.706C361.627 94.598 361.663 94.508 361.735 94.436C361.807 94.364 361.897 94.328 362.005 94.328H363.607C363.751 94.328 363.859 94.358 363.931 94.418C364.015 94.466 364.093 94.55 364.165 94.67C364.285 95.078 364.561 95.42 364.993 95.696C365.425 95.972 366.013 96.11 366.757 96.11C367.609 96.11 368.251 95.972 368.683 95.696C369.115 95.408 369.331 95.012 369.331 94.508C369.331 94.172 369.217 93.896 368.989 93.68C368.773 93.464 368.443 93.278 367.999 93.122C367.567 92.966 366.919 92.774 366.055 92.546C364.639 92.21 363.601 91.766 362.941 91.214C362.293 90.65 361.969 89.852 361.969 88.82C361.969 88.124 362.155 87.506 362.527 86.966C362.911 86.426 363.457 86 364.165 85.688C364.885 85.376 365.719 85.22 366.667 85.22C367.651 85.22 368.503 85.394 369.223 85.742C369.943 86.09 370.489 86.528 370.861 87.056C371.245 87.572 371.449 88.088 371.473 88.604C371.473 88.712 371.437 88.802 371.365 88.874C371.293 88.946 371.203 88.982 371.095 88.982H369.421C369.169 88.982 368.995 88.868 368.899 88.64C368.827 88.256 368.587 87.938 368.179 87.686C367.771 87.422 367.267 87.29 366.667 87.29C365.995 87.29 365.467 87.416 365.083 87.668C364.699 87.92 364.507 88.286 364.507 88.766C364.507 89.102 364.603 89.378 364.795 89.594C364.987 89.81 365.287 90.002 365.695 90.17C366.115 90.338 366.715 90.524 367.495 90.728C368.551 90.968 369.391 91.238 370.015 91.538C370.651 91.838 371.119 92.216 371.419 92.672C371.719 93.128 371.869 93.71 371.869 94.418C371.869 95.186 371.653 95.858 371.221 96.434C370.801 96.998 370.201 97.43 369.421 97.73C368.653 98.03 367.765 98.18 366.757 98.18Z" fill="#F9B131"/>
<path d="M312.293 71.7071C312.683 72.0976 313.317 72.0976 313.707 71.7071L320.071 65.3431C320.462 64.9526 320.462 64.3195 320.071 63.9289C319.681 63.5384 319.047 63.5384 318.657 63.9289L313 69.5858L307.343 63.9289C306.953 63.5384 306.319 63.5384 305.929 63.9289C305.538 64.3195 305.538 64.9526 305.929 65.3431L312.293 71.7071ZM312 0V71H314V0L312 0Z" fill="black"/>
</svg>
