<svg width="600" height="102" viewBox="0 0 600 102" fill="none" xmlns="http://www.w3.org/2000/svg">
<path d="M216.669 98.18C215.013 98.18 213.729 97.754 212.817 96.902C211.917 96.05 211.437 94.85 211.377 93.302C211.365 92.978 211.359 92.45 211.359 91.718C211.359 90.974 211.365 90.434 211.377 90.098C211.437 88.562 211.923 87.368 212.835 86.516C213.759 85.652 215.037 85.22 216.669 85.22C217.737 85.22 218.667 85.406 219.459 85.778C220.251 86.138 220.863 86.636 221.295 87.272C221.727 87.896 221.955 88.604 221.979 89.396V89.432C221.979 89.528 221.937 89.612 221.853 89.684C221.781 89.744 221.697 89.774 221.601 89.774H219.891C219.747 89.774 219.639 89.744 219.567 89.684C219.495 89.624 219.435 89.51 219.387 89.342C219.195 88.586 218.877 88.058 218.433 87.758C217.989 87.446 217.395 87.29 216.651 87.29C214.923 87.29 214.023 88.256 213.951 90.188C213.939 90.512 213.933 91.01 213.933 91.682C213.933 92.354 213.939 92.864 213.951 93.212C214.023 95.144 214.923 96.11 216.651 96.11C217.395 96.11 217.989 95.954 218.433 95.642C218.889 95.33 219.207 94.802 219.387 94.058C219.423 93.89 219.477 93.776 219.549 93.716C219.633 93.656 219.747 93.626 219.891 93.626H221.601C221.709 93.626 221.799 93.662 221.871 93.734C221.955 93.806 221.991 93.896 221.979 94.004C221.955 94.796 221.727 95.51 221.295 96.146C220.863 96.77 220.251 97.268 219.459 97.64C218.667 98 217.737 98.18 216.669 98.18ZM224.546 98C224.426 98 224.324 97.958 224.24 97.874C224.156 97.79 224.114 97.688 224.114 97.568V85.832C224.114 85.7 224.156 85.598 224.24 85.526C224.324 85.442 224.426 85.4 224.546 85.4H226.22C226.352 85.4 226.454 85.442 226.526 85.526C226.61 85.598 226.652 85.7 226.652 85.832V95.858H232.358C232.49 95.858 232.598 95.9 232.682 95.984C232.766 96.068 232.808 96.176 232.808 96.308V97.568C232.808 97.7 232.766 97.808 232.682 97.892C232.598 97.964 232.49 98 232.358 98H224.546ZM233.781 98C233.685 98 233.595 97.964 233.511 97.892C233.439 97.82 233.403 97.73 233.403 97.622L233.439 97.46L237.777 85.85C237.861 85.55 238.071 85.4 238.407 85.4H240.369C240.681 85.4 240.891 85.55 240.999 85.85L245.337 97.46C245.349 97.496 245.355 97.55 245.355 97.622C245.355 97.73 245.319 97.82 245.247 97.892C245.175 97.964 245.091 98 244.995 98H243.429C243.273 98 243.153 97.964 243.069 97.892C242.985 97.82 242.931 97.742 242.907 97.658L242.061 95.462H236.715L235.869 97.658C235.773 97.886 235.599 98 235.347 98H233.781ZM241.431 93.392L239.379 87.83L237.345 93.392H241.431ZM251.234 98.18C250.166 98.18 249.248 98.018 248.48 97.694C247.712 97.37 247.13 96.944 246.734 96.416C246.338 95.888 246.128 95.318 246.104 94.706C246.104 94.598 246.14 94.508 246.212 94.436C246.284 94.364 246.374 94.328 246.482 94.328H248.084C248.228 94.328 248.336 94.358 248.408 94.418C248.492 94.466 248.57 94.55 248.642 94.67C248.762 95.078 249.038 95.42 249.47 95.696C249.902 95.972 250.49 96.11 251.234 96.11C252.086 96.11 252.728 95.972 253.16 95.696C253.592 95.408 253.808 95.012 253.808 94.508C253.808 94.172 253.694 93.896 253.466 93.68C253.25 93.464 252.92 93.278 252.476 93.122C252.044 92.966 251.396 92.774 250.532 92.546C249.116 92.21 248.078 91.766 247.418 91.214C246.77 90.65 246.446 89.852 246.446 88.82C246.446 88.124 246.632 87.506 247.004 86.966C247.388 86.426 247.934 86 248.642 85.688C249.362 85.376 250.196 85.22 251.144 85.22C252.128 85.22 252.98 85.394 253.7 85.742C254.42 86.09 254.966 86.528 255.338 87.056C255.722 87.572 255.926 88.088 255.95 88.604C255.95 88.712 255.914 88.802 255.842 88.874C255.77 88.946 255.68 88.982 255.572 88.982H253.898C253.646 88.982 253.472 88.868 253.376 88.64C253.304 88.256 253.064 87.938 252.656 87.686C252.248 87.422 251.744 87.29 251.144 87.29C250.472 87.29 249.944 87.416 249.56 87.668C249.176 87.92 248.984 88.286 248.984 88.766C248.984 89.102 249.08 89.378 249.272 89.594C249.464 89.81 249.764 90.002 250.172 90.17C250.592 90.338 251.192 90.524 251.972 90.728C253.028 90.968 253.868 91.238 254.492 91.538C255.128 91.838 255.596 92.216 255.896 92.672C256.196 93.128 256.346 93.71 256.346 94.418C256.346 95.186 256.13 95.858 255.698 96.434C255.278 96.998 254.678 97.43 253.898 97.73C253.13 98.03 252.242 98.18 251.234 98.18ZM262.783 98.18C261.715 98.18 260.797 98.018 260.029 97.694C259.261 97.37 258.679 96.944 258.283 96.416C257.887 95.888 257.677 95.318 257.653 94.706C257.653 94.598 257.689 94.508 257.761 94.436C257.833 94.364 257.923 94.328 258.031 94.328H259.633C259.777 94.328 259.885 94.358 259.957 94.418C260.041 94.466 260.119 94.55 260.191 94.67C260.311 95.078 260.587 95.42 261.019 95.696C261.451 95.972 262.039 96.11 262.783 96.11C263.635 96.11 264.277 95.972 264.709 95.696C265.141 95.408 265.357 95.012 265.357 94.508C265.357 94.172 265.243 93.896 265.015 93.68C264.799 93.464 264.469 93.278 264.025 93.122C263.593 92.966 262.945 92.774 262.081 92.546C260.665 92.21 259.627 91.766 258.967 91.214C258.319 90.65 257.995 89.852 257.995 88.82C257.995 88.124 258.181 87.506 258.553 86.966C258.937 86.426 259.483 86 260.191 85.688C260.911 85.376 261.745 85.22 262.693 85.22C263.677 85.22 264.529 85.394 265.249 85.742C265.969 86.09 266.515 86.528 266.887 87.056C267.271 87.572 267.475 88.088 267.499 88.604C267.499 88.712 267.463 88.802 267.391 88.874C267.319 88.946 267.229 88.982 267.121 88.982H265.447C265.195 88.982 265.021 88.868 264.925 88.64C264.853 88.256 264.613 87.938 264.205 87.686C263.797 87.422 263.293 87.29 262.693 87.29C262.021 87.29 261.493 87.416 261.109 87.668C260.725 87.92 260.533 88.286 260.533 88.766C260.533 89.102 260.629 89.378 260.821 89.594C261.013 89.81 261.313 90.002 261.721 90.17C262.141 90.338 262.741 90.524 263.521 90.728C264.577 90.968 265.417 91.238 266.041 91.538C266.677 91.838 267.145 92.216 267.445 92.672C267.745 93.128 267.895 93.71 267.895 94.418C267.895 95.186 267.679 95.858 267.247 96.434C266.827 96.998 266.227 97.43 265.447 97.73C264.679 98.03 263.791 98.18 262.783 98.18ZM270.39 98C270.27 98 270.168 97.958 270.084 97.874C270 97.79 269.958 97.688 269.958 97.568V85.85C269.958 85.718 269.994 85.61 270.066 85.526C270.15 85.442 270.258 85.4 270.39 85.4H278.31C278.442 85.4 278.55 85.442 278.634 85.526C278.718 85.61 278.76 85.718 278.76 85.85V87.038C278.76 87.17 278.718 87.278 278.634 87.362C278.55 87.434 278.442 87.47 278.31 87.47H272.388V90.656H277.914C278.046 90.656 278.154 90.698 278.238 90.782C278.322 90.854 278.364 90.956 278.364 91.088V92.204C278.364 92.336 278.322 92.444 278.238 92.528C278.154 92.6 278.046 92.636 277.914 92.636H272.388V95.93H278.454C278.586 95.93 278.694 95.972 278.778 96.056C278.862 96.14 278.904 96.248 278.904 96.38V97.568C278.904 97.7 278.862 97.808 278.778 97.892C278.694 97.964 278.586 98 278.454 98H270.39ZM281.605 98C281.473 98 281.365 97.964 281.281 97.892C281.197 97.808 281.155 97.7 281.155 97.568V85.85C281.155 85.718 281.197 85.61 281.281 85.526C281.365 85.442 281.473 85.4 281.605 85.4H283.027C283.279 85.4 283.459 85.514 283.567 85.742L287.041 92.222L290.551 85.742C290.671 85.514 290.851 85.4 291.091 85.4H292.495C292.627 85.4 292.735 85.442 292.819 85.526C292.903 85.61 292.945 85.718 292.945 85.85V97.568C292.945 97.7 292.903 97.808 292.819 97.892C292.735 97.964 292.627 98 292.495 98H290.983C290.863 98 290.761 97.958 290.677 97.874C290.593 97.79 290.551 97.688 290.551 97.568V89.774L288.031 94.58C287.875 94.844 287.671 94.976 287.419 94.976H286.681C286.429 94.976 286.225 94.844 286.069 94.58L283.549 89.774V97.568C283.549 97.688 283.507 97.79 283.423 97.874C283.351 97.958 283.249 98 283.117 98H281.605ZM296.177 98C296.057 98 295.955 97.958 295.871 97.874C295.787 97.79 295.745 97.688 295.745 97.568V85.85C295.745 85.718 295.781 85.61 295.853 85.526C295.937 85.442 296.045 85.4 296.177 85.4H304.097C304.229 85.4 304.337 85.442 304.421 85.526C304.505 85.61 304.547 85.718 304.547 85.85V87.038C304.547 87.17 304.505 87.278 304.421 87.362C304.337 87.434 304.229 87.47 304.097 87.47H298.175V90.656H303.701C303.833 90.656 303.941 90.698 304.025 90.782C304.109 90.854 304.151 90.956 304.151 91.088V92.204C304.151 92.336 304.109 92.444 304.025 92.528C303.941 92.6 303.833 92.636 303.701 92.636H298.175V95.93H304.241C304.373 95.93 304.481 95.972 304.565 96.056C304.649 96.14 304.691 96.248 304.691 96.38V97.568C304.691 97.7 304.649 97.808 304.565 97.892C304.481 97.964 304.373 98 304.241 98H296.177ZM307.374 98C307.254 98 307.152 97.958 307.068 97.874C306.984 97.79 306.942 97.688 306.942 97.568V85.85C306.942 85.718 306.978 85.61 307.05 85.526C307.134 85.442 307.242 85.4 307.374 85.4H308.76C308.904 85.4 309.012 85.43 309.084 85.49C309.156 85.538 309.222 85.604 309.282 85.688L314.466 93.752V85.85C314.466 85.718 314.502 85.61 314.574 85.526C314.658 85.442 314.766 85.4 314.898 85.4H316.41C316.542 85.4 316.65 85.442 316.734 85.526C316.818 85.61 316.86 85.718 316.86 85.85V97.55C316.86 97.682 316.818 97.79 316.734 97.874C316.65 97.958 316.548 98 316.428 98H315.024C314.82 98 314.646 97.904 314.502 97.712L309.336 89.828V97.568C309.336 97.7 309.294 97.808 309.21 97.892C309.126 97.964 309.018 98 308.886 98H307.374ZM322.873 98C322.753 98 322.651 97.958 322.567 97.874C322.483 97.79 322.441 97.688 322.441 97.568V87.614H319.111C318.991 87.614 318.889 87.572 318.805 87.488C318.721 87.404 318.679 87.302 318.679 87.182V85.85C318.679 85.718 318.715 85.61 318.787 85.526C318.871 85.442 318.979 85.4 319.111 85.4H328.291C328.423 85.4 328.531 85.442 328.615 85.526C328.699 85.61 328.741 85.718 328.741 85.85V87.182C328.741 87.302 328.699 87.404 328.615 87.488C328.531 87.572 328.423 87.614 328.291 87.614H324.979V97.568C324.979 97.688 324.937 97.79 324.853 97.874C324.769 97.958 324.661 98 324.529 98H322.873ZM339.137 98.18C337.493 98.18 336.209 97.754 335.285 96.902C334.373 96.05 333.887 94.862 333.827 93.338C333.815 92.99 333.809 92.432 333.809 91.664C333.809 90.896 333.815 90.338 333.827 89.99C333.887 88.502 334.379 87.338 335.303 86.498C336.239 85.646 337.517 85.22 339.137 85.22C340.241 85.22 341.189 85.406 341.981 85.778C342.773 86.15 343.373 86.618 343.781 87.182C344.189 87.734 344.405 88.28 344.429 88.82V88.856C344.429 88.952 344.393 89.036 344.321 89.108C344.249 89.168 344.159 89.198 344.051 89.198H342.197C342.077 89.198 341.987 89.18 341.927 89.144C341.867 89.096 341.813 89.018 341.765 88.91C341.597 88.466 341.303 88.088 340.883 87.776C340.463 87.452 339.881 87.29 339.137 87.29C338.297 87.29 337.637 87.518 337.157 87.974C336.689 88.43 336.437 89.132 336.401 90.08C336.389 90.428 336.383 90.956 336.383 91.664C336.383 92.36 336.389 92.888 336.401 93.248C336.473 95.156 337.397 96.11 339.173 96.11C340.025 96.11 340.709 95.882 341.225 95.426C341.741 94.958 341.999 94.268 341.999 93.356V92.798H339.803C339.671 92.798 339.563 92.756 339.479 92.672C339.407 92.588 339.371 92.48 339.371 92.348V91.394C339.371 91.262 339.407 91.154 339.479 91.07C339.563 90.986 339.671 90.944 339.803 90.944H344.105C344.237 90.944 344.339 90.986 344.411 91.07C344.495 91.154 344.537 91.262 344.537 91.394V93.284C344.537 94.28 344.315 95.15 343.871 95.894C343.439 96.626 342.815 97.19 341.999 97.586C341.183 97.982 340.229 98.18 339.137 98.18ZM347.276 98C347.156 98 347.054 97.958 346.97 97.874C346.886 97.79 346.844 97.688 346.844 97.568V85.85C346.844 85.718 346.88 85.61 346.952 85.526C347.036 85.442 347.144 85.4 347.276 85.4H355.196C355.328 85.4 355.436 85.442 355.52 85.526C355.604 85.61 355.646 85.718 355.646 85.85V87.038C355.646 87.17 355.604 87.278 355.52 87.362C355.436 87.434 355.328 87.47 355.196 87.47H349.274V90.656H354.8C354.932 90.656 355.04 90.698 355.124 90.782C355.208 90.854 355.25 90.956 355.25 91.088V92.204C355.25 92.336 355.208 92.444 355.124 92.528C355.04 92.6 354.932 92.636 354.8 92.636H349.274V95.93H355.34C355.472 95.93 355.58 95.972 355.664 96.056C355.748 96.14 355.79 96.248 355.79 96.38V97.568C355.79 97.7 355.748 97.808 355.664 97.892C355.58 97.964 355.472 98 355.34 98H347.276ZM350.228 84.5C350.036 84.5 349.94 84.404 349.94 84.212C349.94 84.116 349.97 84.038 350.03 83.978L351.488 82.196C351.608 82.064 351.71 81.98 351.794 81.944C351.878 81.896 351.998 81.872 352.154 81.872H354.08C354.308 81.872 354.422 81.986 354.422 82.214C354.422 82.298 354.392 82.37 354.332 82.43L352.1 84.266C351.992 84.35 351.89 84.41 351.794 84.446C351.71 84.482 351.602 84.5 351.47 84.5H350.228ZM358.474 98C358.354 98 358.252 97.958 358.168 97.874C358.084 97.79 358.042 97.688 358.042 97.568V85.85C358.042 85.718 358.078 85.61 358.15 85.526C358.234 85.442 358.342 85.4 358.474 85.4H359.86C360.004 85.4 360.112 85.43 360.184 85.49C360.256 85.538 360.322 85.604 360.382 85.688L365.566 93.752V85.85C365.566 85.718 365.602 85.61 365.674 85.526C365.758 85.442 365.866 85.4 365.998 85.4H367.51C367.642 85.4 367.75 85.442 367.834 85.526C367.918 85.61 367.96 85.718 367.96 85.85V97.55C367.96 97.682 367.918 97.79 367.834 97.874C367.75 97.958 367.648 98 367.528 98H366.124C365.92 98 365.746 97.904 365.602 97.712L360.436 89.828V97.568C360.436 97.7 360.394 97.808 360.31 97.892C360.226 97.964 360.118 98 359.986 98H358.474ZM371.2 98C371.08 98 370.978 97.958 370.894 97.874C370.81 97.79 370.768 97.688 370.768 97.568V85.85C370.768 85.718 370.804 85.61 370.876 85.526C370.96 85.442 371.068 85.4 371.2 85.4H379.12C379.252 85.4 379.36 85.442 379.444 85.526C379.528 85.61 379.57 85.718 379.57 85.85V87.038C379.57 87.17 379.528 87.278 379.444 87.362C379.36 87.434 379.252 87.47 379.12 87.47H373.198V90.656H378.724C378.856 90.656 378.964 90.698 379.048 90.782C379.132 90.854 379.174 90.956 379.174 91.088V92.204C379.174 92.336 379.132 92.444 379.048 92.528C378.964 92.6 378.856 92.636 378.724 92.636H373.198V95.93H379.264C379.396 95.93 379.504 95.972 379.588 96.056C379.672 96.14 379.714 96.248 379.714 96.38V97.568C379.714 97.7 379.672 97.808 379.588 97.892C379.504 97.964 379.396 98 379.264 98H371.2ZM374.152 84.5C373.96 84.5 373.864 84.404 373.864 84.212C373.864 84.116 373.894 84.038 373.954 83.978L375.412 82.196C375.532 82.064 375.634 81.98 375.718 81.944C375.802 81.896 375.922 81.872 376.078 81.872H378.004C378.232 81.872 378.346 81.986 378.346 82.214C378.346 82.298 378.316 82.37 378.256 82.43L376.024 84.266C375.916 84.35 375.814 84.41 375.718 84.446C375.634 84.482 375.526 84.5 375.394 84.5H374.152ZM382.398 98C382.278 98 382.176 97.958 382.092 97.874C382.008 97.79 381.966 97.688 381.966 97.568V85.85C381.966 85.718 382.002 85.61 382.074 85.526C382.158 85.442 382.266 85.4 382.398 85.4H387.06C388.524 85.4 389.67 85.742 390.498 86.426C391.338 87.11 391.758 88.082 391.758 89.342C391.758 90.218 391.542 90.956 391.11 91.556C390.69 92.144 390.102 92.57 389.346 92.834L391.974 97.424C392.01 97.496 392.028 97.562 392.028 97.622C392.028 97.73 391.986 97.82 391.902 97.892C391.83 97.964 391.746 98 391.65 98H390.012C389.82 98 389.67 97.958 389.562 97.874C389.466 97.79 389.376 97.67 389.292 97.514L386.97 93.248H384.468V97.568C384.468 97.688 384.426 97.79 384.342 97.874C384.27 97.958 384.168 98 384.036 98H382.398ZM387.006 91.214C387.726 91.214 388.266 91.052 388.626 90.728C388.998 90.404 389.184 89.936 389.184 89.324C389.184 88.712 388.998 88.238 388.626 87.902C388.266 87.566 387.726 87.398 387.006 87.398H384.468V91.214H387.006ZM393.303 98C393.207 98 393.117 97.964 393.033 97.892C392.961 97.82 392.925 97.73 392.925 97.622L392.961 97.46L397.299 85.85C397.383 85.55 397.593 85.4 397.929 85.4H399.891C400.203 85.4 400.413 85.55 400.521 85.85L404.859 97.46C404.871 97.496 404.877 97.55 404.877 97.622C404.877 97.73 404.841 97.82 404.769 97.892C404.697 97.964 404.613 98 404.517 98H402.951C402.795 98 402.675 97.964 402.591 97.892C402.507 97.82 402.453 97.742 402.429 97.658L401.583 95.462H396.237L395.391 97.658C395.295 97.886 395.121 98 394.869 98H393.303ZM400.953 93.392L398.901 87.83L396.867 93.392H400.953ZM406.989 98C406.869 98 406.767 97.958 406.683 97.874C406.599 97.79 406.557 97.688 406.557 97.568V85.832C406.557 85.7 406.599 85.598 406.683 85.526C406.767 85.442 406.869 85.4 406.989 85.4H408.663C408.795 85.4 408.897 85.442 408.969 85.526C409.053 85.598 409.095 85.7 409.095 85.832V95.858H414.801C414.933 95.858 415.041 95.9 415.125 95.984C415.209 96.068 415.251 96.176 415.251 96.308V97.568C415.251 97.7 415.209 97.808 415.125 97.892C415.041 97.964 414.933 98 414.801 98H406.989Z" fill="#F9B131"/>
<path d="M312.293 71.7071C312.683 72.0976 313.317 72.0976 313.707 71.7071L320.071 65.3431C320.462 64.9526 320.462 64.3195 320.071 63.9289C319.681 63.5384 319.047 63.5384 318.657 63.9289L313 69.5858L307.343 63.9289C306.953 63.5384 306.319 63.5384 305.929 63.9289C305.538 64.3195 305.538 64.9526 305.929 65.3431L312.293 71.7071ZM312 0V71H314V0L312 0Z" fill="black"/>
</svg>
